<?xml version="1.0" encoding="UTF-8"?>
<svg id="_Слой_2" data-name="Слой 2" xmlns="http://www.w3.org/2000/svg" xmlns:xlink="http://www.w3.org/1999/xlink" viewBox="0 0 349.32 259.9">
  <defs>
    <style>
      .cls-1 {
        fill: url(#radial-gradient);
      }

      .cls-2 {
        clip-path: url(#clippath);
      }

      .cls-3 {
        fill: none;
      }
    </style>
    <clipPath id="clippath">
      <path class="cls-3" d="M157.51,173.04c-7.75,0-15.5,.01-23.25-.01-1.25,0-3.06,.4-3.09-1.48-.03-1.81,1.82-1.81,3.02-1.66,8.94,1.07,18.13-.03,26.81,3.14,1.82,.67,3.35-.23,4.87-.83,4.47-1.76,9.49-2.04,13.57-5.64-42.34,1.18-84.44-4.42-126.95-2.56,3.21-.52,3.32-4.53,6.29-4.99,.51-.08,1.35-.56,.77-1.11-2.68-2.5-1.05-6.03-2.29-8.72-.54-1.17-1.99-1.78-.38-3.03,.92-.71,2.1-1.21,3.1-.43,1.24,.95,.2,2-.21,3.01-.21,.5-.22,1.08-.41,2.12,2.51-.37,4.81-.75,7.12-1.04,1.69-.22,2.95,.51,3.71,2.01,1.08,2.12-1.46,2.2-2.13,3.33-.94,1.59-2.22,.08-3.03-.93-.83-1.04-1.72-2.57-2.97-.84-1,1.39,1.25,1.49,1.55,2.3,2.67,7.23,8.14,5.55,13.7,4.81,5.99-.8,12.08-1.08,18.13-1.14,3.53-.03,4.62-1.43,4.63-4.7,.01-4.92,.09-9.86,.54-14.76,.42-4.57,.74-8.67,5.04-12.53,2.86-2.57,3.96-7.73,8.21-9.95-2.34-3.86,1.51-7.36,.63-11.14-.25-1.07,.16-2.07,1.28-2.03,1.12,.04,1.63,1.12,1.05,2.07-1.95,3.17,1.62,6.61-.6,9.81-.52,.75,.23,1.76,1.32,2.09,4.14,1.25,5.75,4.87,8.32,7.85,2.66,3.08,2.62,5.47,2.45,8.94-.39,8.18-.13,16.39-.13,24.58,.56,.03,1.13,.06,1.69,.09,.25-2.15,.44-4.3,.75-6.44,.48-3.3-1.28-7.35,3.18-9.41,.45-.21,.36-1.76,.38-2.69,.06-2.27,.04-4.55,.05-6.82,.02-8.32,.71-16.56-3.11-24.61-2-4.21-3.84-9.83,3.65-12.5,2.94-1.05,.62-5.11,1.5-7.79,2.49,1.07,.84,3.15,1.57,4.5,.7,1.3,1.61,2.15,3.17,1.61,1.8-.62,2.11-1.98,1.4-3.55-4.02-8.88-2.35-17.66,1.53-25.83,4.59-9.69,11.25-17.93,20.86-23.35,3.46-1.95,6.09-11.19,4.53-17.05-1.16-4.38-.12-7.84,2.5-11.35,2.43-3.27,4.77-6.85,2.76-11.31-.52-1.16-.66-2.26,.63-2.87,.59-.28,1.56-.28,2.13,.03,.97,.53,.67,1.44,.4,2.43-1.3,4.78,1.04,8.48,3.68,12.16,1.41,1.97,3.39,4.21,3.4,6.34,0,2.56-3,2.75-5.31,2.89-1.33,.08-1.19,1.11-1.13,2.09,.2,2.98,.34,5.96,.58,10.09,2.05-3.98,.04-7.31,1.46-10.19,2.26,.2,1.6,2.02,1.46,3-.94,6.47,3.48,9.78,7.95,12.27,10.82,6.03,16.54,15.69,20.54,26.76,.97,2.67,1.18,5.32,3.14,7.94,1.55,2.08,.24,6.32,.14,9.61-.09,3.1,.23,5.37,3.73,7.2,4.73,2.47,6.13,8.48,4.09,13.59-1.39,3.49-1.01,7.01-.91,10.57,.08,2.84,.37,5.71,.1,8.52-1.05,11.14,2.22,22.04,1.75,33.12-.21,5.08,3.52,2.55,5.54,3.06,2.43,.61,3.65-.31,3.64-3.27-.05-8.54,.24-17.08,.54-25.61,.05-1.53-1.71-4.8,2.65-3.56,1.44,.41,1.37-1.39,1.72-2.39,.43-1.24,.53-3.01,1.41-3.61,6.26-4.2,7.07-10.57,7.29-17.6,0,11.26,6.94,17.63,14.78,23.97-2.19,1.69-3.44,4.16-1.81,7.68,1.28,2.76-1.25,2.39-2.8,2.47-5.86,.33-11.72,.65-17.58,.89-1.75,.07-3.51-.21-3.63,2.33-.26,5.29-.67,10.55-.07,15.88,.4,3.5,2.61,2.98,4.85,2.99,3.21,.01,2.55-2.25,2.15-3.97-.95-4.12-1.18-8.15,.12-12.24,.53-1.68,.89-3.43,3.01-3.59,2.03-.15,3.11,1.28,3.71,2.94,1.43,3.93,2.36,7.99,2.31,12.2-.03,2.73,.22,4.77,3.88,4.68,3.7-.09,3.12-2.39,3.04-4.65-.15-4.35-.35-8.71-.41-13.07-.02-1.17-.55-3.03,1.46-3.02,1.53,0,1.21,1.63,1.29,2.66,.36,4.72,.7,9.44,.96,14.16,.11,1.93-.15,3.92,2.76,3.83,10.72-.34,21.44,1.61,32.64,.3q-4.67-1.85,.03-8.33-2.96,.22-8.06,3.06c.62-2.3-2.72-3.99-.2-6.14,3.69-3.16,6.98,0,10.26,1.15,.98-1.32,.38-2.44,.02-3.44-.3-.84-1.29-1.6-.01-2.3,.61-.34,1.5-.58,2.13-.39,1.63,.49,.12,1.44,.18,2.19,.32,3.91,.94,7.81-.22,11.71-.19,.63,.16,2.04,.26,2.04,6.91,.02,3.27,6.62,5.81,9.24,2.68,2.76-.33,4.88-.42,7.28-.16,4.15,.2,8.32,.39,12.48,.07,1.38-.67,3.32,1.67,3.52,1.6,.14,3.39,1,4.74-.76,1.07-1.39-.07-2.67-.07-3.8,0-3.34,1.14-6.7,1.98-10.01,.17-.68,1.09-1.02,1.9-.61,.95,.49,1.12,1.37,1.24,2.36,.43,3.83-.29,7.48-2.11,10.78-.94,1.7-1.15,2.53,.78,3.43,5.21,2.43,3.34,6.33,1.89,10.04-.32,.81-1.62,2-1.56,2.07,6.33,6.08-.39,12.69,.76,19.11,1.22,6.82,.97,13.98,.75,20.97-.15,4.67,1.16,6.26,5.96,5.9,6.03-.44,12.12-.19,18.18,.02,2.61,.09,7.17-1.28,7.17,2.02,0,2.87-4.72,1.8-7.29,1.79-14.21-.07-28.43-.11-42.62-.75-38.84-1.75-77.65-.24-116.48,.08-42.82,.35-85.58,3.05-128.39,3.08-16.4,.01-32.84,.32-49.24-.53-.57-.03-1.14-.02-1.7-.03-1.53-.05-3.59-.03-3.61-1.87-.02-2.19,2.17-1.56,3.57-1.52,2.65,.06,5.3,.28,7.95,.43,9.68,.55,19.31-.43,28.94-1.08,1.85-.12,4.12,.25,3.64-3.37-1.27-9.57-1.94-19.21-3-28.8-.41-3.69-.19-7.62-2.95-10.71-.34-.38-.71-1.34-.54-1.51,5.44-5.4-.18-13.28,4.73-19.45,2.24-2.82,.31-9.03,.12-13.69-.08-1.93,.28-3.71,2.36-3.72,4.43,0,2.8-3.1,2.81-5.19,0-1.22-2.2-2.94,.61-3.32,1.68-.22,4.16,1.1,3.69,2.72-2.45,8.31,2.15,4.25,5.54,3.6,10.88-2.09,21.78-.39,32.67,.3,4.32,.27,8.54,1.86,12.6-2.27,2.16-2.19,6.54-.03,9.91-.14,4.55-.16,9.08,3.8,13.74-.15,1.07-.91,1.75,.74,2.46,2.03,1.89,3.47-1.04,7.27,1.38,10.73,1.34,1.91,2.2,2.61,4.37,1.72,7.66-3.13,15.36-6.15,23.05-9.21-.04-.59-.07-1.17-.11-1.76Zm-15.99-63.38c3.11,.76,4.03,2.68,3.89,5.86-.33,7.37-.3,14.76-.35,22.14,0,1.38-.47,3.34,2.05,3.06,2.02-.23,1.45-1.82,1.46-3.07,.07-7.19,.13-14.39,.19-21.58,.01-1.6-.83-4.11,1.51-4.13,2.48-.02,2.15,2.55,2.08,4.41-.25,6.62-.56,13.24-.71,19.87-.03,1.38-1.14,3.71,1.97,3.57,2.54-.12,1.68-1.99,1.76-3.31,.43-7.37,.71-14.75,1.3-22.11,.14-1.81-.55-5.08,2.39-4.88,3.08,.21,1.64,3.18,1.55,5.05-.31,6.81-.82,13.61-1.01,20.42-.05,1.87-1.11,4.77,3.03,4.37,2.99-.29,3.59-1.23,3.49-4.2-.23-6.99,.14-14,.25-21.01,.03-1.81-.71-4.08,2.35-4.02,2.95,.06,2.47,2.28,2.37,4.12-.36,6.8-.59,13.62-1.24,20.39-.3,3.15,.23,4.39,3.71,4.21,3.3-.17,5.14-.39,4.66-4.66-.73-6.56-.85-13.22,.01-19.84,.24-1.84-.06-4.19,2.72-4.09,2.96,.11,2.19,2.58,2.15,4.31-.13,6.43-.31,12.86-.64,19.29-.19,3.7,.93,5.09,5.02,4.98,4.65-.13,3.35-2.97,3.41-5.38,.18-7.18-.34-14.4,.99-21.53,.2-1.05-.06-2.55,1.38-2.72,1.54-.18,2.39,1.11,2.63,2.43,.27,1.47,.23,3.01,.16,4.52-.27,6.24-.32,12.51-1.02,18.71-.37,3.31,.47,4.3,3.66,4.46,3.78,.2,2.59-2.43,2.64-4.18,.17-6.62,.19-13.24,.25-19.87,.01-1.35-.03-3.05,1.49-3.23,1.35-.16,2.19,1.41,2.66,2.62,.4,1.02,.52,2.22,.48,3.32-.23,5.67-.62,11.34-.82,17.01-.06,1.75-2,4.49,1.64,4.81,3.83,.34,2.17-2.71,2.23-4.39,.2-5.48,.05-10.98,.28-16.46,.1-2.27-.58-6.21,2.19-6.13,3.49,.09,1.62,3.89,1.62,6.04,0,5.87-.47,11.73-.42,17.6,.01,1.45-1.45,4.45,1.79,4.29,2.67-.13,1.16-2.63,1.25-4.06,.51-7.73-.66-15.55,1.04-23.2,.89-3.98-.63-5.1-4.37-5.67-23.8-3.65-47.46-3.22-70.98,1.93-1.05,1.38-4.21,.79-3.67,3.51,1.66,8.42,.31,16.93,.92,25.37,.08,1.15-.71,3.03,1.24,3.19,1.93,.16,1.78-1.64,1.71-2.9-.53-9.75,.81-19.52-.34-29.26Zm-20.87,84.49c2.5-.19,2.99,2.98,5.55,3.07,12.27,.45,24.46,2.06,36.79,1.71,24.4-.69,48.81-2.61,73.23-.24,4.42,.43,3.37-2.55,1.91-6.75-.87,5.27-3.76,4.77-6.52,4.53-11.15-.96-22.33-1.03-33.51-1.06-18.38-.04-36.76,.05-55.14-.07-8.3-.06-14.06-1.25-16.4-2.65,10.22-3.15,21.18-.35,32.03-1.22-.17-2.12-.63-3.99-.38-5.76,.32-2.3,.37-6.36,2.93-5.91,3.73,.65,0,3.89,.49,5.95,.04,.17,.21,.31,.5,.73,.42-.66,.76-1.23,1.14-1.77,1.3-1.84-.03-6.2,3.15-5.56,2.36,.48,.71,4.33,.66,6.6-.09,4,.56,5.92,5.46,5.68,11.92-.59,23.86-.18,35.79,.33,8.1,.35,16.24,.07,25.65,.07-16.82-7.99-33.04-13.69-49.14-19.7-2.66-1-5.12-.62-7.75,.1-14.24,3.93-28.06,9.04-41.76,14.53-3.88,1.56-7.65,3.67-12.01,4.24,0-3.65,3.73-3.24,4.76-5.56-2.55,.04-3.3-.52-2.46-3.34,1.44-4.81-1.31-8.36-6.2-8.87-3.96-.41-7.96-.49-11.87-1.18-4.01-.71-4.47,1.02-4,4.34,.61,4.33,1.09,8.73-.88,14.36-1.97-4.13-1.01-7.16-1.45-9.98-.3-1.96-.24-4.52-3.11-4.55-12.32-.14-24.48-2.55-36.83-2.41-3.13,.04-5.25,2.76-5.38,3.71-.6,4.42-.34,9.01,.07,13.5,.16,1.71,2.24,1.06,3.37,.79,1.34-.33,.36-1.17,.21-2.02-.58-3.26-1.23-6.49-.91-9.94,.34-3.67,3.33-2.3,5.02-3.25,.95-.53,2.86,.81,2.21,1.59-2.67,3.26,.43,6.11,.14,8.84-.56,5.29,2.5,4.17,5.3,4.17,14.78,0,29.56-.06,44.34,.02,2.16,.01,5.41-1.15,5.18,3.12-14.36,.04-28.73-.04-43.09,.17-10.96,.16-21.92,.68-32.88,1-1.4,.04-2.69-.16-2.25,1.99,.36,1.76,1.24,2.14,2.81,1.56,1.36-.5,2.37-1.59,4.11-1.51,20.39,.89,40.86-.31,61.2,2.15,4.78,.58,9.54,1.52,9.93-5.56Zm118.25,32.17c.08,0,.17,0,.25,0,0,3.03-.14,6.06,.03,9.08,.21,3.64-1.47,7.59,3.59,10.23,1.29,.67,3.83,1.8,5.17,3.55,1.79,2.35,10.42,4.11,12.81,2.8,1.14-.62,.92-1.52,.76-2.39-1.9-10.15-.53-20.4-.99-30.58-.21-4.54-.74-8.84,1.66-13.02,1.41-2.46,.49-3.43-2.48-3.8-8.33-1.06-16.32,2.02-24.62,1.61-2.17-.11-7.82-3.67-6.98,3.56,.03,.25-1.22,.75-1.92,.96-1.83,.53-2.03,1.79-2.05,3.49-.1,9.08-.29,18.17-.52,27.25-.19,7.35,5.54,2.59,8.27,3.94,3.55,1.75,2.75-1.82,2.95-3.48,1.08-9.06-.17-18.15,.14-27.23,.03-.86-.26-1.9-.77-2.58-.79-1.04-3.41-1.85-1.2-3.25,2.34-1.48,5.58-2.08,8-.11,2.64,2.15-.3,2.31-1.49,3.2-1.2,.9-.56,2.45-.58,3.71-.07,4.35-.03,8.71-.03,13.06Zm-52.66-66.32c.02,.54,.03,1.08,.05,1.62,7.08,0,14.17,.02,21.25-.01,3.4-.02,7.46,.98,10.04-.51,3.24-1.87-.28-6.27,.88-9.35,1.14-3.03-.48-3.61-2.84-3.97-23.85-3.67-47.76-4.86-71.72-1.26-8.87,1.33-8.52,1.55-9.68,10.28-.46,3.49-.06,4.4,3.46,4.62,12.09,.75,24.19,1.08,36.3,.86,1.31-.02,3.06,.77,4.31-2.25h-42.41c1.81-2.4,3.2-1.61,4.38-1.6,11.16,.08,22.33,.17,33.49,.41,3.06,.07,5.15-.22,4.79-4.13-.22-2.39,1.05-3.86,3.82-3.66,3.15,.23,3.27,2.12,2.51,4.35-1.32,3.87,1.21,3.5,3.56,3.41,7.56-.26,15.12-.55,22.69-.75,1.7-.04,3.59-.5,4.99,1.95h-29.88Zm-80.49,44.8c1.87,.94,1.17,2.45,1.25,3.64,.93,13.59,1.76,27.19,2.76,40.77,.11,1.47-.47,3.92,1.9,4.11,2.29,.18,5.48,1.48,6.82-.97,2.69-4.93,6.79-9.07,6.52-15.65-.32-7.89-.1-15.89,1.11-23.8,.3-1.97,.2-3.71-1.68-5.89-4.31-5.01-9.61-3.17-14.46-3.43-9.23-.49-9.23-.19-8.64,8.81,.16,2.46,.43,4.93,.28,7.38-.62,10.23,.64,20.32,1.97,30.42,.16,1.18-.57,2.98,1.43,3.12,2.53,.17,1.66-1.95,1.81-3.26,.11-.93,.01-1.89-.02-2.84-.56-14.08-1.4-28.15-1.04-42.4Zm-6.14,30.35c.65-9.13,.16-17.99-.79-26.83-.35-3.19-1.25-5.59-5.25-5.86-8.48-.58-16.93-1.42-25.46-1.02-2.79,.13-3.97,.85-4.05,3.9-.39,15.32,.16,30.57,1.95,45.8,.29,2.49,1.52,2.57,3.37,2.55,9.44-.1,18.89-.2,28.33-.16,2.56,.01,3.11-.8,2.83-3.33-.56-5.06-.65-10.17-.93-15.03Zm165.5-4.16c0,7.13,.03,12.81-.02,18.49-.01,1.74,.3,2.98,2.45,2.79,1.3-.12,1.87-.36,1.69-2.02-.78-7.14-.42-14.28,.25-21.42,.23-2.44,1.1-6.5,.07-7.11-8-4.74,.28-5.51,1.79-7.46,1.45-1.88,3.76-3.11,5.76-4.53,.86-.6,1.67-1.32,3.03-.8,6.07,2.32,10.21,9.29,9.21,15.82-1.17,7.69-1.56,15.46-1.36,23.2,.15,5.69,5.22,4.3,8.76,4.93,3.85,.68,3.73-1.67,3.6-4.36-.62-13.22,.94-26.34,2.2-39.45,.28-2.92-.72-3.53-3.22-3.74-10.18-.86-20.35-1.81-30.51-2.83-2.85-.29-3.88,1.01-3.6,3.58,.97,8.79-1.23,17.56-.11,24.9Zm.63-56.25c5.66-1.45,9.86-2.31,14.11-1.5,6.79,1.28,13.54,.5,20.31,.1,1.53-.09,3.24-.15,2.59-2.51-.39-1.43,.55-3.46-2.26-3.71-12.26-1.09-24.53-1.22-36.81-.8-1.64,.06-2.53,.75-2.37,2.38,.09,.93-1.25,2.7,.48,2.68,4.75-.05,2.94,3.37,3.12,5.53,.31,3.76,.45,7.56,.29,11.32-.14,3.31,1.26,4.19,4.34,4.21,7.37,.04,14.74,.38,22.11,.6q10.52,.3,10.79-9.88c.03-1.13-.14-2.34,.18-3.39,1.21-4.01-.52-4.95-4.22-4.67-10.35,.78-20.7,.64-32.65-.35Zm-78.27,28.91c-7.39,0-14.39-.02-21.38,0-3.18,.01-6.38,4.04-5.44,7.16,.68,2.26,.59,4.48,.61,6.73,.06,7,.21,14.01,.1,21.01-.05,3.07,1.2,4.12,4.06,3.62,2.26-.39,5.44,1.29,5.56-3.35,.17-6.23,1.32-12.44,1.42-18.66,.07-4,1.83-8.9-3.46-11.47-.26-.13-.43-1.2-.21-1.46,2.01-2.35,4.83-2.86,7.68-2.8,2.9,.06,2.26,2.33,2.25,4.2-.03,8.89-1.86,17.64-1.76,26.59,.06,5.35,1.25,7.33,6.87,6.94,3.77-.27,5.53-.92,5.2-5.03-.24-3,.4-6.05,.32-9.07-.2-7.26,2.42-14.94-3.08-21.49-.25-.3,.65-1.58,1.25-2.91Zm33.25-.1c-6.8,0-13.62,.32-20.4-.1-5.24-.32-6.86,4-6.49,6.65,1.31,9.53,.18,18.91-.27,28.33-.24,4.97,3.2,3.5,5.72,3.75,2.6,.25,4.74,.32,4.63-3.57-.15-5.66,.79-11.37,.42-17.01-.29-4.48,1.32-9.45-2.4-13.41-.77-.82-.34-1.82,.63-2.33,2.4-1.25,5.01-1.83,7.67-1.4,1.6,.26,.97,1.56,.75,2.7-1.99,9.89-1.8,19.92-2.08,29.94-.13,4.61,1.71,5.68,5.82,5.94,5.12,.33,3.43-3.21,3.78-5.66,.24-1.68,.45-3.38,.54-5.08,.42-7.72,1.88-15.62-.01-23.11-.83-3.28-.5-4.18,1.7-5.66Zm14.21-14.87c-3.31-3.46,1.95-6.69-.26-10.36-2.27-3.76,.21-6.35,4.86-5.53,5.53,.98,10.91-.1,16.34-.56,1.71-.14,3.9-.05,3.44-3.14-.39-2.64-1.99-2.79-4.02-2.8-22.11-.11-44.2-1.98-66.33-.89-1.13,.06-2.33-.07-3.37,.27-1.73,.58-2.08,2.1-.33,2.72,5.85,2.09,11.94,5.63,17.73,5.26,8.15-.51,16.13,1.19,24.19,.34,1.5-.16,3.5-.7,4.61,2.17h-22.18c-.07,.38-.13,.75-.2,1.13,8.51,3.8,17.01,7.59,25.52,11.39Zm-42.89-105c.33,.48,.88,.91,.93,1.39,.3,3.18,1.28,4.95,5.16,5.05,4.29,.11,3.95-2.21,3.97-4.96,0-1.27,1.04-1.92,2.15-2.35,1.08-.42,1.92,.04,2.4,.91,.61,1.1,.17,2.16-.52,3.16-.62,.89-2.08,1.07-2.06,2.76,2.11,1.12,5.47,2.13,6.4,.35,.88-1.68-.47-4.56,.97-7.06,.51-.88-2.24-1.64-3.54-2.14-19.96-7.69-40.09-5.2-60.23-.82-.59,.13-2.37,.02-1.29,2.05,1.59,3.01,.77,6.19-.69,9.14-1.47,2.98,.14,3.15,2.5,2.96,3.01-.24,4.35-1.7,4.25-4.75-.07-2.24,0-4.54,.39-6.74,.22-1.25,1.25-2.51,2.82-2.25,1.77,.29,1.64,1.86,1.56,3.16-.12,1.87-.31,3.71-1.03,5.53-.43,1.08-1.23,3.15,1.33,3.22,1.95,.06,3.32-.8,2.99-3.06-.22-1.47-.96-2.95-.84-4.37,.17-2.03,.56-4.19,2.45-5.51,.32-.22,1.25-.08,1.54,.22,1.62,1.74,.05,3.56-.04,5.35-.07,1.48-.56,2.94-.69,4.43-.15,1.7,.71,2.15,2.43,2.12,4.53-.1,5.52-1.46,3.08-5.26-1.32-2.05-1.39-3.79-.33-5.77,.46-.87,1.33-1.76,2.2-1.44,2.32,.86,2.28,3.23,2.76,5.2,.22,.91,.19,1.88,.25,2.82,.12,1.97,.18,3.79,3.08,3.6,2.45-.16,3.83-.86,3.99-3.59,.1-1.83-.23-4.04,2.39-6.02,.75,4.49-1.51,10.54,6.54,9.04,5.73-1.07-.48-5.04,2.74-6.41Zm-61.14,118.76c.61,1.12,2.6,1.83,1.93,2.28-4.91,3.31-1.37,8.03-2.17,11.97-1.66,8.08,.26,16.24,.32,24.37,.01,1.4-.18,2.95,1.98,3.51,6.75,1.75,9.46-.67,8.48-7.57-.32-2.22-.21-4.53-.09-6.79,.32-6.05,.42-12.15,1.26-18.13,.55-3.93-4.71-4.85-3.64-8.64-2.6-.32-5.2-.64-8.06-.99Zm-76.85,9.79c-1.79,.91-3.2,2.13-4.72,2.29-4.65,.49-5.34,3.27-4.76,7.11,1.47,9.68,1.65,19.49,3.06,29.21,.99,6.81,5.38,3.19,8.06,3.33,4.22,.22,1.92-2.84,1.52-4.78-.53-2.58-1.18-5.14-1.55-7.73-1.38-9.66,.42-19.48-1.61-29.42Zm102.43,12.95c-1.24-5.33,2.42-12.59-2.99-18.71-.79-.89,.11-2.81-2.49-2.91-3.08-.13-3.02,2.33-3.17,3.63-1.24,10.83-2.93,21.66-2.11,32.63,.1,1.4-.29,3,1.82,3.6,5.57,1.6,9.07-1.02,8.95-6.8-.07-3.39-.01-6.79-.01-11.43Zm149.67-8.7c-2.97,11.79-1.38,23.17-1.26,34.45,.05,4.65,4.43,1.8,6.76,2.43,2.44,.66,3-.66,2.85-3.19-.38-6.6-.36-13.22-.38-19.84-.02-5.75,1.51-12.26-7.22-13.21-.15-.02-.29-.24-.75-.64Zm-54.81-40.07c-2.45,0-4.91-.11-7.35,.04-1.67,.1-3.95,.09-4.59,1.68-1.56,3.87-.71,8.03,.28,11.86,.63,2.44,3.61,1.32,5.5,1.58,3.16,.45,6.44,.06,9.59,.58,5.97,.98,7.27-1.21,6.48-6.99-1.21-8.9-.79-8.96-9.9-8.76Zm-196.58,25.72c.33,1.21,.67,1.9,.69,2.61,.48,15.48,3.04,30.73,5.14,46.02,.18,1.34-.47,3.57,2.03,3.05,2-.42,.89-2.1,.61-3.27-1.6-6.68-1.81-13.48-1.76-20.31,.06-8.14,.09-16.29,.06-24.43,0-1.41,.62-3.73-1.27-3.88-5.03-.4-10.14-1.6-15.17,.21-.92,.33-1.8,.56-1.62,1.82,.15,1.05,.74,1.98,1.75,1.87,3.34-.38,7.28,.87,9.54-3.68Zm187.63,49.72c-39.76-3.43-79.5,.48-119.28,.35,39.77,3.62,79.48-2.2,119.28-.35Zm-2.66-4.15c-36.85-2.29-73.71-1.37-110.57-.38,36.85,3.88,73.72-2.23,110.57,.38ZM133.81,110.32c23.5-9.62,47.76-11.15,72.42-9.82-22.73-3.61-45.3-3.44-67.62,2.93-3.57,1.02-6.41,2.29-4.8,6.89Zm14.22-32.5c20.25-4.67,40.46-5.17,60.84-1.25-2.19-3-6.11-1.25-6.95-2.12-5.21-5.44-12.35-3.72-18.2-4.62-12.51-1.92-24.48,2.55-35.69,7.99Zm95.49,118.99c.91,1.15,1.7,3.08,3.75,2.05,3.98-2.01,8.16-1.35,12.22-1.03,17.12,1.36,34.1,4.24,51.29,4.96,1.63,.07,4.56,2.28,4.64-1.66,.06-3.53-2.86-2.27-4.64-2.22-11.18,.33-22.23-1.03-33.33-1.91-11.17-.88-22.46-.19-33.92-.19Zm39.22,54.71c1.16-.58,1.75-.71,1.77-.9,.77-9.2,1.74-18.4,1.39-27.66-.08-2.05-1.09-2.5-2.9-2.4-1.88,.1-3.79,.1-5.66-.08-3.11-.3-4.34,.83-4.38,4.1-.07,6.39-.44,12.78-.95,19.15-.5,6.32,1,7.64,9.67,5.83-5.91-.09-6.29-3.02-6.26-6.18,.04-5.47-.64-10.99,.58-16.4,.46-2.02-.15-5.3,3.04-5.26,2.88,.04,2.85,3.05,3.31,5.2,1.69,7.96,.71,16,.39,24.59ZM182.33,41.47c5.02,9,8.24,17.07,10.08,25.73,.78,3.7,4.93,3.28,7.45,2.9,2.7-.41,.98-3.24,.46-4.7-3.28-9.3-8.11-17.53-17.99-23.93Zm-78.93,116.8c1.16-6.13,2.96-11.44,7.53-15.68,3.91-3.62,7.41-3.32,10.09,1.25,2.11,3.58,2.16,7.53,2.03,11.55-.05,1.59-1.35,3.87,1.99,4.7,0-6.34,.01-12.5,0-18.67,0-1.74-.68-2.84-2.68-2.84-5.29,0-10.58-.09-15.86-.14-1.97-.02-3.17,.58-3.13,2.91,.1,5.63,.03,11.27,.03,16.91ZM178.85,41.34c.8,8.66,1.44,15.94,2.16,23.22,.46,4.69,4.54,2.61,6.96,3.41,1.83,.6,1.95-1.11,1.6-2.54-1.98-8.21-4.57-16.14-10.72-24.09Zm-8.13,26.36c2.33-.19,4.21-.43,6.09-.48,1.76-.05,2.16-.81,1.99-2.49-.7-7.21-.99-14.47-2.78-22.87-3.69,8.95-5.86,16.81-5.3,25.84Zm.78-23.09c-6.07,5.65-9,12.88-10.77,20.64-.3,1.29-1.46,3.89,1.25,4.02,2.2,.11,5.65,.36,5.86-2.89,.46-7.38,2.26-14.46,3.66-21.77Zm-2.77-.76c-1.24-.71-1.9,.28-2.6,.67-9.2,5.21-11.63,14.23-13.15,23.7-.2,1.22-1.5,3.25,1.03,3.43,1.55,.11,3.79-.22,3.88-2.42,.4-9.84,5.61-17.6,10.84-25.39ZM53.53,185.21c.06,0,.13,0,.19,0,0-.94,.02-1.87,0-2.81-.06-2.91,.03-5.49-4.38-5.39-4.68,.1-3.8,2.95-3.72,5.69,.07,2.25,.32,4.5,.22,6.74-.12,2.94,1.81,2.78,3.72,2.7,1.74-.08,4.02,.63,3.97-2.43-.02-1.5,0-3,0-4.49Zm69.5-57.86c-1.56-4.43-3.75-6.79-7.65-6.96-2.93-.13-5.02,1.28-6.33,3.94-1.18,2.4-1.29,4.05,2.13,3.81,3.76-.26,7.51-.5,11.86-.8Zm129.11,.89c-.61-3.66-2.16-6.06-5.67-6.51-2.82-.37-5.22,.53-6.84,3.03-.76,1.17-1.16,2.51-.59,3.75,.59,1.28,1.98,.74,3.01,.66,3.33-.24,6.65-.6,10.08-.93Zm-72.91-33.27c11.91,.64,24,.62,35.74,3.91,.79,.22,1.88,.86,2.29-.58,.35-1.21-.43-1.69-1.4-1.98-1.08-.32-2.15-.67-3.25-.9-11.04-2.36-22.15-.62-33.38-.45Zm-60.83,59.27c.49-2.79-.12-4.32-3.65-4.47-4.05-.17-4.75,1.84-4.82,5.06-.06,2.79,.49,4.45,3.93,4.65,4.19,.24,4.72-1.96,4.54-5.24Zm26.31-78.35c8.58-5.05,5.33-13.49,8.53-19.18-4.48,5.01-7.83,10.52-8.53,19.18Zm49.14-27.5c4.59,7.94,10.74,13.64,10.27,22.35-.09,1.58,1.59,2.08,2.96,1.84,1.36-.24,.97-1.39,.58-2.22-3.51-7.5-4.24-16.63-13.81-21.97Zm-12.44-29.11c-.87-3.33-2.47-5.07-5.38-4.67-2.85,.39-4.73,2.09-5.25,5.69,3.52-.34,6.8-.65,10.62-1.02Zm127.78,186.54c-1.59,.18-3.82-.72-3.74,2.03,.07,2.31,1.91,2.4,3.67,2.31,1.76-.1,4.26,.55,4.28-2.18,.02-2.9-2.69-1.71-4.21-2.15Zm-64.12-69.53c1.99,.54,3.5-.21,3.61-2.66,.15-3.44-2.56-2.09-4-1.94-1.47,.15-4.25-1.49-4.26,1.78-.01,2.8,2.1,3.16,4.66,2.82Zm-130.42-6.73c-.52,.89-3.02-1.24-2.83,1.65,.15,2.29,1.5,3.15,3.76,3.13,1.74-.01,2.73-.25,2.78-2.38,.07-2.72-1.66-2.38-3.71-2.4Zm168.16,86.16q-4.12-5.05-8.44,0h8.44Zm-206.68,42.03c0-.18,0-.35,0-.53h-18.95c0,.18,0,.35,0,.53h18.95Z"/>
    </clipPath>
    <radialGradient id="radial-gradient" cx="-29.65" cy="-138.45" fx="-29.65" fy="-138.45" r="583.64" gradientTransform="translate(199.32 35.58) scale(.86 1.03)" gradientUnits="userSpaceOnUse">
      <stop offset="0" stop-color="#fff1a4"/>
      <stop offset=".35" stop-color="#f8dd7b"/>
      <stop offset="1" stop-color="#b37e10"/>
    </radialGradient>
  </defs>
  <g id="_Слой_2-2" data-name="Слой 2">
    <g class="cls-2">
      <rect class="cls-1" x="26.52" y="-118.92" width="299.46" height="510.1" transform="translate(40.12 312.38) rotate(-90)"/>
    </g>
  </g>
</svg>