<?xml version="1.0" encoding="UTF-8"?>
<svg id="_Слой_2" data-name="Слой 2" xmlns="http://www.w3.org/2000/svg" xmlns:xlink="http://www.w3.org/1999/xlink" viewBox="0 0 671.89 225.44">
  <defs>
    <style>
      .cls-1 {
        fill: url(#radial-gradient-7);
      }

      .cls-2 {
        fill: url(#radial-gradient-10);
      }

      .cls-3 {
        clip-path: url(#clippath-16);
        fill: url(#radial-gradient-43);
      }

      .cls-4 {
        clip-path: url(#clippath-7);
        fill: url(#radial-gradient-52);
      }

      .cls-5 {
        clip-path: url(#clippath-26);
        fill: url(#radial-gradient-33);
      }

      .cls-6 {
        clip-path: url(#clippath-15);
        fill: url(#radial-gradient-44);
      }

      .cls-7 {
        fill: url(#radial-gradient-28);
      }

      .cls-8 {
        clip-path: url(#clippath-14);
        fill: url(#radial-gradient-45);
      }

      .cls-9 {
        fill: url(#radial-gradient-16);
      }

      .cls-10 {
        fill: url(#radial-gradient-20);
      }

      .cls-11 {
        fill: url(#radial-gradient-21);
      }

      .cls-12 {
        fill: url(#radial-gradient-8);
      }

      .cls-13 {
        clip-path: url(#clippath-8);
        fill: url(#radial-gradient-51);
      }

      .cls-14 {
        fill: url(#radial-gradient-5);
      }

      .cls-15 {
        fill: url(#radial-gradient-4);
      }

      .cls-16 {
        clip-path: url(#clippath-23);
        fill: url(#radial-gradient-36);
      }

      .cls-17 {
        clip-path: url(#clippath-18);
        fill: url(#radial-gradient-41);
      }

      .cls-18 {
        clip-path: url(#clippath-2);
        fill: url(#radial-gradient-57);
      }

      .cls-19 {
        clip-path: url(#clippath-1);
        fill: url(#radial-gradient-58);
      }

      .cls-20 {
        fill: url(#radial-gradient-25);
      }

      .cls-21 {
        fill: url(#radial-gradient-26);
      }

      .cls-22 {
        fill: url(#radial-gradient-22);
      }

      .cls-23 {
        fill: url(#radial-gradient-6);
      }

      .cls-24 {
        fill: url(#radial-gradient-19);
      }

      .cls-25 {
        fill: url(#radial-gradient-60);
      }

      .cls-26 {
        fill: url(#radial-gradient-12);
      }

      .cls-27 {
        clip-path: url(#clippath-19);
        fill: url(#radial-gradient-40);
      }

      .cls-28 {
        fill: url(#radial-gradient);
      }

      .cls-29 {
        fill: url(#radial-gradient-27);
      }

      .cls-30 {
        fill: url(#radial-gradient-13);
      }

      .cls-31 {
        clip-path: url(#clippath-10);
        fill: url(#radial-gradient-49);
      }

      .cls-32 {
        clip-path: url(#clippath-6);
        fill: url(#radial-gradient-53);
      }

      .cls-33 {
        clip-path: url(#clippath-17);
        fill: url(#radial-gradient-42);
      }

      .cls-34 {
        clip-path: url(#clippath-22);
        fill: url(#radial-gradient-37);
      }

      .cls-35 {
        clip-path: url(#clippath-24);
        fill: url(#radial-gradient-35);
      }

      .cls-36 {
        fill: url(#radial-gradient-30);
      }

      .cls-37 {
        clip-path: url(#clippath-28);
        fill: url(#radial-gradient-31);
      }

      .cls-38 {
        fill: url(#radial-gradient-24);
      }

      .cls-39 {
        fill: url(#radial-gradient-15);
      }

      .cls-40 {
        clip-path: url(#clippath-20);
        fill: url(#radial-gradient-39);
      }

      .cls-41 {
        fill: url(#radial-gradient-2);
      }

      .cls-42 {
        clip-path: url(#clippath-21);
        fill: url(#radial-gradient-38);
      }

      .cls-43 {
        clip-path: url(#clippath-4);
        fill: url(#radial-gradient-55);
      }

      .cls-44 {
        clip-path: url(#clippath-27);
        fill: url(#radial-gradient-32);
      }

      .cls-45 {
        fill: url(#radial-gradient-3);
      }

      .cls-46 {
        clip-path: url(#clippath-13);
        fill: url(#radial-gradient-46);
      }

      .cls-47 {
        clip-path: url(#clippath-25);
        fill: url(#radial-gradient-34);
      }

      .cls-48 {
        clip-path: url(#clippath-9);
        fill: url(#radial-gradient-50);
      }

      .cls-49 {
        fill: url(#radial-gradient-17);
      }

      .cls-50 {
        clip-path: url(#clippath-3);
        fill: url(#radial-gradient-56);
      }

      .cls-51 {
        clip-path: url(#clippath-29);
      }

      .cls-52 {
        fill: url(#radial-gradient-14);
      }

      .cls-53 {
        fill: url(#radial-gradient-29);
      }

      .cls-54 {
        clip-path: url(#clippath-5);
        fill: url(#radial-gradient-54);
      }

      .cls-55 {
        clip-path: url(#clippath-11);
        fill: url(#radial-gradient-48);
      }

      .cls-56 {
        fill: url(#radial-gradient-23);
      }

      .cls-57 {
        fill: url(#radial-gradient-11);
      }

      .cls-58 {
        fill: url(#radial-gradient-18);
      }

      .cls-59 {
        fill: url(#radial-gradient-9);
      }

      .cls-60 {
        clip-path: url(#clippath);
        fill: url(#radial-gradient-59);
      }

      .cls-61 {
        clip-path: url(#clippath-12);
        fill: url(#radial-gradient-47);
      }
    </style>
    <radialGradient id="radial-gradient" cx="208.65" cy="139.32" fx="208.65" fy="139.32" r="157.08" gradientUnits="userSpaceOnUse">
      <stop offset="0" stop-color="#fff1a4"/>
      <stop offset=".35" stop-color="#f8dd7b"/>
      <stop offset="1" stop-color="#b37e10"/>
    </radialGradient>
    <radialGradient id="radial-gradient-2" cx="562.58" cy="130.7" fx="562.58" fy="130.7" r="97.95" xlink:href="#radial-gradient"/>
    <radialGradient id="radial-gradient-3" cx="448.3" cy="156.17" fx="448.3" fy="156.17" r="53.3" xlink:href="#radial-gradient"/>
    <radialGradient id="radial-gradient-4" cx="267.5" cy="220.34" fx="267.5" fy="220.34" r="77.04" xlink:href="#radial-gradient"/>
    <radialGradient id="radial-gradient-5" cx="492.27" cy="222.33" fx="492.27" fy="222.33" r="66.42" xlink:href="#radial-gradient"/>
    <radialGradient id="radial-gradient-6" cx="252.93" cy="32.64" fx="252.93" fy="32.64" r="46.82" xlink:href="#radial-gradient"/>
    <radialGradient id="radial-gradient-7" cx="232" cy="88.06" fx="232" fy="88.06" r="58.4" xlink:href="#radial-gradient"/>
    <radialGradient id="radial-gradient-8" cx="599.63" cy="85.72" fx="599.63" fy="85.72" r="33.94" xlink:href="#radial-gradient"/>
    <radialGradient id="radial-gradient-9" cx="233.12" cy="207.18" fx="233.12" fy="207.18" r="24.11" xlink:href="#radial-gradient"/>
    <radialGradient id="radial-gradient-10" cx="62.19" cy="101.07" fx="62.19" fy="101.07" r="23.59" xlink:href="#radial-gradient"/>
    <radialGradient id="radial-gradient-11" cx="157.36" cy="133.65" fx="157.36" fy="133.65" r="25.77" xlink:href="#radial-gradient"/>
    <radialGradient id="radial-gradient-12" cx="129.34" cy="206.33" fx="129.34" fy="206.33" r="18.35" xlink:href="#radial-gradient"/>
    <radialGradient id="radial-gradient-13" cx="263.84" cy="130.8" fx="263.84" fy="130.8" r="18.53" xlink:href="#radial-gradient"/>
    <radialGradient id="radial-gradient-14" cx="430.92" cy="204.39" fx="430.92" fy="204.39" r="19.04" xlink:href="#radial-gradient"/>
    <radialGradient id="radial-gradient-15" cx="631.77" cy="206.76" fx="631.77" fy="206.76" r="17.71" xlink:href="#radial-gradient"/>
    <radialGradient id="radial-gradient-16" cx="481.19" cy="204.62" fx="481.19" fy="204.62" r="13.49" xlink:href="#radial-gradient"/>
    <radialGradient id="radial-gradient-17" cx="402.17" cy="184.19" fx="402.17" fy="184.19" r="9.69" xlink:href="#radial-gradient"/>
    <radialGradient id="radial-gradient-18" cx="403.34" cy="197.63" fx="403.34" fy="197.63" r="12.27" xlink:href="#radial-gradient"/>
    <radialGradient id="radial-gradient-19" cx="119.8" cy="164.64" fx="119.8" fy="164.64" r="5.69" xlink:href="#radial-gradient"/>
    <radialGradient id="radial-gradient-20" cx="429.55" cy="210.39" fx="429.55" fy="210.39" r="9.04" xlink:href="#radial-gradient"/>
    <radialGradient id="radial-gradient-21" cx="443.31" cy="198.88" fx="443.31" fy="198.88" r="9.23" xlink:href="#radial-gradient"/>
    <radialGradient id="radial-gradient-22" cx="472.48" cy="182.29" fx="472.48" fy="182.29" r="6.14" xlink:href="#radial-gradient"/>
    <radialGradient id="radial-gradient-23" cx="42.07" cy="166.91" fx="42.07" fy="166.91" r="4.97" xlink:href="#radial-gradient"/>
    <radialGradient id="radial-gradient-24" cx="230.46" cy="163.47" fx="230.46" fy="163.47" r="4.98" xlink:href="#radial-gradient"/>
    <radialGradient id="radial-gradient-25" cx="101.33" cy="128.78" fx="101.33" fy="128.78" r="3.86" xlink:href="#radial-gradient"/>
    <radialGradient id="radial-gradient-26" cx="290.78" cy="152.75" fx="290.78" fy="152.75" r="3.91" xlink:href="#radial-gradient"/>
    <radialGradient id="radial-gradient-27" cx="338.66" cy="71.29" fx="338.66" fy="71.29" r="3.78" xlink:href="#radial-gradient"/>
    <radialGradient id="radial-gradient-28" cx="539.73" cy="190.45" fx="539.73" fy="190.45" r="5.32" xlink:href="#radial-gradient"/>
    <radialGradient id="radial-gradient-29" cx="523.39" cy="191.31" fx="523.39" fy="191.31" r="5.74" xlink:href="#radial-gradient"/>
    <radialGradient id="radial-gradient-30" cx="550.29" cy="190.49" fx="550.29" fy="190.49" r="5.58" xlink:href="#radial-gradient"/>
    <radialGradient id="radial-gradient-31" cx="550.29" cy="190.49" fx="550.29" fy="190.49" r="5.58" xlink:href="#radial-gradient"/>
    <radialGradient id="radial-gradient-32" cx="523.39" cy="191.31" fx="523.39" fy="191.31" r="5.74" xlink:href="#radial-gradient"/>
    <radialGradient id="radial-gradient-33" cx="539.73" cy="190.45" fx="539.73" fy="190.45" r="5.32" xlink:href="#radial-gradient"/>
    <radialGradient id="radial-gradient-34" cx="338.66" cy="71.29" fx="338.66" fy="71.29" r="3.78" xlink:href="#radial-gradient"/>
    <radialGradient id="radial-gradient-35" cx="290.78" cy="152.75" fx="290.78" fy="152.75" r="3.91" xlink:href="#radial-gradient"/>
    <radialGradient id="radial-gradient-36" cx="101.33" cy="128.78" fx="101.33" fy="128.78" r="3.86" xlink:href="#radial-gradient"/>
    <radialGradient id="radial-gradient-37" cx="230.46" cy="163.47" fx="230.46" fy="163.47" r="4.98" xlink:href="#radial-gradient"/>
    <radialGradient id="radial-gradient-38" cx="42.07" cy="166.91" fx="42.07" fy="166.91" r="4.97" xlink:href="#radial-gradient"/>
    <radialGradient id="radial-gradient-39" cx="472.48" cy="182.29" fx="472.48" fy="182.29" r="6.14" xlink:href="#radial-gradient"/>
    <radialGradient id="radial-gradient-40" cx="443.31" cy="198.88" fx="443.31" fy="198.88" r="9.23" xlink:href="#radial-gradient"/>
    <radialGradient id="radial-gradient-41" cx="429.55" cy="210.39" fx="429.55" fy="210.39" r="9.04" xlink:href="#radial-gradient"/>
    <radialGradient id="radial-gradient-42" cx="119.8" cy="164.64" fx="119.8" fy="164.64" r="5.69" xlink:href="#radial-gradient"/>
    <radialGradient id="radial-gradient-43" cx="403.34" cy="197.63" fx="403.34" fy="197.63" r="12.27" xlink:href="#radial-gradient"/>
    <radialGradient id="radial-gradient-44" cx="402.17" cy="184.19" fx="402.17" fy="184.19" r="9.69" xlink:href="#radial-gradient"/>
    <radialGradient id="radial-gradient-45" cx="481.19" cy="204.62" fx="481.19" fy="204.62" r="13.49" xlink:href="#radial-gradient"/>
    <radialGradient id="radial-gradient-46" cx="631.77" cy="206.76" fx="631.77" fy="206.76" r="17.71" xlink:href="#radial-gradient"/>
    <radialGradient id="radial-gradient-47" cx="430.92" cy="204.39" fx="430.92" fy="204.39" r="19.04" xlink:href="#radial-gradient"/>
    <radialGradient id="radial-gradient-48" cx="263.84" cy="130.8" fx="263.84" fy="130.8" r="18.53" xlink:href="#radial-gradient"/>
    <radialGradient id="radial-gradient-49" cx="129.34" cy="206.33" fx="129.34" fy="206.33" r="18.35" xlink:href="#radial-gradient"/>
    <radialGradient id="radial-gradient-50" cx="157.36" cy="133.65" fx="157.36" fy="133.65" r="25.77" xlink:href="#radial-gradient"/>
    <radialGradient id="radial-gradient-51" cx="62.19" cy="101.07" fx="62.19" fy="101.07" r="23.59" xlink:href="#radial-gradient"/>
    <radialGradient id="radial-gradient-52" cx="233.12" cy="207.18" fx="233.12" fy="207.18" r="24.11" xlink:href="#radial-gradient"/>
    <radialGradient id="radial-gradient-53" cx="599.63" cy="85.72" fx="599.63" fy="85.72" r="33.94" xlink:href="#radial-gradient"/>
    <radialGradient id="radial-gradient-54" cx="232" cy="88.06" fx="232" fy="88.06" r="58.4" xlink:href="#radial-gradient"/>
    <radialGradient id="radial-gradient-55" cx="252.93" cy="32.64" fx="252.93" fy="32.64" r="46.82" xlink:href="#radial-gradient"/>
    <radialGradient id="radial-gradient-56" cx="492.27" cy="222.33" fx="492.27" fy="222.33" r="66.42" xlink:href="#radial-gradient"/>
    <radialGradient id="radial-gradient-57" cx="267.5" cy="220.34" fx="267.5" fy="220.34" r="77.04" xlink:href="#radial-gradient"/>
    <radialGradient id="radial-gradient-58" cx="448.3" cy="156.17" fx="448.3" fy="156.17" r="53.3" xlink:href="#radial-gradient"/>
    <radialGradient id="radial-gradient-59" cx="562.58" cy="130.7" fx="562.58" fy="130.7" r="97.95" xlink:href="#radial-gradient"/>
    <clipPath id="clippath">
      <path class="cls-28" d="M81.91,201.84c-.13,3.04-2.28,2.38-4.1,2.18-18.55-2.06-37.02-.82-55.47,1.28-.94,.11-1.89,.15-2.83,.15-1.09,0-2.49,.28-2.71-1.25-.19-1.3,.74-2.18,2-2.22,9.09-.32,15.23-6.61,22.36-10.92,2.8-1.69,5.93,.53,8.82-.95-12.1-1.58-24.38,.1-36.54-1.44,1.83-2.62,4.35-1.74,6.57-1.9,2.26-.17,4.54-.1,6.81-.16q15.49-.39,15.17-16.22l-.12,.17c3.98,1.89,1.34,5.21,1.4,7.73,.19,7.89-.04,7.9,7.85,7.94q11.41,.07,11.56-11.49c0-.67,.19-1.34,.44-2.96,2.47,3.84,1.32,7.2,1.45,10.37,.09,2.07-.4,4.21,2.94,4.18,2.78-.03,4.23-.75,4.12-3.84-.21-6.01,.98-11.9,1.74-17.83,3.6,3.03,2.87,2.76,1.13,7.37-1.48,3.92-1.09,8.56-1.42,12.9-.07,.86,.89,1.27,1.62,1.17,5.61-.79,11.25,1.94,16.85-.22,.88-.34,2.42-1.09,2.15-1.34-4.49-4.06,.51-5.45,1.95-8,1.55-2.75-.19-6.06,1.42-9.3,1.25-2.52,1.83-6.49-1.95-9.06-1.57-1.07-1.9-3.55-1.77-5.82,2.75,.16,1.43,3.4,3.99,3.98,.47-3.7,2.33-7.31-1.42-10.55-.72-.62-1.8-2.56-.22-2.46,4.18,.29,2.13-2.52,2.33-4,.48-3.5-3.28-1.43-4.91-3.93,5.51-2.14,10.66,.43,15.8-.8-.13,3.58-4.72,1.27-3.91,4.41,.26,1-2.06,3.27,1.66,3.31,2.49,.03,1.56,2.77,.3,3.8-3.11,2.52-2.05,5.7-2.22,8.98,1.75-.63,1.88-4.03,3.87-2.48,1.77,1.38,.72,3.81-.76,4.98-4.93,3.91-3.37,8.41-1.62,13.03,.26,.69,.71,1.48,.59,2.12-.82,4.26,.71,6.7,5.26,6.65-.28,2.91-3.67,1.39-4.03,3.63,.17,.2,.38,.63,.59,.64,3.4,.05,7.46,1.2,10.05-.26,3.11-1.75,0-6.1,.87-9.24,.33-1.2-.24-2.67,2.16-4.25,0,3.74,.08,6.89-.02,10.03-.1,2.87,1.01,4.29,4.01,3.9,.37-.05,.76,0,1.14-.02,5.11-.19,11.41,1.39,15-1.05,4.03-2.73,.9-9.44,1.38-14.39,.49-5.02,.76-5.58,7.73-7.27-8.7,4.34-6.17,11.74-5.75,18.63,.16,2.62,1.22,3.55,3.85,3.53,4.54-.03,9.09,.29,13.63,.49,6.17,.26,10.56-3.93,10.31-9.95-.12-2.95-.4-5.9-.07-8.9,1.53,4.73,2.28,9.56,2.09,14.51-.14,3.76,.78,5.34,5.18,4.47,7.96-1.58,16.07-2.42,24.12-3.58,1.27-.18,2.83,.19,3.58-1.15,.42-.76,.65-2.47,.34-2.65-5.39-3.07,3.41-7.69-1.22-10.75-.59-.39-1.05-.97-1.57-1.47,3.08-2.39,3.68-5.1,1.07-8.23,5.24-2.55,2.05-7.35,2.55-10.96,.85-6.08,.25-12.35,2.37-18.46,0,3.35,.09,6.7-.02,10.05-.12,3.59-1.67,7.79-.29,10.6,1.46,2.99-2.6,8.06,4.22,8.8-2.04,2.22-7.84,3.36-1.85,6.59,.97,.52,.21,2.09-.87,2.79-1.4,.92-1.49,2.96-.91,3.51,2.8,2.65,2.04,5.31,.84,8.27-.53,1.3,.25,2.1,1.76,1.99,1.13-.09,2.28-.04,3.41-.12,3.58-.27,7.83,.53,10.54-1.15,3.13-1.94-.4-6.25,.48-9.48,.14-.52,.39-1.01,.67-1.73,2.44,1.1,1.81,3.32,1.68,4.88-.48,5.61,1.99,6.97,7.29,6.61,7.53-.5,15.12-.13,23.32-.13-2.21-7.76-4.68-14.82-8.03-21.58-.72-1.46-1.78-2.31-3.48-2.53-1.48-.2-2.47-1.32-2.13-2.81,.43-1.9,2.08-1.85,3.67-1.72,3.54,.28,5.22,2.87,6.65,5.55,3.14,5.86,4.99,12.24,7.11,18.51,1.44,4.28,8.25,6.79,11.24,3.44,3.56-3.98,7.94-4.1,12.35-4.49,3.13-.28,4.16-1.44,4.33-4.51,.26-4.82-.99-9.31-2.14-13.85,1.38-.14,2.76-.28,4.15-.42,1.21-.31,1.88-1.93,4.5-1.13-7.24,3.81-4.94,10.09-5.26,15.72-.15,2.67,1.04,3.33,3.37,2.9,.37-.07,.75-.1,1.13-.1,8.85-.04,14.22-2.65,17.61-12.59,6.14-17.97,15.96-34.56,24.22-51.73,3.58-7.44,8.06-13.88,12.82-20.39,3.84-5.25,1.59-10.85-6.22-14.73-2.07-1.03-3.46-2.44-5.08-3.8l.19,.18c0-1.63-3.04-2.73-1.31-4.38,1.85-1.76,2.92,.74,4.05,1.7,9.81,8.24,20.05,15.29,33.44,16.56,6.91,.66,13.69,2.59,21.8,4.19-3.08-3.41-5.14-6.04-9.16-5.75-3.7,.27-4.55-1.12-1.97-4.11-2.24-.7-3.11,1.86-4.93,1.18,4.3-5.94,4.2-5.81,9.71-1.66,5.88,4.43,11.35,9.37,17.55,13.41,3.55,2.31,1.88,7.62,5.5,10.27-2.9,1.59-3.07-1.49-4.68-1.6-.25,.14-.68,.23-.81,.47-11.82,23.28-18.08,48.38-23.9,73.6-2.18,9.48-5.3,18.8-5.08,28.76,.08,3.44-2.78,4.03-5.67,3.97-11.73-.23-23.46-.65-35.19-.6-6.73,.03-13.62-.97-20.11,1.96-2.18,.98-2.13-.8-2.09-2.06,.25-7.25-1.89-14.44-.05-21.79,.51-2.01,.98-2.41,2.64-2.54,5.57-.43,8.36-3.47,9.37-9,1.32-7.21,3.25-14.31,5.08-22.15-3.8,2.76-7.05,5.11-10.27,7.45,0,.92,.48,1.38,1.31,1.56,4.84,1.08,4.86,3.35,1.63,6.48-2.02,1.96-4,3.97-6.34,6.31-.32-3.62,2.42-4.82,4.14-6.46,2.47-2.36,3.47-4.03-.87-5.11-1.57-.39-2.84-1.22-2.24-3.23,3.21-2.62,7.17-4.25,9.88-7.53,1.7-2.06,.71-3.27-1.15-4.52-1.76-1.18-3.05-1.43-3.89,.86-1.4,3.85-4.52,7-4.67,11.37-2.97,4.53-7.62,9.23-6.89,14.36,.82,5.75-.07,11.12-.24,16.63-.24,7.35,.89,14.73-.52,22.06-.5,2.61,1.66,1.98,2.93,1.88,20.81-1.7,41.67-.41,62.5-.86,9.21-.2,18.46-.44,27.76,1.55-.61,1.97-1.8,1.18-2.75,1.07-6.51-.76-12.67-.01-19.23,1.35-9.31,1.93-19.22,.6-28.86-.38-24.65-2.51-49.2,.35-73.77,1.75-7.2,.41-14.36,.94-21.53-.29-1.3-.22-2.66-.43-3.96-.32-19.85,1.73-39.59-1.51-59.46-1.21-20.63,.32-41.31-.23-61.89,1.35-22.99,1.76-45.63-2.26-68.46-2.78-2.27-.05-4.54-.18-6.81-.1-8.88,.34-17.57,.03-26.49-1.37-10.77-1.68-21.85,.49-32.7,2.32-1.21,.2-2.45,1.01-4-.46,5.33-2.19,10.77-2.33,16.1-2.81,8.82-.8,17.67-2.22,26.49,.33,1.96,.57,4.17,.77,6.2,.56,15.93-1.59,31.82,.37,47.65,1.21,13.58,.72,27.06,2.39,40.73,1.41,12.65-.91,25.34-1.79,38.01-1.78,13.98,0,27.95,1.18,41.96-.01,3.88-.33,7.96,.35,11.81,1.22,6.05,1.38,12.07,1.14,18.06,.31,6.94-.96,13.77-2.24,20.71,.22,2.07,.73,4.51,.74,6.76,.61,10.39-.59,20.76-1.4,31.15-2.02,2.75-.16,3.64-1.08,3.85-4.05,.54-7.47,1.38-14.89,.77-22.38-1.64-.1-1.16,2.24-2.79,1.74-1.54-2.09,1.53-4.23-.06-6.45-2.95,1-5.67,2.13-4.63,6.59q-2.86-3.32-4.79,.32c-2.05-.99,1.57-3.89-1.45-4.45-2.02-.37-3.37,.31-3.02,2.72l-6.21-.52c-2.89-.83-2.58,1.27-2.61,2.93-.1,6.25-.12,12.51-.25,18.76-.04,1.76,.51,3.69-.71,5.19-1.7,0-1.72-1.05-1.71-1.94,.04-5.49-3.34-7.9-8.15-8.23-20.35-1.4-40.69-3.15-61.15-2.22-11.35,.52-22.71,.67-33.68,4-2.1,.64-3.57-.16-5.37-.59-1.49-.36-3.74-1.71-4.43,1.47-.24,1.13-1.51,1.71-2.77,1.34-1.58-.46-1.74-1.78-1.69-3.19,.13-3.59,.06-7.19,.39-10.76,.27-2.97-.97-4.15-3.76-4.28-17.78-.85-35.54-.37-53.95,.41,2.54,3.56,4.36,6.26,7.71,1.67,2.13-2.92,4.09-.69,5.56,.86,3.34,3.52,6.72,3.95,10.4,.71,2.26-1.99,4.32-1.93,6.47,.19,.79,.78,2.12,2.01,2.75,1.78,6.31-2.26,12.21-.43,18.2,1.3,.89,.26,2.46-.96,2.89,.47,.46,1.52,.54,3.35,.12,4.87-.46,1.66-2.1,1.02-3.41,.78-22.77-4.15-45.46-4.76-67.93,1.87-1.09,.32-2.34,1.03-3.02-.24-.65-1.2,.61-2.11,1.36-2.81,3.85-3.61,3.88-3.57,3.14-9.61-7.8-.27-5.54,5.94-6.25,10-.45,2.56,.09,5.62-3.67,2.2,1.3-3.48,.97-7.06,.5-10.61-.14-1.09-.62-2.37-2.16-1.98-1.06,.27-2.24,.66-3,1.38-1.28,1.2,.44,1.78,.9,2.6,.76,1.35,2.94,1.83,2.48,4.11-2.33-.44-3.42-2.38-4.61-3.85-2.96-3.66-6.79-4.21-11.12-4.3-3.54-.07-3.5,1.91-3.32,4.33,.17,2.24-.98,5.19,3.29,4.88,5.99-.45,11.8,.41,17.17,3.32m291.15-45.32c-2.21,.22-3.92,.1-2.7-2.94,1.55-3.86,2.89-7.8,4.44-11.65,6.65-16.54,14.66-32.38,24.31-47.39,.66-1.03,2.68-2.39,.66-3.74-1.41-.94-2.85-.18-3.83,1.31-.83,1.26-1.87,2.38-2.75,3.61-14.74,20.61-23.39,43.97-30.48,68.01-.96,3.25-1.5,6.62-2.23,9.93-.21,.96-.59,1.97-1.7,1.89-1.07-.08-1.55-1.05-1.49-2.07,.07-1.12,.21-2.27,.52-3.34,7.85-27.39,17.42-54,34.45-77.31,.64-.88,2.27-1.73,.43-3.9-12.34,16.57-20.97,34.88-29.13,53.49,3.01-11.79,7.65-22.83,13.69-33.26,3.51-6.05,7.19-12,10.81-17.98,.62-1.01,1.35-2.05-.25-2.71-.87-.36-1.41-.05-2.1,1.01-10,15.4-17.42,32.09-24.91,48.76-4.52,10.07-8.01,20.42-9.25,31.44-.28,2.5-.23,5.47-3.82,4.97-3.33-.47-3.08-3.37-2.72-5.83,.93-6.37,2.09-12.73,4.9-18.58,9.23-19.26,17.62-38.98,30.35-56.36,.89-1.22,1.64-2.54,2.44-3.82,.42-.67,.7-1.38-.05-2-.91-.76-1.86-.44-2.53,.26-.77,.81-1.37,1.81-1.96,2.77-9.61,15.43-18.38,31.3-25.41,48.1-.48,1.14-.43,2.68-3.37,2.73,7.27-19.54,17.85-36.89,28.29-54.38-2.34-.91-2.91,.09-3.77,1.28-11.69,16.04-21.2,33.08-24.97,52.87-.3,1.55-.17,4.68-2.68,4.16-2.76-.57-1-3.1-.67-4.77,3.72-18.31,12.18-34.46,22.69-49.68,1.09-1.58,2.79-2.9,2.82-4.88-6.25-2.62-8.64,.5-10.6,5.64-3.62,9.52-7.4,18.97-10.76,28.6-6.04,17.3-8.84,35.12-10.11,53.29-.16,2.31,.58,3.01,2.73,3.09,6.62,.24,13.24,.57,19.86,.95,1.73,.1,2.87-.34,3.5-2.05,2.39-6.53,4.84-13.05,7.26-19.57,2.06-1.29,2.53-3.62,3.42-5.58,7.27-16.01,14.89-31.85,23.28-47.31,1.93-3.56,3.75-7.17,5.62-10.75-6.14,6.43-10.34,13.98-14.32,21.65-7.04,13.57-13.74,27.3-17.88,42.1m-132.66,27.61c1.15,3.89,1.75,7.24,6.34,7.35,2.24,.06,3.95,.09,5.04-2.41,.74-1.71,1.1-4.59,3.88-4.07,2.38,.45,2.46,3.12,3.09,5.02,.62,1.88,1.17,3.53,3.54,3.81,2.3,.26,2.83-1.56,3.71-2.9,3.7-5.67,3.78-5.74,6.78,.16,1.12,2.19,2.83,3.37,4.1,1.29,1.49-2.44-.41-5.47-.69-8.25-.25-2.47-2.6-1.83-4.1-1.76-10.38,.49-20.75,1.13-31.69,1.75m-205.37,14.99c7.42,.28,14.69-1.08,22.05-.66,1.73,.1,2.37-.9,2.27-2.48-.13-2.05,.83-4.39-.52-6.07-1.05-1.31-2.71-.39-4.07,.42-1.94,1.15-4.32,3.38-5.93,2.96-6.25-1.65-9.26,3.61-13.8,5.82m288.26,2.47c1.69-.91,4.17,.66,3.47-2.42-.27-1.16-.1-2.03,1.13-1.88,5.8,.72,5.99-4.13,7.4-7.55,.66-1.6,1.64-4.23-.57-5.07-2.72-1.03-5.84-1.23-8.8-1.32-1.06-.03-.28,1.47-.33,2.3-.33,5.02,.31,10.19-2.29,15.93m-229.02-10.77c.1,3.83-1.63,7.26,3.26,6.53,7.74-1.15,15.47-2.39,23.61-3.65-2.02-2.53-3.54-4.83-6.24-1.27-2.08,2.74-4.17,1.7-6.21-.18-1.37-1.26-2.87-3.12-4.47-.39-3.01,5.14-6.08,3.78-9.95-1.04m275.13,.35c1.8,2.52-1.84,4.2-.37,6.77,2.55-2.41,2.87-5.67,4-8.47,.56-1.38,2.75-3.49-.23-4.42-2.04-.64-4.5-.75-5.54,2.27-1.16,3.38-2.6,6.67-4.05,10.34,4.22-.45,2.98-5.21,6.19-6.48m-193.73-2.42c1.1,1.55,1.72,2.73,2.62,3.63,1.72,1.72,2.33,5.56,5.55,4.52,2.94-.95,.96-4.35,1.71-6.55,1.11-3.24-.82-3.43-3.22-2.96-2.01,.39-4.01,.82-6.66,1.37m165.48-55.97c-3.67,2.56-8,2.1-9.06,5.9-1.14,4.11,5.31,3.53,5.42,7.35,1.08-3.94,2.17-7.89,3.64-13.25m-135.04,52.68c2.18,2.3,.82,7.96,6.58,6.33,3.07-.87,3.74-4.88,3.22-5.56-2.48-3.25-6.31-.5-9.8-.77m-102.85-17.31c0-9.37,.02-18.75-.03-28.12,0-.98,.68-2.66-.9-2.75-2.09-.12-1.44,1.82-1.42,2.95,.13,9.34,2.05,18.56,2.35,27.92m252.01,28.95c2.12,.59,4.88,.53,4.65-.11-1.62-4.59,3.01-7.6,2.59-11.73-8.49-1.09-8.9-.88-8.15,4.45,.5-.28,1.08-.43,1.35-.8,.81-1.08,.98-3.43,2.98-2.3,1.33,.76,.3,2.31-.29,3.51-1.07,2.18-1.99,4.43-3.12,6.98m-121.31-12.41c-3.72-.64-6.98-.45-10.45,.33,1.11,2.63,.76,5.79,4.97,5.78,4.35-.02,4.27-3.18,5.48-6.1m107.06,12.02c2.11,1.16,3.88,1.51,4.89-.81,1.48-3.39,3.47-6.7,3.51-10.47,0-.94-1.76-.69-2.45,.58-1.95,3.58-3.96,7.13-5.95,10.69m-146.25-2.28c-2.41-2.75-2.9-6.2-6.36-7.36q-2.29,9.69,6.36,7.36m-2.55-8.62c1,3.67,2.45,7.35,5.35,7.66,2.33,.25,2.58-4.52,2.13-6.02-1.13-3.75-4.63-.56-7.48-1.64m77.3,3.6c-2.64,3.24-4.05,5.75,1.16,6.59,1.82,.3,2.83,1.67,4.15,2.68,.88,.67,2.02,1.09,3.11,.48,.27-.15,.34-.98,.23-1.43-.25-1.01-.26-2.56-1.84-2.24-4.51,.9-4.97-2.9-6.8-6.08m106.07-24.45c2.61-.21,6.01,1.48,6.61-2.94,.29-2.16-1.49-3.84-2.58-3.69-3.31,.47-2.8,4.09-4.03,6.63m-152.4,24.86c-.41-1.98-.96-4.25-2.81-4.63-2.54-.53-2.36,2.28-3.07,3.81-.44,.95-.88,2.47,.94,2.41,1.72-.05,3.76,.27,4.94-1.59m148.57-14.85c3.06-1.51,5.87-.87,8.06-2.73-5.72-4.62-6.23-4.49-8.06,2.73m-268.02,13.72c-2.64-.08-5.54-1.57-7,1.01-.69,1.23,1.12,3.09,2.4,3.41,3.4,.84,3.08-2.83,4.59-4.42M409.19,93.72c-3.6,3.05-5.59,6.92-6.16,11.51,2.54-3.59,5.79-6.82,6.16-11.51m-168.88,96.54c-.65-2.15-.59-5.36-3.03-5.38-2.18-.01-2.65,3.08-3.02,5.33,2.02,.65,3.85,.67,6.05,.05m-33.73,1c-.95-1.56-1.05-4.17-3.24-4.08-1.99,.08-1.82,2.38-2.06,3.96-.25,1.62,.3,2.62,2.09,1.98,1.14-.41,3.22,.56,3.2-1.85"/>
    </clipPath>
    <clipPath id="clippath-1">
      <path class="cls-60" d="M509.7,194.93c4.87-3.47-.32-7.06-.18-10.61,.06-1.51-3.11-3.1-4.97,.21-.79,1.41-1.79-.66-2.73-.76-4.08-.46-7.58-5.49-12.22-1.59-.16,.14-.69-.14-1.03-.25q-4.69-1.58-4.44,3.55c-2.18-2.33-2.48-3.04-1.56-4.75,.96-1.77,2.36-2.98,4.58-2.58,3.66,.66,7.55,.23,10.96,2.02,3.94,2.06,4.61,.6,3.79-3.12-.31-1.42-.45-3.02,.74-4.52,2.12,.94,1.26,2.96,1.21,4.3-.15,3.99,3.01,4.15,5.33,4.41,3.23,.36,1.67-2.6,2.03-4.15,1.84-7.9-2.43-14.71-4.33-21.84-7.22-27.09-17.82-52.97-29.54-78.4-1.08-2.34-2.85-4.36-4.29-6.53,7.22-2.09,12.66-6.69,18.25-10.87,5.46-4.08,10.71-8.44,16.57-11.93,1.35-.81,3.11-2.99,4.35-1.26,1.42,1.96-1.49,2.43-2.58,3.46-1.18,1.12-3.09,1.43-3.82,3.62,4.74-.55,9.25-1.15,13.77-1.57,1.11-.1,2.88-1.03,3.26,.9,.27,1.39,.68,3.6-.88,4.15-4.49,1.61,.72,2.29,0,3.79-2.49,.17-4.67-1.35-6.99-2.15-2.06-.71-3.7-2.18-6.13-.2-2.42,1.98-1.51,3.94-1.11,6.11,.09,.5,.01,1.03,.01,3.08-2.99-4.72-2.1-9.34-4.51-12.85-7.1,4.07-13.1,9.42-18.94,16.02,11.91,2.26,23.21,4.89,34.75,6.24,1.92,.22,3.61,.09,5.19-1.46,6.41-6.28,14.21-10.66,21.76-15.35,2.94-1.82,5.16-4.4,7.98-6.27,.92-.61,2.01-1.43,2.97-.2,.86,1.1,.29,2.04-.69,2.88-1.36,1.16-4.7,2.04-3.66,3.53,1.63,2.32,1.45,6.19,5.45,6.98,1.7,.33,3.79,1.24,5.65,4.36-3.12-1.41-5.03-2.36-7.02-3.13-1.08-.42-2.18-2.02-3.44-.39-1.2,1.56-.24,2.74,.81,3.97,1.15,1.35,2.11,2.86,3.99,5.44-4.3-1.5-4.81-4.82-7.16-6.32-2.19,1.64-.84,4.55-2.64,7.15-1.14-3.42,.14-6.26,.09-9.04-.03-1.62-.34-3.33-1.53-4.07-1.25-.78-2.24,.93-3.25,1.64-4.94,3.49-9.8,7.08-15.25,11.04,4.68,.79,4.22,4.88,5.84,7.6,4.06,6.83,7.66,13.98,12.24,20.44,12.64,17.84,21.82,37.6,32.39,56.6,.65,1.16,1.17,2.27,.97,3.73-.2,1.5,1.01,1.42,1.83,.92,7.29-4.4,7.7-4.44,15.53-.44,5.24,2.67,7.9,1.23,7.82-4.26-.06-4.08,.56-8.24-3.6-11.2-1.45-1.04-1.47-3.38-.49-5.58,2.7,1.86,5.4,2.57,8.26,.26,1.06-.86,3.78-1.43,3.33,.22-.5,1.87,1.24,5.56-1.36,5.53-5.25-.07-3.89,3.12-3.81,5.84,.28,9.8,.31,9.82,9.94,9.43,4.47-.18,8.94-.45,13.69-.7-.36,2.88-2.56,1.66-3.62,2.76,.8,.23,1.48,.57,2.17,.6,9.06,.45,18.1,1.28,27.19,.76,3.74-.21,7.36,1.7,11.21,1.09,.82-.13,1.54,.35,1.58,1.2,.02,.43-.45,1.14-.85,1.28-2.93,1.03-5.63,3.18-9.02,2.25-7.94-2.18-16.18-1.02-24.2-2.23-1.99-.3-3.72,.45-5.46,1.21-1.43,.63-3.23,1.35-4.37,.5-5.32-3.96-11.64-2.59-17.5-3.57-2-.33-4.74-2.24-5.72,1.93-.41,1.73-2.76,.4-3.27-.21-3.95-4.72-9.07-2.04-13.64-2.27-2.8-.14-1.76,3.91-4.26,4.67,27.73-1.59,55.03,1.94,82.42,2.84,1.37,.04,3.76-.34,3.7,1.49-.08,2.7-2.68,1.35-4.05,1.3-18.9-.72-37.78-1.59-56.68-2.38-3.02-.13-6.05-.02-9.12-.02-.45,2.56,1.85,2.79,2.74,4.03,3.01,4.22,5.84,6.11,9.07-.15,2.04-3.96,5.38-3.68,8.4-.64,1.19,1.2,2.27,2.54,3.26,3.92,2.43,3.4,4.16,4.2,6.63-.33,3.61-6.64,8.04-6.79,12.54-.55,2.74,3.8,4.84,4.76,8.18,.82,2.42-2.85,5.32-3.85,7.82,.14,1.44,2.29,3.28,1.05,5.05,.7,5.04-1.01,7.8,.14,10.8,4.54-2.48,1.01-3.68-1.47-5.53-1.92-2.66-.65-6.2-2.95-6.01,2.94,.07,2.11-2.25,1.43-3.64,1.5-18.72,.92-37.46,1.48-56.14,3.27-11.17,1.07-22.17,2.6-32.15,8.19-1.41,.79-3.77,1.35-3.31,3.36,.57,2.49,2.87,1.02,4.34,.87,6.21-.64,12.41-1.69,18.67-1.21,3.22,.24,7.37-1.76,9.19,3.12,.15,.41,1.76,.35,2.69,.38,12.86,.51,25.66,2.35,38.57,1.84,.45-.02,.92,.34,2.94,1.15-7.88,.79-14.23,.82-20.49,.1-10.33-1.2-20.8-.32-31.07-2.8-4.11-.99-8.69-.53-12.98,.46-13.59,3.15-27.08,1.24-40.62-.54-6.83-.9-14.13,.78-20.44,.04-10.82-1.28-21.22,3.54-32.04,.02-9.29-3.03-19.07-2.62-28.24,1.85-.59,.29-1.44,.04-2.33,.04,2.47-2.96,9.17-5.36,15-5.78,6.49-.47,12.84,.8,19.22,1.49,7.46,.81,14.73-.39,22.01-1.54,3.72-.59,4.25-7.28,1.02-11.47-.44-.57-.86-1.16-1.28-1.74,.15-.13,.3-.26,.45-.38m-15.48-112.21c3.2,0,3.25,1.79,3.89,3.07,9.88,20.01,19.69,40.05,29.69,60,3.3,6.59,7.04,12.94,11.56,18.84,1.78,2.33,3.78,2.06,6.04,1.69,1.03-.17,2.06-.84,1.45-1.85-1.2-1.97-1.45-5.56-4.22-5.32-3.55,.3-4.13-1.99-5.21-4.05-6.75-12.9-13.39-25.86-20.16-38.75-3.96-7.53-8.11-14.97-12.18-22.45-.92-1.7-2.13-3.52,.1-4.96,2.44-1.58,3.3,.64,4.24,2.21,1.16,1.95,2.23,3.96,3.3,5.96,11.65,21.64,23.32,43.28,34.93,64.95,1.32,2.47,3.21,3.48,5.82,4.59,4.26,1.82,8.54-.48,12.47,1.14,3.52,1.45,6.71,1.23,10.16-.32-2.14-3.18-4.03-6-5.95-8.8-.6-.88-1.31-2.76-2.2-2.09-4.14,3.13-4.38-1.23-5.48-2.88-12.29-18.44-22.44-38.15-33.63-57.24-1.35-2.3-6.81-4.95-1.45-8.78,.01,0-.6-1.24-1.13-1.59-2.46-1.61-4.84-3.76-8.68-1.76,15.06,26.54,29.99,53.14,43.33,80.77-1.13-5.32-7.68-4.04-9.65-9.14-9.95-25.67-27.12-47.71-37.38-73.27-.44-1.11-1.39-1.07-2.3-1.23-7.09-1.18-14.16-2.45-21.26-3.51-1.53-.23-3.62-.98-4.58,.93-.78,1.55,.78,2.8,1.52,4.04,8.66,14.46,16.45,29.38,24.14,44.36,1.26,2.46,2.7,4.83,4.06,7.25-4.93-18.09-13.13-34.68-21.23-51.8m34.86,113.25c-.92-2.59,.27-4.71,.74-6.88,1.76-7.98,1.81-7.97-6.65-7.67-.57,.02-1.14,.06-1.7,.03-1.82-.1-2.84,.57-2.82,2.56,.07,6.43-.05,12.86,.2,19.27,.06,1.64,.34,3.92,3.08,3.94,9.29,.08,18.23,3.04,27.55,3.15,8.59,.11,8.58,.38,9.17-7.95,.03-.38,.09-.75,.11-1.13,.59-8.48,.96-16.99,1.87-25.43,.43-4.01-1.04-4.85-4.58-4.71-5.86,.22-11.73,.03-17.58,.19-5.67,.15-11.33,.61-16.99,.77-2.22,.06-3.25,.93-2.69,3.05,.69,2.63,1.89-.02,2.79,.17,4.49,.94,8.16-2.05,12.44-2.44,6.43-.58,12.71-.24,19.06,.68,2.02,.29,4.91-1.52,4.96,2.25,.04,2.89-1.25,4.91-4.83,4.78-5.29-.19-10.59,.07-15.88,.03-2.55-.02-3.32,.43-3.06,3.52,.44,5.28,.24,10.71-1.89,15.99-.13-2.59-.27-5.18-.41-7.96-1.61,1.04-.35,3.41-2.9,3.78m36.14,7.67c2.88-3.53,6.14-4.14,9.14-4.68,3.96-.71,4.75-2.75,4.51-6.27-.25-3.65-.06-7.32-.06-12.72,3.11,2.98,4.85,4.84,6.81,6.45,1.8,1.48,3.45,4.41,5.83,3.56,1.83-.66,.68-3.75,1.06-5.72,.28-1.43,.7-2.83,1.13-4.54-7.84-.31-15.47,1.17-23.14-.03-3.16-.5-5.65,.87-5.37,5.18,.37,5.81,.09,11.67,.09,18.77m57.94-10.84c-3-3.45-5.02-5.62-6.87-7.92-2.19-2.72-4.02-2.23-5.54,.52-.94,1.7-3.69,3.13-2.66,4.99,1.24,2.25,3.86,3.07,6.8,2.5,2.16-.42,4.47-.08,8.27-.08m18.89-1.41c-3.38-3.42-4.04-8.12-8.46-7.69-3.95,.38-4.44,4.51-6.41,7.69h14.88Zm-143.01-71.19c.62-9.49-4.79-17.06-9.78-26.06-.08,1.76-.29,2.37-.1,2.81,3.27,7.76,6.58,15.5,9.88,23.25m91.4,73.1c-3.31-2.89-6.04-5.29-9.16-8.02q-1.12,12,9.16,8.02m-12.83-16.69c-1.09-1.74-.14-4.84-2.19-4.8-3.04,.05-6.1,1.34-9.02,2.44-.5,.19-.58,2.12-.4,3.16,.06,.32,1.67,.6,2.52,.5,2.79-.3,5.56-.79,9.08-1.31m-48.74-9.3c-1.71-2.76-3.14-5.06-4.82-7.75-2.32,3.29-4.3,6.1-6.6,9.37,4.22,.47,7.62-.23,11.41-1.62m74.99,23.84c-3.04-2.79-4.65-7.36-8.02-6.77-2.22,.39-1.02,5.15-1.33,8.05,3.1-.42,5.8-.79,9.35-1.28m-91.43-32.99c2.45-3.49,5.67-5.82,4.22-9.36-.62-1.51-4.75-1.12-5.69,.04-2.37,2.91,.77,5.51,1.46,9.32m25.6,8.09c-2.9-4.67-5.72-9.28-8.62-13.84-.4-.63-.55-2.1-1.84-1.39-1.23,.68-.97,1.71-.32,2.85,2.32,4.03,5.76,7.35,7.09,12.05,.53,1.88,2.32,1.06,3.69,.33m-15.58-9.01c-.88-2.44-1.86-4.2-3.62-5.78-1.27,2.34-2.47,4.55-3.77,6.94,2.85,.65,4.83-.79,7.4-1.16m-6.77,10.13q3.62-3.86,4.93-7.4-7.29,1-4.93,7.4m132.15,23.05h8.28q-4.06-5.5-8.28,0m-135.34-49.62c-1.14,1.93-3,3.36-2.95,6.21,2.33-.43,4.23-.78,6.24-1.16-.79-1.95-1.22-3.77-3.29-5.06"/>
    </clipPath>
    <clipPath id="clippath-2">
      <path class="cls-19" d="M509.25,195.32c-.75,.03-2.16,.01-2.17,.1-.49,6.13-5.27,3.9-8.39,4.04-8.51,.37-17.04,.34-25.57,.36-2.17,0-4.57,.65-6.96-1.78,9.49,.73,18.32-.42,27.21-1.07-6.31-2.73-12.9-1.56-19.36-1.75-4.49-.13-9,.12-13.48,.4-4.49,.28-7.4-2.27-10.23-5.17-9.42-9.64-16.5-9.71-26.11-.13-2.1,2.09-4.35,3.25-7.3,3.73-8.26,1.34-16.6,1.33-24.9,1.88-2.99,.2-5.2-.79-5.08-4.47,.12-3.79,3.04-2.07,4.55-2.12,8.68-.31,17.34-1.63,26.06-.39,3.18,.45,8.15-4.65,8.37-8.32,.34-5.55-.19-11.29,1.05-16.63,3.67-15.75,4.25-31.69,4.42-47.71,.01-1.25,.78-2.49,1.24-3.84,2.32,2.05,1.75,4.68,1.72,7.04-.13,11.9,.1,23.79,1.19,35.64,.05,.55-.2,1.35,.09,1.64,4.23,4.24,2.99,5.83-2.56,5.51-.97-.06-2.21,.39-1.95,1.46,.34,1.38,1.05,2.94,2.11,3.78,.77,.61,2.61,.98,3.36-.69,.4-.88,.59-1.81,1.86-1.57q2.64,14.13,8.83,15.52c-2.37-6.57,2.51-10.31,5.31-15.5,1.69,1.76,1.4,4.29,3.23,5.47,.28-.06,.86-.05,.91-.21,.63-2.08,.51-5.12,3.49-4.99,3.23,.14,2.32,3.62,2.59,5.42,.49,3.28,1.9,6.61,.77,10.06-2.2,0-1.5-1.73-1.83-2.84-.6-2.04,.83-5.56-3.39-5.06-4.23,.5-1.93,3.76-2.13,5.8-.3,3.13,.75,6.49-1.98,9.07,1.04-6,.4-11.86-1.12-17.93-1.96,2.23-.95,14.91,1.15,17.92,2.71,1.42,5.42,.32,8.23,.2,.02-3.06-3.93-2.97-4.11-5.62,.3-.17,.77-.49,.8-.45,7.54,9.1,18.65,7.12,28.28,7.88,4.32,.34,9.82-2.54,14.65-1.56,2.96,.6,6.71,2.47,7.62,6.52-.15,.13-.3,.26-.45,.38m-76.01-25.64c-1.51-.03-3.88-.46-3.13,1.7,.65,1.89,.79,5.11,3.5,5.33,2.51,.21,2.68-2.98,3.19-4.47,1.01-2.97-2.18-1.94-3.56-2.56"/>
    </clipPath>
    <clipPath id="clippath-3">
      <path class="cls-18" d="M158.58,223.21c5.56-3.79,11.99-4.22,18.33-3.92,9.69,.47,19.27,.05,28.88-1.23,5.99-.8,12.02-.89,18.06,.61,3.05,.75,6.47,.73,9.61,.28,18.73-2.7,37.51,2.39,56.11-.15,12.96-1.76,25.74,2.06,38.46,.03,14.99-2.4,29.82-1.18,44.72,.24,.93,.09,1.87,.23,2.78,.46,.23,.06,.34,.56,.88,1.53-5.38-.4-10.39-.52-15.32-1.19-10.03-1.36-20.04-1.25-29.99,.33-7.58,1.2-15.16-.31-22.59,.11-23.86,1.35-47.68-1.03-71.49,.25-4.56,.24-9.06,.71-13.56-.3-5.99-1.34-11.94-1.34-18.03-.4-9.38,1.44-18.85,1.67-28.34,1.28-6.22-.25-12.4,.15-18.53,2.07"/>
    </clipPath>
    <clipPath id="clippath-4">
      <path class="cls-50" d="M586.15,224.47c-5.54,1.85-11.16,.63-16.7-.2-20.71-3.09-41.39-2.8-62.11-.35-13.78,1.63-27.45,2.29-41.11-1.4-16.78-4.53-33.45-.91-50.09,1.45-5.98,.85-11.92,1.12-17.75-1.49,8.31,1.41,16.47,.21,24.53-1.28,18.34-3.39,36.28-2.23,54.54,1.72,13.34,2.88,27.08-1.23,40.64-1.8,17.29-.72,34.7-1.89,51.95,1.43,5.29,1.02,10.72,1.3,16.09,1.91"/>
    </clipPath>
    <clipPath id="clippath-5">
      <path class="cls-43" d="M195.33,7.37c22.09-14.04,51.54-6.99,54.3,12.52,5.56-1.7,11.18-2.85,17.01-2.33,6.87,.62,13.18,2.12,16.1,9.36,1.33,3.31,4.13,2.22,6.31,2.09,10.96-.62,14.93,.92,20.33,14.6,2.42,6.13,1.01,11.04-4.12,15.18-3.42,2.76-7.11,5.25-11.47,6.48,1.43-2.63,4.19-3.42,6.44-4.86,7.67-4.93,9.73-9,7.76-15.73-2.93-10.05-8.36-15.09-17.03-14.13-5.67,.63-9.23-.22-11.59-5.79-1.29-3.05-4.77-4.08-7.99-4.81-8.7-1.99-12.25-1.25-27.39,6.02,3.46-4.46,5.24-8.48,2.07-12.73-4.9-6.57-11.78-9.9-19.64-11.3-9.03-1.61-17.66,.16-26.04,3.57-1.66,.68-3.37,1.24-5.06,1.85"/>
    </clipPath>
    <clipPath id="clippath-6">
      <path class="cls-54" d="M150.13,85.7c3.82,1.79,7.6,3.69,11.47,5.36,10.51,4.52,21.06,6.03,31.56-.09,1.83-1.06,3.48-1.27,4.97,.68,3.6,4.72,8.85,5.19,13.9,4.18,6.14-1.22,12-.6,17.97,.55,2.4,.46,4.86,.86,7.3,.86,11.53,0,22.89-2.15,34.37-2.97,9.08-.65,17.09-7.62,27.19-5.49,2.45,.52,5.67-1.78,8.31-3.21,2.92-1.57,6-3.36,4.02-8.4,4.11,3,2.75,5.49,.62,7.18-6.27,4.98-13.27,8.14-21.51,5.99-1.98-.51-3.45-.87-5.15,.58-4.36,3.72-9.71,5.61-15.2,5.35-12.16-.59-23.97,4.09-36.1,2.21-8.64-1.34-17.21-1.99-25.92-.93-2.58,.31-5.79,.28-7.54-1.76-3.53-4.12-6.68-2.83-11.04-1.27-14.66,5.27-27.39-.37-39.25-8.83"/>
    </clipPath>
    <clipPath id="clippath-7">
      <path class="cls-32" d="M639.65,110.7c-6.87,2.04-13.99,2.27-20.57-.74-4.92-2.26-9.69-2.7-14.84-2.06-4.37,.54-8.7,.24-12.83-1.43-3.76-1.52-6.87-4.14-6.79-8.25,.08-4.25-1.7-4.42-4.99-4.13-3.18,.28-6.47,.33-9.62-.14-8.96-1.32-12.77-8.59-8.89-16.69,2.18-4.57,5.53-8.13,9.93-10.62,9.22-5.22,19.48-6.64,30.04-7.41-1.75,.51-3.49,1.1-5.26,1.53-2.02,.49-4.06,.9-6.1,1.26-5.24,.91-10.3,2.37-15.12,4.64-4,1.89-7.51,4.41-10.05,8.1-2.56,3.71-4.52,7.79-2.37,12.2,2.24,4.6,6.67,5.81,11.49,5.81,.95,0,1.9,.07,2.84-.01,5.17-.47,10.49-2.55,10.36,6.72-.07,4.96,6.06,6.75,10.57,6.72,9.4-.05,18.6-.29,27.57,3.56,4.48,1.93,9.64,1.1,14.64,.94"/>
    </clipPath>
    <clipPath id="clippath-8">
      <path class="cls-4" d="M199.14,205.36c2.8-1.82,5.43-.36,7.82,.06,15.71,2.79,31.37-.4,47.05-.06,3.58,.08,7.15,.64,10.72,.98,1.21,.12,2.34,.56,2.38,1.93,.05,1.63-1.36,1.69-2.43,1.57-21.69-2.44-43.89,3.52-65.53-4.49"/>
    </clipPath>
    <clipPath id="clippath-9">
      <path class="cls-13" d="M28.89,99.48c8.52,.63,17.09,3.34,25.56,1.23,7.86-1.96,15.26-2.35,23.21-.35,5.71,1.43,11.89,1.03,17.83,1.98-8.5,.99-16.95,.59-25.22-1.48-3.02-.75-5.6-.96-8.63,.08-11.07,3.8-21.97,2.09-32.74-1.46"/>
    </clipPath>
    <clipPath id="clippath-10">
      <path class="cls-48" d="M193.73,135.93c-24.08-5.4-48.58-.67-72.74-3.09,13.59-3.1,64.02-.96,72.74,3.09"/>
    </clipPath>
    <clipPath id="clippath-11">
      <path class="cls-31" d="M155.28,207.32h-51.88c0-.57,.01-1.15,.02-1.72,17.31-.9,34.58,.68,51.85,1.72"/>
    </clipPath>
    <clipPath id="clippath-12">
      <path class="cls-55" d="M237.72,132.85c17.03-7.09,34.85-2.5,52.25-4.05-17.25,3.56-35.14-1.14-52.25,4.05"/>
    </clipPath>
    <clipPath id="clippath-13">
      <path class="cls-61" d="M404.06,203.92c17.94-4.33,35.79,3.91,53.73,.8-17.94,4.4-35.8-2.92-53.73-.8"/>
    </clipPath>
    <clipPath id="clippath-14">
      <path class="cls-46" d="M606.75,206.3c16.75-1.73,33.41-.62,50.03,1.78-16.68-.57-33.34-1.58-50.03-1.78"/>
    </clipPath>
    <clipPath id="clippath-15">
      <path class="cls-8" d="M462.16,206.11c12.34-5.13,25.31-1.95,38.05-2.38-12.53,2.43-25.52-.96-38.05,2.38"/>
    </clipPath>
    <clipPath id="clippath-16">
      <path class="cls-6" d="M415.69,184.81c-3.26,.59-6.75,2.49-10.42-.84-1.69-1.53-3.84,.44-5.78,1.06-4.05,1.29-8.39,3.1-10.85-2.46,9.02,2.47,18.48-3.95,27.05,2.24"/>
    </clipPath>
    <clipPath id="clippath-17">
      <path class="cls-3" d="M420.67,197.94c-11.55,.36-23.1,.45-34.65,.63,11.55-.73,23.05-3.42,34.65-.63"/>
    </clipPath>
    <clipPath id="clippath-18">
      <path class="cls-33" d="M124.73,167.08c-.55-1.47-.67-2.03-.95-2.49-1.16-1.9-2.73-1.82-4.74-1.34-2.19,.52-2.05,1.88-1.89,3.38,.1,.91,.7,2-.81,2.04-.88,.02-1.83-.38-2.64-.8-1.13-.59-1.12-1.8-.07-2.12,2.51-.77-.29-4.45,2.18-4.34,3.3,.14,6.78-2.26,10.02,.65,.9,.81,1.2,1.27,.7,2.21-.44,.83-1,1.59-1.79,2.81"/>
    </clipPath>
    <clipPath id="clippath-19">
      <path class="cls-17" d="M442.3,211.31c-8.44-.13-16.96-.46-25.49-.99,8.52-1.89,16.96-.18,25.49,.99"/>
    </clipPath>
    <clipPath id="clippath-20">
      <path class="cls-27" d="M456.34,198.24c-8.64,1.8-17.33,1.88-26.05,.42,8.7,.22,17.35-.97,26.05-.42"/>
    </clipPath>
    <clipPath id="clippath-21">
      <path class="cls-40" d="M465.69,179.09c3.11-2.67,5.88-3.44,7.77,.7,.66,1.45,1.15,2.23,3.16,2.17,2.38-.07,2.48,2.14,2.64,5.74-1.77-2.92-2.65-5.03-5.13-3.37-.95,.64-1.91-.02-1.86-1.21,.2-5.18-3.09-4.56-6.59-4.03"/>
    </clipPath>
    <clipPath id="clippath-22">
      <path class="cls-42" d="M41.98,170.38c-1.58-1.6-4.5-.52-5.93-3.01,1.22-1.05,5.12,.97,3.71-2.96,2.33,.38,4.42-.63,6.6-1.13-.24,1.48,1.33,1.88,1.68,2.76,.34,.88-1.33,.95-2.11,1.35-1.56,.79-4.59-.36-4.07,3.15,0,.01,.12-.16,.12-.16"/>
    </clipPath>
    <clipPath id="clippath-23">
      <path class="cls-34" d="M237.1,164.62c-4.14,3.22-8.7-1.21-13.29-.31,2.33-2.97,6.27-.43,8.52-3.18,.08-.1,.92,.28,.92,.3-1.85,6.94,3.92-1.04,3.85,3.19"/>
    </clipPath>
    <clipPath id="clippath-24">
      <path class="cls-16" d="M105.18,132.64h-7.53c-.7-1.61,.97-2.24,1.16-3.44,.26-1.69-.17-4.54,2.37-4.27,3.24,.34,.54,2.9,.97,4.33,.31,1.03,1.54,1.78,3.04,3.38"/>
    </clipPath>
    <clipPath id="clippath-25">
      <path class="cls-35" d="M295.34,153.72c-1.38,.14-2.76,.28-4.15,.42-1.86-.16-3.02,2.3-5.09,1.37,1.2-4.7,5.94-4.1,9.11-5.71,.55-.28-.1,2.55,.12,3.92"/>
    </clipPath>
    <clipPath id="clippath-26">
      <path class="cls-47" d="M342.43,67.88c-.02,3.27-2.86,4.47-4.79,7.01-1.2-2.19,1.18-3.08,1.05-4.32-1.41-1.01-2.49,1.44-3.99-.38,2.41-1.78,4.76-3.19,7.91-2.13,0,0-.18-.18-.18-.18"/>
    </clipPath>
    <clipPath id="clippath-27">
      <path class="cls-5" d="M542.11,197.54c-2.23-2.3-1.33-5.28-2.53-8.04-.7,1.91-1.31,3.56-1.91,5.21-1.09-3.8,.09-7.1,1.39-11.36,4.43,4.61,2.85,9.66,3.05,14.19"/>
    </clipPath>
    <clipPath id="clippath-28">
      <path class="cls-44" d="M520.35,198.84c1.06-5.23,1.87-9.22,2.68-13.21,.2-.98,.59-1.86,1.73-1.85,1.56,.02,1.64,1.28,1.65,2.4,.04,3.53,.01,7.05,.01,10.95-2.3-2.23-.28-5.2-1.95-7.46-2.36,2.32-.45,6.09-4.12,9.17"/>
    </clipPath>
    <clipPath id="clippath-29">
      <path class="cls-37" d="M548.31,198c.85-5.05,1.71-10.1,2.56-15.15,.46,.07,.93,.14,1.39,.21,.09,5.14-1.27,10.09-2.37,15.07-.53-.04-1.06-.08-1.58-.13"/>
    </clipPath>
    <radialGradient id="radial-gradient-60" cx="370.37" cy="-828.43" fx="370.37" fy="-828.43" r="583.64" gradientTransform="translate(-952.8 -826.99) rotate(90) scale(1.55)" xlink:href="#radial-gradient"/>
  </defs>
  <g id="_Слой_1-2" data-name="Слой 1">
    <g>
      <path class="cls-28" d="M81.91,201.84c-.13,3.04-2.28,2.38-4.1,2.18-18.55-2.06-37.02-.82-55.47,1.28-.94,.11-1.89,.15-2.83,.15-1.09,0-2.49,.28-2.71-1.25-.19-1.3,.74-2.18,2-2.22,9.09-.32,15.23-6.61,22.36-10.92,2.8-1.69,5.93,.53,8.82-.95-12.1-1.58-24.38,.1-36.54-1.44,1.83-2.62,4.35-1.74,6.57-1.9,2.26-.17,4.54-.1,6.81-.16q15.49-.39,15.17-16.22l-.12,.17c3.98,1.89,1.34,5.21,1.4,7.73,.19,7.89-.04,7.9,7.85,7.94q11.41,.07,11.56-11.49c0-.67,.19-1.34,.44-2.96,2.47,3.84,1.32,7.2,1.45,10.37,.09,2.07-.4,4.21,2.94,4.18,2.78-.03,4.23-.75,4.12-3.84-.21-6.01,.98-11.9,1.74-17.83,3.6,3.03,2.87,2.76,1.13,7.37-1.48,3.92-1.09,8.56-1.42,12.9-.07,.86,.89,1.27,1.62,1.17,5.61-.79,11.25,1.94,16.85-.22,.88-.34,2.42-1.09,2.15-1.34-4.49-4.06,.51-5.45,1.95-8,1.55-2.75-.19-6.06,1.42-9.3,1.25-2.52,1.83-6.49-1.95-9.06-1.57-1.07-1.9-3.55-1.77-5.82,2.75,.16,1.43,3.4,3.99,3.98,.47-3.7,2.33-7.31-1.42-10.55-.72-.62-1.8-2.56-.22-2.46,4.18,.29,2.13-2.52,2.33-4,.48-3.5-3.28-1.43-4.91-3.93,5.51-2.14,10.66,.43,15.8-.8-.13,3.58-4.72,1.27-3.91,4.41,.26,1-2.06,3.27,1.66,3.31,2.49,.03,1.56,2.77,.3,3.8-3.11,2.52-2.05,5.7-2.22,8.98,1.75-.63,1.88-4.03,3.87-2.48,1.77,1.38,.72,3.81-.76,4.98-4.93,3.91-3.37,8.41-1.62,13.03,.26,.69,.71,1.48,.59,2.12-.82,4.26,.71,6.7,5.26,6.65-.28,2.91-3.67,1.39-4.03,3.63,.17,.2,.38,.63,.59,.64,3.4,.05,7.46,1.2,10.05-.26,3.11-1.75,0-6.1,.87-9.24,.33-1.2-.24-2.67,2.16-4.25,0,3.74,.08,6.89-.02,10.03-.1,2.87,1.01,4.29,4.01,3.9,.37-.05,.76,0,1.14-.02,5.11-.19,11.41,1.39,15-1.05,4.03-2.73,.9-9.44,1.38-14.39,.49-5.02,.76-5.58,7.73-7.27-8.7,4.34-6.17,11.74-5.75,18.63,.16,2.62,1.22,3.55,3.85,3.53,4.54-.03,9.09,.29,13.63,.49,6.17,.26,10.56-3.93,10.31-9.95-.12-2.95-.4-5.9-.07-8.9,1.53,4.73,2.28,9.56,2.09,14.51-.14,3.76,.78,5.34,5.18,4.47,7.96-1.58,16.07-2.42,24.12-3.58,1.27-.18,2.83,.19,3.58-1.15,.42-.76,.65-2.47,.34-2.65-5.39-3.07,3.41-7.69-1.22-10.75-.59-.39-1.05-.97-1.57-1.47,3.08-2.39,3.68-5.1,1.07-8.23,5.24-2.55,2.05-7.35,2.55-10.96,.85-6.08,.25-12.35,2.37-18.46,0,3.35,.09,6.7-.02,10.05-.12,3.59-1.67,7.79-.29,10.6,1.46,2.99-2.6,8.06,4.22,8.8-2.04,2.22-7.84,3.36-1.85,6.59,.97,.52,.21,2.09-.87,2.79-1.4,.92-1.49,2.96-.91,3.51,2.8,2.65,2.04,5.31,.84,8.27-.53,1.3,.25,2.1,1.76,1.99,1.13-.09,2.28-.04,3.41-.12,3.58-.27,7.83,.53,10.54-1.15,3.13-1.94-.4-6.25,.48-9.48,.14-.52,.39-1.01,.67-1.73,2.44,1.1,1.81,3.32,1.68,4.88-.48,5.61,1.99,6.97,7.29,6.61,7.53-.5,15.12-.13,23.32-.13-2.21-7.76-4.68-14.82-8.03-21.58-.72-1.46-1.78-2.31-3.48-2.53-1.48-.2-2.47-1.32-2.13-2.81,.43-1.9,2.08-1.85,3.67-1.72,3.54,.28,5.22,2.87,6.65,5.55,3.14,5.86,4.99,12.24,7.11,18.51,1.44,4.28,8.25,6.79,11.24,3.44,3.56-3.98,7.94-4.1,12.35-4.49,3.13-.28,4.16-1.44,4.33-4.51,.26-4.82-.99-9.31-2.14-13.85,1.38-.14,2.76-.28,4.15-.42,1.21-.31,1.88-1.93,4.5-1.13-7.24,3.81-4.94,10.09-5.26,15.72-.15,2.67,1.04,3.33,3.37,2.9,.37-.07,.75-.1,1.13-.1,8.85-.04,14.22-2.65,17.61-12.59,6.14-17.97,15.96-34.56,24.22-51.73,3.58-7.44,8.06-13.88,12.82-20.39,3.84-5.25,1.59-10.85-6.22-14.73-2.07-1.03-3.46-2.44-5.08-3.8l.19,.18c0-1.63-3.04-2.73-1.31-4.38,1.85-1.76,2.92,.74,4.05,1.7,9.81,8.24,20.05,15.29,33.44,16.56,6.91,.66,13.69,2.59,21.8,4.19-3.08-3.41-5.14-6.04-9.16-5.75-3.7,.27-4.55-1.12-1.97-4.11-2.24-.7-3.11,1.86-4.93,1.18,4.3-5.94,4.2-5.81,9.71-1.66,5.88,4.43,11.35,9.37,17.55,13.41,3.55,2.31,1.88,7.62,5.5,10.27-2.9,1.59-3.07-1.49-4.68-1.6-.25,.14-.68,.23-.81,.47-11.82,23.28-18.08,48.38-23.9,73.6-2.18,9.48-5.3,18.8-5.08,28.76,.08,3.44-2.78,4.03-5.67,3.97-11.73-.23-23.46-.65-35.19-.6-6.73,.03-13.62-.97-20.11,1.96-2.18,.98-2.13-.8-2.09-2.06,.25-7.25-1.89-14.44-.05-21.79,.51-2.01,.98-2.41,2.64-2.54,5.57-.43,8.36-3.47,9.37-9,1.32-7.21,3.25-14.31,5.08-22.15-3.8,2.76-7.05,5.11-10.27,7.45,0,.92,.48,1.38,1.31,1.56,4.84,1.08,4.86,3.35,1.63,6.48-2.02,1.96-4,3.97-6.34,6.31-.32-3.62,2.42-4.82,4.14-6.46,2.47-2.36,3.47-4.03-.87-5.11-1.57-.39-2.84-1.22-2.24-3.23,3.21-2.62,7.17-4.25,9.88-7.53,1.7-2.06,.71-3.27-1.15-4.52-1.76-1.18-3.05-1.43-3.89,.86-1.4,3.85-4.52,7-4.67,11.37-2.97,4.53-7.62,9.23-6.89,14.36,.82,5.75-.07,11.12-.24,16.63-.24,7.35,.89,14.73-.52,22.06-.5,2.61,1.66,1.98,2.93,1.88,20.81-1.7,41.67-.41,62.5-.86,9.21-.2,18.46-.44,27.76,1.55-.61,1.97-1.8,1.18-2.75,1.07-6.51-.76-12.67-.01-19.23,1.35-9.31,1.93-19.22,.6-28.86-.38-24.65-2.51-49.2,.35-73.77,1.75-7.2,.41-14.36,.94-21.53-.29-1.3-.22-2.66-.43-3.96-.32-19.85,1.73-39.59-1.51-59.46-1.21-20.63,.32-41.31-.23-61.89,1.35-22.99,1.76-45.63-2.26-68.46-2.78-2.27-.05-4.54-.18-6.81-.1-8.88,.34-17.57,.03-26.49-1.37-10.77-1.68-21.85,.49-32.7,2.32-1.21,.2-2.45,1.01-4-.46,5.33-2.19,10.77-2.33,16.1-2.81,8.82-.8,17.67-2.22,26.49,.33,1.96,.57,4.17,.77,6.2,.56,15.93-1.59,31.82,.37,47.65,1.21,13.58,.72,27.06,2.39,40.73,1.41,12.65-.91,25.34-1.79,38.01-1.78,13.98,0,27.95,1.18,41.96-.01,3.88-.33,7.96,.35,11.81,1.22,6.05,1.38,12.07,1.14,18.06,.31,6.94-.96,13.77-2.24,20.71,.22,2.07,.73,4.51,.74,6.76,.61,10.39-.59,20.76-1.4,31.15-2.02,2.75-.16,3.64-1.08,3.85-4.05,.54-7.47,1.38-14.89,.77-22.38-1.64-.1-1.16,2.24-2.79,1.74-1.54-2.09,1.53-4.23-.06-6.45-2.95,1-5.67,2.13-4.63,6.59q-2.86-3.32-4.79,.32c-2.05-.99,1.57-3.89-1.45-4.45-2.02-.37-3.37,.31-3.02,2.72l-6.21-.52c-2.89-.83-2.58,1.27-2.61,2.93-.1,6.25-.12,12.51-.25,18.76-.04,1.76,.51,3.69-.71,5.19-1.7,0-1.72-1.05-1.71-1.94,.04-5.49-3.34-7.9-8.15-8.23-20.35-1.4-40.69-3.15-61.15-2.22-11.35,.52-22.71,.67-33.68,4-2.1,.64-3.57-.16-5.37-.59-1.49-.36-3.74-1.71-4.43,1.47-.24,1.13-1.51,1.71-2.77,1.34-1.58-.46-1.74-1.78-1.69-3.19,.13-3.59,.06-7.19,.39-10.76,.27-2.97-.97-4.15-3.76-4.28-17.78-.85-35.54-.37-53.95,.41,2.54,3.56,4.36,6.26,7.71,1.67,2.13-2.92,4.09-.69,5.56,.86,3.34,3.52,6.72,3.95,10.4,.71,2.26-1.99,4.32-1.93,6.47,.19,.79,.78,2.12,2.01,2.75,1.78,6.31-2.26,12.21-.43,18.2,1.3,.89,.26,2.46-.96,2.89,.47,.46,1.52,.54,3.35,.12,4.87-.46,1.66-2.1,1.02-3.41,.78-22.77-4.15-45.46-4.76-67.93,1.87-1.09,.32-2.34,1.03-3.02-.24-.65-1.2,.61-2.11,1.36-2.81,3.85-3.61,3.88-3.57,3.14-9.61-7.8-.27-5.54,5.94-6.25,10-.45,2.56,.09,5.62-3.67,2.2,1.3-3.48,.97-7.06,.5-10.61-.14-1.09-.62-2.37-2.16-1.98-1.06,.27-2.24,.66-3,1.38-1.28,1.2,.44,1.78,.9,2.6,.76,1.35,2.94,1.83,2.48,4.11-2.33-.44-3.42-2.38-4.61-3.85-2.96-3.66-6.79-4.21-11.12-4.3-3.54-.07-3.5,1.91-3.32,4.33,.17,2.24-.98,5.19,3.29,4.88,5.99-.45,11.8,.41,17.17,3.32m291.15-45.32c-2.21,.22-3.92,.1-2.7-2.94,1.55-3.86,2.89-7.8,4.44-11.65,6.65-16.54,14.66-32.38,24.31-47.39,.66-1.03,2.68-2.39,.66-3.74-1.41-.94-2.85-.18-3.83,1.31-.83,1.26-1.87,2.38-2.75,3.61-14.74,20.61-23.39,43.97-30.48,68.01-.96,3.25-1.5,6.62-2.23,9.93-.21,.96-.59,1.97-1.7,1.89-1.07-.08-1.55-1.05-1.49-2.07,.07-1.12,.21-2.27,.52-3.34,7.85-27.39,17.42-54,34.45-77.31,.64-.88,2.27-1.73,.43-3.9-12.34,16.57-20.97,34.88-29.13,53.49,3.01-11.79,7.65-22.83,13.69-33.26,3.51-6.05,7.19-12,10.81-17.98,.62-1.01,1.35-2.05-.25-2.71-.87-.36-1.41-.05-2.1,1.01-10,15.4-17.42,32.09-24.91,48.76-4.52,10.07-8.01,20.42-9.25,31.44-.28,2.5-.23,5.47-3.82,4.97-3.33-.47-3.08-3.37-2.72-5.83,.93-6.37,2.09-12.73,4.9-18.58,9.23-19.26,17.62-38.98,30.35-56.36,.89-1.22,1.64-2.54,2.44-3.82,.42-.67,.7-1.38-.05-2-.91-.76-1.86-.44-2.53,.26-.77,.81-1.37,1.81-1.96,2.77-9.61,15.43-18.38,31.3-25.41,48.1-.48,1.14-.43,2.68-3.37,2.73,7.27-19.54,17.85-36.89,28.29-54.38-2.34-.91-2.91,.09-3.77,1.28-11.69,16.04-21.2,33.08-24.97,52.87-.3,1.55-.17,4.68-2.68,4.16-2.76-.57-1-3.1-.67-4.77,3.72-18.31,12.18-34.46,22.69-49.68,1.09-1.58,2.79-2.9,2.82-4.88-6.25-2.62-8.64,.5-10.6,5.64-3.62,9.52-7.4,18.97-10.76,28.6-6.04,17.3-8.84,35.12-10.11,53.29-.16,2.31,.58,3.01,2.73,3.09,6.62,.24,13.24,.57,19.86,.95,1.73,.1,2.87-.34,3.5-2.05,2.39-6.53,4.84-13.05,7.26-19.57,2.06-1.29,2.53-3.62,3.42-5.58,7.27-16.01,14.89-31.85,23.28-47.31,1.93-3.56,3.75-7.17,5.62-10.75-6.14,6.43-10.34,13.98-14.32,21.65-7.04,13.57-13.74,27.3-17.88,42.1m-132.66,27.61c1.15,3.89,1.75,7.24,6.34,7.35,2.24,.06,3.95,.09,5.04-2.41,.74-1.71,1.1-4.59,3.88-4.07,2.38,.45,2.46,3.12,3.09,5.02,.62,1.88,1.17,3.53,3.54,3.81,2.3,.26,2.83-1.56,3.71-2.9,3.7-5.67,3.78-5.74,6.78,.16,1.12,2.19,2.83,3.37,4.1,1.29,1.49-2.44-.41-5.47-.69-8.25-.25-2.47-2.6-1.83-4.1-1.76-10.38,.49-20.75,1.13-31.69,1.75m-205.37,14.99c7.42,.28,14.69-1.08,22.05-.66,1.73,.1,2.37-.9,2.27-2.48-.13-2.05,.83-4.39-.52-6.07-1.05-1.31-2.71-.39-4.07,.42-1.94,1.15-4.32,3.38-5.93,2.96-6.25-1.65-9.26,3.61-13.8,5.82m288.26,2.47c1.69-.91,4.17,.66,3.47-2.42-.27-1.16-.1-2.03,1.13-1.88,5.8,.72,5.99-4.13,7.4-7.55,.66-1.6,1.64-4.23-.57-5.07-2.72-1.03-5.84-1.23-8.8-1.32-1.06-.03-.28,1.47-.33,2.3-.33,5.02,.31,10.19-2.29,15.93m-229.02-10.77c.1,3.83-1.63,7.26,3.26,6.53,7.74-1.15,15.47-2.39,23.61-3.65-2.02-2.53-3.54-4.83-6.24-1.27-2.08,2.74-4.17,1.7-6.21-.18-1.37-1.26-2.87-3.12-4.47-.39-3.01,5.14-6.08,3.78-9.95-1.04m275.13,.35c1.8,2.52-1.84,4.2-.37,6.77,2.55-2.41,2.87-5.67,4-8.47,.56-1.38,2.75-3.49-.23-4.42-2.04-.64-4.5-.75-5.54,2.27-1.16,3.38-2.6,6.67-4.05,10.34,4.22-.45,2.98-5.21,6.19-6.48m-193.73-2.42c1.1,1.55,1.72,2.73,2.62,3.63,1.72,1.72,2.33,5.56,5.55,4.52,2.94-.95,.96-4.35,1.71-6.55,1.11-3.24-.82-3.43-3.22-2.96-2.01,.39-4.01,.82-6.66,1.37m165.48-55.97c-3.67,2.56-8,2.1-9.06,5.9-1.14,4.11,5.31,3.53,5.42,7.35,1.08-3.94,2.17-7.89,3.64-13.25m-135.04,52.68c2.18,2.3,.82,7.96,6.58,6.33,3.07-.87,3.74-4.88,3.22-5.56-2.48-3.25-6.31-.5-9.8-.77m-102.85-17.31c0-9.37,.02-18.75-.03-28.12,0-.98,.68-2.66-.9-2.75-2.09-.12-1.44,1.82-1.42,2.95,.13,9.34,2.05,18.56,2.35,27.92m252.01,28.95c2.12,.59,4.88,.53,4.65-.11-1.62-4.59,3.01-7.6,2.59-11.73-8.49-1.09-8.9-.88-8.15,4.45,.5-.28,1.08-.43,1.35-.8,.81-1.08,.98-3.43,2.98-2.3,1.33,.76,.3,2.31-.29,3.51-1.07,2.18-1.99,4.43-3.12,6.98m-121.31-12.41c-3.72-.64-6.98-.45-10.45,.33,1.11,2.63,.76,5.79,4.97,5.78,4.35-.02,4.27-3.18,5.48-6.1m107.06,12.02c2.11,1.16,3.88,1.51,4.89-.81,1.48-3.39,3.47-6.7,3.51-10.47,0-.94-1.76-.69-2.45,.58-1.95,3.58-3.96,7.13-5.95,10.69m-146.25-2.28c-2.41-2.75-2.9-6.2-6.36-7.36q-2.29,9.69,6.36,7.36m-2.55-8.62c1,3.67,2.45,7.35,5.35,7.66,2.33,.25,2.58-4.52,2.13-6.02-1.13-3.75-4.63-.56-7.48-1.64m77.3,3.6c-2.64,3.24-4.05,5.75,1.16,6.59,1.82,.3,2.83,1.67,4.15,2.68,.88,.67,2.02,1.09,3.11,.48,.27-.15,.34-.98,.23-1.43-.25-1.01-.26-2.56-1.84-2.24-4.51,.9-4.97-2.9-6.8-6.08m106.07-24.45c2.61-.21,6.01,1.48,6.61-2.94,.29-2.16-1.49-3.84-2.58-3.69-3.31,.47-2.8,4.09-4.03,6.63m-152.4,24.86c-.41-1.98-.96-4.25-2.81-4.63-2.54-.53-2.36,2.28-3.07,3.81-.44,.95-.88,2.47,.94,2.41,1.72-.05,3.76,.27,4.94-1.59m148.57-14.85c3.06-1.51,5.87-.87,8.06-2.73-5.72-4.62-6.23-4.49-8.06,2.73m-268.02,13.72c-2.64-.08-5.54-1.57-7,1.01-.69,1.23,1.12,3.09,2.4,3.41,3.4,.84,3.08-2.83,4.59-4.42M409.19,93.72c-3.6,3.05-5.59,6.92-6.16,11.51,2.54-3.59,5.79-6.82,6.16-11.51m-168.88,96.54c-.65-2.15-.59-5.36-3.03-5.38-2.18-.01-2.65,3.08-3.02,5.33,2.02,.65,3.85,.67,6.05,.05m-33.73,1c-.95-1.56-1.05-4.17-3.24-4.08-1.99,.08-1.82,2.38-2.06,3.96-.25,1.62,.3,2.62,2.09,1.98,1.14-.41,3.22,.56,3.2-1.85"/>
      <path class="cls-41" d="M509.7,194.93c4.87-3.47-.32-7.06-.18-10.61,.06-1.51-3.11-3.1-4.97,.21-.79,1.41-1.79-.66-2.73-.76-4.08-.46-7.58-5.49-12.22-1.59-.16,.14-.69-.14-1.03-.25q-4.69-1.58-4.44,3.55c-2.18-2.33-2.48-3.04-1.56-4.75,.96-1.77,2.36-2.98,4.58-2.58,3.66,.66,7.55,.23,10.96,2.02,3.94,2.06,4.61,.6,3.79-3.12-.31-1.42-.45-3.02,.74-4.52,2.12,.94,1.26,2.96,1.21,4.3-.15,3.99,3.01,4.15,5.33,4.41,3.23,.36,1.67-2.6,2.03-4.15,1.84-7.9-2.43-14.71-4.33-21.84-7.22-27.09-17.82-52.97-29.54-78.4-1.08-2.34-2.85-4.36-4.29-6.53,7.22-2.09,12.66-6.69,18.25-10.87,5.46-4.08,10.71-8.44,16.57-11.93,1.35-.81,3.11-2.99,4.35-1.26,1.42,1.96-1.49,2.43-2.58,3.46-1.18,1.12-3.09,1.43-3.82,3.62,4.74-.55,9.25-1.15,13.77-1.57,1.11-.1,2.88-1.03,3.26,.9,.27,1.39,.68,3.6-.88,4.15-4.49,1.61,.72,2.29,0,3.79-2.49,.17-4.67-1.35-6.99-2.15-2.06-.71-3.7-2.18-6.13-.2-2.42,1.98-1.51,3.94-1.11,6.11,.09,.5,.01,1.03,.01,3.08-2.99-4.72-2.1-9.34-4.51-12.85-7.1,4.07-13.1,9.42-18.94,16.02,11.91,2.26,23.21,4.89,34.75,6.24,1.92,.22,3.61,.09,5.19-1.46,6.41-6.28,14.21-10.66,21.76-15.35,2.94-1.82,5.16-4.4,7.98-6.27,.92-.61,2.01-1.43,2.97-.2,.86,1.1,.29,2.04-.69,2.88-1.36,1.16-4.7,2.04-3.66,3.53,1.63,2.32,1.45,6.19,5.45,6.98,1.7,.33,3.79,1.24,5.65,4.36-3.12-1.41-5.03-2.36-7.02-3.13-1.08-.42-2.18-2.02-3.44-.39-1.2,1.56-.24,2.74,.81,3.97,1.15,1.35,2.11,2.86,3.99,5.44-4.3-1.5-4.81-4.82-7.16-6.32-2.19,1.64-.84,4.55-2.64,7.15-1.14-3.42,.14-6.26,.09-9.04-.03-1.62-.34-3.33-1.53-4.07-1.25-.78-2.24,.93-3.25,1.64-4.94,3.49-9.8,7.08-15.25,11.04,4.68,.79,4.22,4.88,5.84,7.6,4.06,6.83,7.66,13.98,12.24,20.44,12.64,17.84,21.82,37.6,32.39,56.6,.65,1.16,1.17,2.27,.97,3.73-.2,1.5,1.01,1.42,1.83,.92,7.29-4.4,7.7-4.44,15.53-.44,5.24,2.67,7.9,1.23,7.82-4.26-.06-4.08,.56-8.24-3.6-11.2-1.45-1.04-1.47-3.38-.49-5.58,2.7,1.86,5.4,2.57,8.26,.26,1.06-.86,3.78-1.43,3.33,.22-.5,1.87,1.24,5.56-1.36,5.53-5.25-.07-3.89,3.12-3.81,5.84,.28,9.8,.31,9.82,9.94,9.43,4.47-.18,8.94-.45,13.69-.7-.36,2.88-2.56,1.66-3.62,2.76,.8,.23,1.48,.57,2.17,.6,9.06,.45,18.1,1.28,27.19,.76,3.74-.21,7.36,1.7,11.21,1.09,.82-.13,1.54,.35,1.58,1.2,.02,.43-.45,1.14-.85,1.28-2.93,1.03-5.63,3.18-9.02,2.25-7.94-2.18-16.18-1.02-24.2-2.23-1.99-.3-3.72,.45-5.46,1.21-1.43,.63-3.23,1.35-4.37,.5-5.32-3.96-11.64-2.59-17.5-3.57-2-.33-4.74-2.24-5.72,1.93-.41,1.73-2.76,.4-3.27-.21-3.95-4.72-9.07-2.04-13.64-2.27-2.8-.14-1.76,3.91-4.26,4.67,27.73-1.59,55.03,1.94,82.42,2.84,1.37,.04,3.76-.34,3.7,1.49-.08,2.7-2.68,1.35-4.05,1.3-18.9-.72-37.78-1.59-56.68-2.38-3.02-.13-6.05-.02-9.12-.02-.45,2.56,1.85,2.79,2.74,4.03,3.01,4.22,5.84,6.11,9.07-.15,2.04-3.96,5.38-3.68,8.4-.64,1.19,1.2,2.27,2.54,3.26,3.92,2.43,3.4,4.16,4.2,6.63-.33,3.61-6.64,8.04-6.79,12.54-.55,2.74,3.8,4.84,4.76,8.18,.82,2.42-2.85,5.32-3.85,7.82,.14,1.44,2.29,3.28,1.05,5.05,.7,5.04-1.01,7.8,.14,10.8,4.54-2.48,1.01-3.68-1.47-5.53-1.92-2.66-.65-6.2-2.95-6.01,2.94,.07,2.11-2.25,1.43-3.64,1.5-18.72,.92-37.46,1.48-56.14,3.27-11.17,1.07-22.17,2.6-32.15,8.19-1.41,.79-3.77,1.35-3.31,3.36,.57,2.49,2.87,1.02,4.34,.87,6.21-.64,12.41-1.69,18.67-1.21,3.22,.24,7.37-1.76,9.19,3.12,.15,.41,1.76,.35,2.69,.38,12.86,.51,25.66,2.35,38.57,1.84,.45-.02,.92,.34,2.94,1.15-7.88,.79-14.23,.82-20.49,.1-10.33-1.2-20.8-.32-31.07-2.8-4.11-.99-8.69-.53-12.98,.46-13.59,3.15-27.08,1.24-40.62-.54-6.83-.9-14.13,.78-20.44,.04-10.82-1.28-21.22,3.54-32.04,.02-9.29-3.03-19.07-2.62-28.24,1.85-.59,.29-1.44,.04-2.33,.04,2.47-2.96,9.17-5.36,15-5.78,6.49-.47,12.84,.8,19.22,1.49,7.46,.81,14.73-.39,22.01-1.54,3.72-.59,4.25-7.28,1.02-11.47-.44-.57-.86-1.16-1.28-1.74,.15-.13,.3-.26,.45-.38m-15.48-112.21c3.2,0,3.25,1.79,3.89,3.07,9.88,20.01,19.69,40.05,29.69,60,3.3,6.59,7.04,12.94,11.56,18.84,1.78,2.33,3.78,2.06,6.04,1.69,1.03-.17,2.06-.84,1.45-1.85-1.2-1.97-1.45-5.56-4.22-5.32-3.55,.3-4.13-1.99-5.21-4.05-6.75-12.9-13.39-25.86-20.16-38.75-3.96-7.53-8.11-14.97-12.18-22.45-.92-1.7-2.13-3.52,.1-4.96,2.44-1.58,3.3,.64,4.24,2.21,1.16,1.95,2.23,3.96,3.3,5.96,11.65,21.64,23.32,43.28,34.93,64.95,1.32,2.47,3.21,3.48,5.82,4.59,4.26,1.82,8.54-.48,12.47,1.14,3.52,1.45,6.71,1.23,10.16-.32-2.14-3.18-4.03-6-5.95-8.8-.6-.88-1.31-2.76-2.2-2.09-4.14,3.13-4.38-1.23-5.48-2.88-12.29-18.44-22.44-38.15-33.63-57.24-1.35-2.3-6.81-4.95-1.45-8.78,.01,0-.6-1.24-1.13-1.59-2.46-1.61-4.84-3.76-8.68-1.76,15.06,26.54,29.99,53.14,43.33,80.77-1.13-5.32-7.68-4.04-9.65-9.14-9.95-25.67-27.12-47.71-37.38-73.27-.44-1.11-1.39-1.07-2.3-1.23-7.09-1.18-14.16-2.45-21.26-3.51-1.53-.23-3.62-.98-4.58,.93-.78,1.55,.78,2.8,1.52,4.04,8.66,14.46,16.45,29.38,24.14,44.36,1.26,2.46,2.7,4.83,4.06,7.25-4.93-18.09-13.13-34.68-21.23-51.8m34.86,113.25c-.92-2.59,.27-4.71,.74-6.88,1.76-7.98,1.81-7.97-6.65-7.67-.57,.02-1.14,.06-1.7,.03-1.82-.1-2.84,.57-2.82,2.56,.07,6.43-.05,12.86,.2,19.27,.06,1.64,.34,3.92,3.08,3.94,9.29,.08,18.23,3.04,27.55,3.15,8.59,.11,8.58,.38,9.17-7.95,.03-.38,.09-.75,.11-1.13,.59-8.48,.96-16.99,1.87-25.43,.43-4.01-1.04-4.85-4.58-4.71-5.86,.22-11.73,.03-17.58,.19-5.67,.15-11.33,.61-16.99,.77-2.22,.06-3.25,.93-2.69,3.05,.69,2.63,1.89-.02,2.79,.17,4.49,.94,8.16-2.05,12.44-2.44,6.43-.58,12.71-.24,19.06,.68,2.02,.29,4.91-1.52,4.96,2.25,.04,2.89-1.25,4.91-4.83,4.78-5.29-.19-10.59,.07-15.88,.03-2.55-.02-3.32,.43-3.06,3.52,.44,5.28,.24,10.71-1.89,15.99-.13-2.59-.27-5.18-.41-7.96-1.61,1.04-.35,3.41-2.9,3.78m36.14,7.67c2.88-3.53,6.14-4.14,9.14-4.68,3.96-.71,4.75-2.75,4.51-6.27-.25-3.65-.06-7.32-.06-12.72,3.11,2.98,4.85,4.84,6.81,6.45,1.8,1.48,3.45,4.41,5.83,3.56,1.83-.66,.68-3.75,1.06-5.72,.28-1.43,.7-2.83,1.13-4.54-7.84-.31-15.47,1.17-23.14-.03-3.16-.5-5.65,.87-5.37,5.18,.37,5.81,.09,11.67,.09,18.77m57.94-10.84c-3-3.45-5.02-5.62-6.87-7.92-2.19-2.72-4.02-2.23-5.54,.52-.94,1.7-3.69,3.13-2.66,4.99,1.24,2.25,3.86,3.07,6.8,2.5,2.16-.42,4.47-.08,8.27-.08m18.89-1.41c-3.38-3.42-4.04-8.12-8.46-7.69-3.95,.38-4.44,4.51-6.41,7.69h14.88Zm-143.01-71.19c.62-9.49-4.79-17.06-9.78-26.06-.08,1.76-.29,2.37-.1,2.81,3.27,7.76,6.58,15.5,9.88,23.25m91.4,73.1c-3.31-2.89-6.04-5.29-9.16-8.02q-1.12,12,9.16,8.02m-12.83-16.69c-1.09-1.74-.14-4.84-2.19-4.8-3.04,.05-6.1,1.34-9.02,2.44-.5,.19-.58,2.12-.4,3.16,.06,.32,1.67,.6,2.52,.5,2.79-.3,5.56-.79,9.08-1.31m-48.74-9.3c-1.71-2.76-3.14-5.06-4.82-7.75-2.32,3.29-4.3,6.1-6.6,9.37,4.22,.47,7.62-.23,11.41-1.62m74.99,23.84c-3.04-2.79-4.65-7.36-8.02-6.77-2.22,.39-1.02,5.15-1.33,8.05,3.1-.42,5.8-.79,9.35-1.28m-91.43-32.99c2.45-3.49,5.67-5.82,4.22-9.36-.62-1.51-4.75-1.12-5.69,.04-2.37,2.91,.77,5.51,1.46,9.32m25.6,8.09c-2.9-4.67-5.72-9.28-8.62-13.84-.4-.63-.55-2.1-1.84-1.39-1.23,.68-.97,1.71-.32,2.85,2.32,4.03,5.76,7.35,7.09,12.05,.53,1.88,2.32,1.06,3.69,.33m-15.58-9.01c-.88-2.44-1.86-4.2-3.62-5.78-1.27,2.34-2.47,4.55-3.77,6.94,2.85,.65,4.83-.79,7.4-1.16m-6.77,10.13q3.62-3.86,4.93-7.4-7.29,1-4.93,7.4m132.15,23.05h8.28q-4.06-5.5-8.28,0m-135.34-49.62c-1.14,1.93-3,3.36-2.95,6.21,2.33-.43,4.23-.78,6.24-1.16-.79-1.95-1.22-3.77-3.29-5.06"/>
      <path class="cls-45" d="M509.25,195.32c-.75,.03-2.16,.01-2.17,.1-.49,6.13-5.27,3.9-8.39,4.04-8.51,.37-17.04,.34-25.57,.36-2.17,0-4.57,.65-6.96-1.78,9.49,.73,18.32-.42,27.21-1.07-6.31-2.73-12.9-1.56-19.36-1.75-4.49-.13-9,.12-13.48,.4-4.49,.28-7.4-2.27-10.23-5.17-9.42-9.64-16.5-9.71-26.11-.13-2.1,2.09-4.35,3.25-7.3,3.73-8.26,1.34-16.6,1.33-24.9,1.88-2.99,.2-5.2-.79-5.08-4.47,.12-3.79,3.04-2.07,4.55-2.12,8.68-.31,17.34-1.63,26.06-.39,3.18,.45,8.15-4.65,8.37-8.32,.34-5.55-.19-11.29,1.05-16.63,3.67-15.75,4.25-31.69,4.42-47.71,.01-1.25,.78-2.49,1.24-3.84,2.32,2.05,1.75,4.68,1.72,7.04-.13,11.9,.1,23.79,1.19,35.64,.05,.55-.2,1.35,.09,1.64,4.23,4.24,2.99,5.83-2.56,5.51-.97-.06-2.21,.39-1.95,1.46,.34,1.38,1.05,2.94,2.11,3.78,.77,.61,2.61,.98,3.36-.69,.4-.88,.59-1.81,1.86-1.57q2.64,14.13,8.83,15.52c-2.37-6.57,2.51-10.31,5.31-15.5,1.69,1.76,1.4,4.29,3.23,5.47,.28-.06,.86-.05,.91-.21,.63-2.08,.51-5.12,3.49-4.99,3.23,.14,2.32,3.62,2.59,5.42,.49,3.28,1.9,6.61,.77,10.06-2.2,0-1.5-1.73-1.83-2.84-.6-2.04,.83-5.56-3.39-5.06-4.23,.5-1.93,3.76-2.13,5.8-.3,3.13,.75,6.49-1.98,9.07,1.04-6,.4-11.86-1.12-17.93-1.96,2.23-.95,14.91,1.15,17.92,2.71,1.42,5.42,.32,8.23,.2,.02-3.06-3.93-2.97-4.11-5.62,.3-.17,.77-.49,.8-.45,7.54,9.1,18.65,7.12,28.28,7.88,4.32,.34,9.82-2.54,14.65-1.56,2.96,.6,6.71,2.47,7.62,6.52-.15,.13-.3,.26-.45,.38m-76.01-25.64c-1.51-.03-3.88-.46-3.13,1.7,.65,1.89,.79,5.11,3.5,5.33,2.51,.21,2.68-2.98,3.19-4.47,1.01-2.97-2.18-1.94-3.56-2.56"/>
      <path class="cls-15" d="M158.58,223.21c5.56-3.79,11.99-4.22,18.33-3.92,9.69,.47,19.27,.05,28.88-1.23,5.99-.8,12.02-.89,18.06,.61,3.05,.75,6.47,.73,9.61,.28,18.73-2.7,37.51,2.39,56.11-.15,12.96-1.76,25.74,2.06,38.46,.03,14.99-2.4,29.82-1.18,44.72,.24,.93,.09,1.87,.23,2.78,.46,.23,.06,.34,.56,.88,1.53-5.38-.4-10.39-.52-15.32-1.19-10.03-1.36-20.04-1.25-29.99,.33-7.58,1.2-15.16-.31-22.59,.11-23.86,1.35-47.68-1.03-71.49,.25-4.56,.24-9.06,.71-13.56-.3-5.99-1.34-11.94-1.34-18.03-.4-9.38,1.44-18.85,1.67-28.34,1.28-6.22-.25-12.4,.15-18.53,2.07"/>
      <path class="cls-14" d="M586.15,224.47c-5.54,1.85-11.16,.63-16.7-.2-20.71-3.09-41.39-2.8-62.11-.35-13.78,1.63-27.45,2.29-41.11-1.4-16.78-4.53-33.45-.91-50.09,1.45-5.98,.85-11.92,1.12-17.75-1.49,8.31,1.41,16.47,.21,24.53-1.28,18.34-3.39,36.28-2.23,54.54,1.72,13.34,2.88,27.08-1.23,40.64-1.8,17.29-.72,34.7-1.89,51.95,1.43,5.29,1.02,10.72,1.3,16.09,1.91"/>
      <path class="cls-23" d="M195.33,7.37c22.09-14.04,51.54-6.99,54.3,12.52,5.56-1.7,11.18-2.85,17.01-2.33,6.87,.62,13.18,2.12,16.1,9.36,1.33,3.31,4.13,2.22,6.31,2.09,10.96-.62,14.93,.92,20.33,14.6,2.42,6.13,1.01,11.04-4.12,15.18-3.42,2.76-7.11,5.25-11.47,6.48,1.43-2.63,4.19-3.42,6.44-4.86,7.67-4.93,9.73-9,7.76-15.73-2.93-10.05-8.36-15.09-17.03-14.13-5.67,.63-9.23-.22-11.59-5.79-1.29-3.05-4.77-4.08-7.99-4.81-8.7-1.99-12.25-1.25-27.39,6.02,3.46-4.46,5.24-8.48,2.07-12.73-4.9-6.57-11.78-9.9-19.64-11.3-9.03-1.61-17.66,.16-26.04,3.57-1.66,.68-3.37,1.24-5.06,1.85"/>
      <path class="cls-1" d="M150.13,85.7c3.82,1.79,7.6,3.69,11.47,5.36,10.51,4.52,21.06,6.03,31.56-.09,1.83-1.06,3.48-1.27,4.97,.68,3.6,4.72,8.85,5.19,13.9,4.18,6.14-1.22,12-.6,17.97,.55,2.4,.46,4.86,.86,7.3,.86,11.53,0,22.89-2.15,34.37-2.97,9.08-.65,17.09-7.62,27.19-5.49,2.45,.52,5.67-1.78,8.31-3.21,2.92-1.57,6-3.36,4.02-8.4,4.11,3,2.75,5.49,.62,7.18-6.27,4.98-13.27,8.14-21.51,5.99-1.98-.51-3.45-.87-5.15,.58-4.36,3.72-9.71,5.61-15.2,5.35-12.16-.59-23.97,4.09-36.1,2.21-8.64-1.34-17.21-1.99-25.92-.93-2.58,.31-5.79,.28-7.54-1.76-3.53-4.12-6.68-2.83-11.04-1.27-14.66,5.27-27.39-.37-39.25-8.83"/>
      <path class="cls-12" d="M639.65,110.7c-6.87,2.04-13.99,2.27-20.57-.74-4.92-2.26-9.69-2.7-14.84-2.06-4.37,.54-8.7,.24-12.83-1.43-3.76-1.52-6.87-4.14-6.79-8.25,.08-4.25-1.7-4.42-4.99-4.13-3.18,.28-6.47,.33-9.62-.14-8.96-1.32-12.77-8.59-8.89-16.69,2.18-4.57,5.53-8.13,9.93-10.62,9.22-5.22,19.48-6.64,30.04-7.41-1.75,.51-3.49,1.1-5.26,1.53-2.02,.49-4.06,.9-6.1,1.26-5.24,.91-10.3,2.37-15.12,4.64-4,1.89-7.51,4.41-10.05,8.1-2.56,3.71-4.52,7.79-2.37,12.2,2.24,4.6,6.67,5.81,11.49,5.81,.95,0,1.9,.07,2.84-.01,5.17-.47,10.49-2.55,10.36,6.72-.07,4.96,6.06,6.75,10.57,6.72,9.4-.05,18.6-.29,27.57,3.56,4.48,1.93,9.64,1.1,14.64,.94"/>
      <path class="cls-59" d="M199.14,205.36c2.8-1.82,5.43-.36,7.82,.06,15.71,2.79,31.37-.4,47.05-.06,3.58,.08,7.15,.64,10.72,.98,1.21,.12,2.34,.56,2.38,1.93,.05,1.63-1.36,1.69-2.43,1.57-21.69-2.44-43.89,3.52-65.53-4.49"/>
      <path class="cls-2" d="M28.89,99.48c8.52,.63,17.09,3.34,25.56,1.23,7.86-1.96,15.26-2.35,23.21-.35,5.71,1.43,11.89,1.03,17.83,1.98-8.5,.99-16.95,.59-25.22-1.48-3.02-.75-5.6-.96-8.63,.08-11.07,3.8-21.97,2.09-32.74-1.46"/>
      <path class="cls-57" d="M193.73,135.93c-24.08-5.4-48.58-.67-72.74-3.09,13.59-3.1,64.02-.96,72.74,3.09"/>
      <path class="cls-26" d="M155.28,207.32h-51.88c0-.57,.01-1.15,.02-1.72,17.31-.9,34.58,.68,51.85,1.72"/>
      <path class="cls-30" d="M237.72,132.85c17.03-7.09,34.85-2.5,52.25-4.05-17.25,3.56-35.14-1.14-52.25,4.05"/>
      <path class="cls-52" d="M404.06,203.92c17.94-4.33,35.79,3.91,53.73,.8-17.94,4.4-35.8-2.92-53.73-.8"/>
      <path class="cls-39" d="M606.75,206.3c16.75-1.73,33.41-.62,50.03,1.78-16.68-.57-33.34-1.58-50.03-1.78"/>
      <path class="cls-9" d="M462.16,206.11c12.34-5.13,25.31-1.95,38.05-2.38-12.53,2.43-25.52-.96-38.05,2.38"/>
      <path class="cls-49" d="M415.69,184.81c-3.26,.59-6.75,2.49-10.42-.84-1.69-1.53-3.84,.44-5.78,1.06-4.05,1.29-8.39,3.1-10.85-2.46,9.02,2.47,18.48-3.95,27.05,2.24"/>
      <path class="cls-58" d="M420.67,197.94c-11.55,.36-23.1,.45-34.65,.63,11.55-.73,23.05-3.42,34.65-.63"/>
      <path class="cls-24" d="M124.73,167.08c-.55-1.47-.67-2.03-.95-2.49-1.16-1.9-2.73-1.82-4.74-1.34-2.19,.52-2.05,1.88-1.89,3.38,.1,.91,.7,2-.81,2.04-.88,.02-1.83-.38-2.64-.8-1.13-.59-1.12-1.8-.07-2.12,2.51-.77-.29-4.45,2.18-4.34,3.3,.14,6.78-2.26,10.02,.65,.9,.81,1.2,1.27,.7,2.21-.44,.83-1,1.59-1.79,2.81"/>
      <path class="cls-10" d="M442.3,211.31c-8.44-.13-16.96-.46-25.49-.99,8.52-1.89,16.96-.18,25.49,.99"/>
      <path class="cls-11" d="M456.34,198.24c-8.64,1.8-17.33,1.88-26.05,.42,8.7,.22,17.35-.97,26.05-.42"/>
      <path class="cls-22" d="M465.69,179.09c3.11-2.67,5.88-3.44,7.77,.7,.66,1.45,1.15,2.23,3.16,2.17,2.38-.07,2.48,2.14,2.64,5.74-1.77-2.92-2.65-5.03-5.13-3.37-.95,.64-1.91-.02-1.86-1.21,.2-5.18-3.09-4.56-6.59-4.03"/>
      <path class="cls-56" d="M41.98,170.38c-1.58-1.6-4.5-.52-5.93-3.01,1.22-1.05,5.12,.97,3.71-2.96,2.33,.38,4.42-.63,6.6-1.13-.24,1.48,1.33,1.88,1.68,2.76,.34,.88-1.33,.95-2.11,1.35-1.56,.79-4.59-.36-4.07,3.15,0,.01,.12-.16,.12-.16"/>
      <path class="cls-38" d="M237.1,164.62c-4.14,3.22-8.7-1.21-13.29-.31,2.33-2.97,6.27-.43,8.52-3.18,.08-.1,.92,.28,.92,.3-1.85,6.94,3.92-1.04,3.85,3.19"/>
      <path class="cls-20" d="M105.18,132.64h-7.53c-.7-1.61,.97-2.24,1.16-3.44,.26-1.69-.17-4.54,2.37-4.27,3.24,.34,.54,2.9,.97,4.33,.31,1.03,1.54,1.78,3.04,3.38"/>
      <path class="cls-21" d="M295.34,153.72c-1.38,.14-2.76,.28-4.15,.42-1.86-.16-3.02,2.3-5.09,1.37,1.2-4.7,5.94-4.1,9.11-5.71,.55-.28-.1,2.55,.12,3.92"/>
      <path class="cls-29" d="M342.43,67.88c-.02,3.27-2.86,4.47-4.79,7.01-1.2-2.19,1.18-3.08,1.05-4.32-1.41-1.01-2.49,1.44-3.99-.38,2.41-1.78,4.76-3.19,7.91-2.13,0,0-.18-.18-.18-.18"/>
      <path class="cls-7" d="M542.11,197.54c-2.23-2.3-1.33-5.28-2.53-8.04-.7,1.91-1.31,3.56-1.91,5.21-1.09-3.8,.09-7.1,1.39-11.36,4.43,4.61,2.85,9.66,3.05,14.19"/>
      <path class="cls-53" d="M520.35,198.84c1.06-5.23,1.87-9.22,2.68-13.21,.2-.98,.59-1.86,1.73-1.85,1.56,.02,1.64,1.28,1.65,2.4,.04,3.53,.01,7.05,.01,10.95-2.3-2.23-.28-5.2-1.95-7.46-2.36,2.32-.45,6.09-4.12,9.17"/>
      <path class="cls-36" d="M548.31,198c.85-5.05,1.71-10.1,2.56-15.15,.46,.07,.93,.14,1.39,.21,.09,5.14-1.27,10.09-2.37,15.07-.53-.04-1.06-.08-1.58-.13"/>
      <g class="cls-51">
        <rect class="cls-25" x="150.33" y="-270.91" width="367.34" height="767.69" transform="translate(221.06 446.94) rotate(-90)"/>
      </g>
    </g>
  </g>
</svg>