<?xml version="1.0" encoding="UTF-8"?>
<svg id="_Слой_2" data-name="Слой 2" xmlns="http://www.w3.org/2000/svg" xmlns:xlink="http://www.w3.org/1999/xlink" viewBox="0 0 733.58 246.46">
  <defs>
    <style>
      .cls-1 {
        fill: url(#_Безымянный_градиент_8-30);
      }

      .cls-2 {
        fill: url(#_Безымянный_градиент_8-20);
      }

      .cls-3 {
        fill: url(#_Безымянный_градиент_8-27);
      }

      .cls-4 {
        fill: url(#_Безымянный_градиент_8-29);
      }

      .cls-5 {
        fill: url(#_Безымянный_градиент_8-5);
      }

      .cls-6 {
        fill: url(#_Безымянный_градиент_8-9);
      }

      .cls-7 {
        fill: url(#_Безымянный_градиент_8-24);
      }

      .cls-8 {
        fill: url(#_Безымянный_градиент_8-37);
      }

      .cls-9 {
        fill: url(#_Безымянный_градиент_8-45);
      }

      .cls-10 {
        fill: url(#_Безымянный_градиент_8-41);
      }

      .cls-11 {
        fill: url(#_Безымянный_градиент_8-56);
      }

      .cls-12 {
        fill: url(#_Безымянный_градиент_8-38);
      }

      .cls-13 {
        fill: url(#_Безымянный_градиент_8-52);
      }

      .cls-14 {
        fill: url(#_Безымянный_градиент_8-14);
      }

      .cls-15 {
        fill: url(#_Безымянный_градиент_8-13);
      }

      .cls-16 {
        fill: url(#_Безымянный_градиент_8-11);
      }

      .cls-17 {
        fill: url(#_Безымянный_градиент_8-53);
      }

      .cls-18 {
        fill: url(#_Безымянный_градиент_8);
      }

      .cls-19 {
        fill: url(#_Безымянный_градиент_8-8);
      }

      .cls-20 {
        fill: url(#_Безымянный_градиент_8-55);
      }

      .cls-21 {
        fill: url(#_Безымянный_градиент_8-18);
      }

      .cls-22 {
        fill: url(#_Безымянный_градиент_8-22);
      }

      .cls-23 {
        fill: url(#_Безымянный_градиент_8-60);
      }

      .cls-24 {
        fill: url(#_Безымянный_градиент_8-28);
      }

      .cls-25 {
        fill: url(#_Безымянный_градиент_8-31);
      }

      .cls-26 {
        fill: url(#_Безымянный_градиент_8-39);
      }

      .cls-27 {
        fill: url(#_Безымянный_градиент_8-32);
      }

      .cls-28 {
        fill: url(#_Безымянный_градиент_8-21);
      }

      .cls-29 {
        fill: url(#_Безымянный_градиент_8-59);
      }

      .cls-30 {
        fill: url(#_Безымянный_градиент_8-58);
      }

      .cls-31 {
        fill: url(#_Безымянный_градиент_8-35);
      }

      .cls-32 {
        fill: url(#_Безымянный_градиент_8-4);
      }

      .cls-33 {
        fill: url(#_Безымянный_градиент_8-10);
      }

      .cls-34 {
        fill: url(#_Безымянный_градиент_8-48);
      }

      .cls-35 {
        fill: url(#_Безымянный_градиент_8-40);
      }

      .cls-36 {
        fill: url(#_Безымянный_градиент_8-63);
      }

      .cls-37 {
        fill: url(#_Безымянный_градиент_8-16);
      }

      .cls-38 {
        fill: url(#_Безымянный_градиент_8-51);
      }

      .cls-39 {
        fill: url(#_Безымянный_градиент_8-46);
      }

      .cls-40 {
        fill: url(#_Безымянный_градиент_8-19);
      }

      .cls-41 {
        fill: url(#_Безымянный_градиент_8-15);
      }

      .cls-42 {
        fill: url(#_Безымянный_градиент_8-33);
      }

      .cls-43 {
        fill: url(#_Безымянный_градиент_8-64);
      }

      .cls-44 {
        fill: url(#_Безымянный_градиент_8-49);
      }

      .cls-45 {
        fill: url(#_Безымянный_градиент_8-61);
      }

      .cls-46 {
        fill: url(#_Безымянный_градиент_8-17);
      }

      .cls-47 {
        fill: url(#_Безымянный_градиент_8-43);
      }

      .cls-48 {
        fill: url(#_Безымянный_градиент_8-62);
      }

      .cls-49 {
        fill: url(#_Безымянный_градиент_8-50);
      }

      .cls-50 {
        fill: url(#_Безымянный_градиент_8-2);
      }

      .cls-51 {
        fill: url(#_Безымянный_градиент_8-36);
      }

      .cls-52 {
        fill: url(#_Безымянный_градиент_8-25);
      }

      .cls-53 {
        fill: url(#_Безымянный_градиент_8-7);
      }

      .cls-54 {
        fill: url(#_Безымянный_градиент_8-47);
      }

      .cls-55 {
        fill: url(#_Безымянный_градиент_8-6);
      }

      .cls-56 {
        fill: url(#_Безымянный_градиент_8-57);
      }

      .cls-57 {
        fill: url(#_Безымянный_градиент_8-44);
      }

      .cls-58 {
        fill: url(#_Безымянный_градиент_8-26);
      }

      .cls-59 {
        fill: url(#_Безымянный_градиент_8-34);
      }

      .cls-60 {
        fill: url(#_Безымянный_градиент_8-3);
      }

      .cls-61 {
        fill: url(#_Безымянный_градиент_8-12);
      }

      .cls-62 {
        fill: url(#_Безымянный_градиент_8-23);
      }

      .cls-63 {
        fill: url(#_Безымянный_градиент_8-42);
      }

      .cls-64 {
        fill: url(#_Безымянный_градиент_8-54);
      }
    </style>
    <linearGradient id="_Безымянный_градиент_8" data-name="Безымянный градиент 8" x1="0" y1="123.1" x2="733.58" y2="123.1" gradientUnits="userSpaceOnUse">
      <stop offset="0" stop-color="#fff1a4"/>
      <stop offset=".35" stop-color="#f8dd7b"/>
      <stop offset="1" stop-color="#b37e10"/>
    </linearGradient>
    <linearGradient id="_Безымянный_градиент_8-2" data-name="Безымянный градиент 8" x1="248.56" y1="195.62" x2="488.86" y2="195.62" xlink:href="#_Безымянный_градиент_8"/>
    <linearGradient id="_Безымянный_градиент_8-3" data-name="Безымянный градиент 8" x1="700.67" y1="208.74" x2="707.65" y2="208.74" xlink:href="#_Безымянный_градиент_8"/>
    <linearGradient id="_Безымянный_градиент_8-4" data-name="Безымянный градиент 8" x1="173.58" y1="244.58" x2="236.75" y2="244.58" xlink:href="#_Безымянный_градиент_8"/>
    <linearGradient id="_Безымянный_градиент_8-5" data-name="Безымянный градиент 8" x1="690.66" y1="208.18" x2="697.42" y2="208.18" xlink:href="#_Безымянный_градиент_8"/>
    <linearGradient id="_Безымянный_градиент_8-6" data-name="Безымянный градиент 8" x1="634.88" y1="210.24" x2="641.23" y2="210.24" xlink:href="#_Безымянный_градиент_8"/>
    <linearGradient id="_Безымянный_градиент_8-7" data-name="Безымянный градиент 8" x1="681.84" y1="209.25" x2="687.75" y2="209.25" xlink:href="#_Безымянный_градиент_8"/>
    <linearGradient id="_Безымянный_градиент_8-8" data-name="Безымянный градиент 8" x1="696.91" y1="181.9" x2="702.2" y2="181.9" xlink:href="#_Безымянный_градиент_8"/>
    <linearGradient id="_Безымянный_градиент_8-9" data-name="Безымянный градиент 8" x1="643.24" y1="209.78" x2="648.53" y2="209.78" xlink:href="#_Безымянный_градиент_8"/>
    <linearGradient id="_Безымянный_градиент_8-10" data-name="Безымянный градиент 8" x1="658.61" y1="210.17" x2="664.05" y2="210.17" xlink:href="#_Безымянный_градиент_8"/>
    <linearGradient id="_Безымянный_градиент_8-11" data-name="Безымянный градиент 8" x1="703.17" y1="180.67" x2="708.71" y2="180.67" xlink:href="#_Безымянный_градиент_8"/>
    <linearGradient id="_Безымянный_градиент_8-12" data-name="Безымянный градиент 8" x1="675.94" y1="209.59" x2="680.57" y2="209.59" xlink:href="#_Безымянный_градиент_8"/>
    <linearGradient id="_Безымянный_градиент_8-13" data-name="Безымянный градиент 8" x1="356.87" y1="197.99" x2="361.94" y2="197.99" xlink:href="#_Безымянный_градиент_8"/>
    <linearGradient id="_Безымянный_градиент_8-14" data-name="Безымянный градиент 8" x1="616.62" y1="211.54" x2="621.26" y2="211.54" xlink:href="#_Безымянный_градиент_8"/>
    <linearGradient id="_Безымянный_градиент_8-15" data-name="Безымянный градиент 8" x1="667.01" y1="211.6" x2="671.75" y2="211.6" xlink:href="#_Безымянный_градиент_8"/>
    <linearGradient id="_Безымянный_градиент_8-16" data-name="Безымянный градиент 8" x1="232.93" y1="198.67" x2="237.84" y2="198.67" xlink:href="#_Безымянный_градиент_8"/>
    <linearGradient id="_Безымянный_градиент_8-17" data-name="Безымянный градиент 8" x1="393.91" y1="185.19" x2="398.46" y2="185.19" xlink:href="#_Безымянный_градиент_8"/>
    <linearGradient id="_Безымянный_градиент_8-18" data-name="Безымянный градиент 8" x1="466.71" y1="185.71" x2="471.73" y2="185.71" xlink:href="#_Безымянный_градиент_8"/>
    <linearGradient id="_Безымянный_градиент_8-19" data-name="Безымянный градиент 8" x1="628.23" y1="210.75" x2="632.34" y2="210.75" xlink:href="#_Безымянный_градиент_8"/>
    <linearGradient id="_Безымянный_градиент_8-20" data-name="Безымянный градиент 8" x1="432.79" y1="184.69" x2="438.01" y2="184.69" xlink:href="#_Безымянный_градиент_8"/>
    <linearGradient id="_Безымянный_градиент_8-21" data-name="Безымянный градиент 8" x1="439.86" y1="184.38" x2="444.95" y2="184.38" xlink:href="#_Безымянный_градиент_8"/>
    <linearGradient id="_Безымянный_градиент_8-22" data-name="Безымянный градиент 8" x1="482.59" y1="184.28" x2="487.35" y2="184.28" xlink:href="#_Безымянный_градиент_8"/>
    <linearGradient id="_Безымянный_градиент_8-23" data-name="Безымянный градиент 8" x1="651.95" y1="209.39" x2="655.88" y2="209.39" xlink:href="#_Безымянный_градиент_8"/>
    <linearGradient id="_Безымянный_градиент_8-24" data-name="Безымянный градиент 8" x1="458.78" y1="184.36" x2="463.1" y2="184.36" xlink:href="#_Безымянный_градиент_8"/>
    <linearGradient id="_Безымянный_градиент_8-25" data-name="Безымянный градиент 8" x1="421.15" y1="184.61" x2="425.88" y2="184.61" xlink:href="#_Безымянный_градиент_8"/>
    <linearGradient id="_Безымянный_градиент_8-26" data-name="Безымянный градиент 8" x1="373.39" y1="185.34" x2="378.23" y2="185.34" xlink:href="#_Безымянный_градиент_8"/>
    <linearGradient id="_Безымянный_градиент_8-27" data-name="Безымянный градиент 8" x1="365.48" y1="184.84" x2="369.98" y2="184.84" xlink:href="#_Безымянный_градиент_8"/>
    <linearGradient id="_Безымянный_градиент_8-28" data-name="Безымянный градиент 8" x1="573.65" y1="191.24" x2="582.66" y2="191.24" xlink:href="#_Безымянный_градиент_8"/>
    <linearGradient id="_Безымянный_градиент_8-29" data-name="Безымянный градиент 8" x1="531.36" y1="213.24" x2="537.37" y2="213.24" xlink:href="#_Безымянный_градиент_8"/>
    <linearGradient id="_Безымянный_градиент_8-30" data-name="Безымянный градиент 8" x1="553.77" y1="213.89" x2="559.82" y2="213.89" xlink:href="#_Безымянный_градиент_8"/>
    <linearGradient id="_Безымянный_градиент_8-31" data-name="Безымянный градиент 8" x1="474.83" y1="213.99" x2="480.41" y2="213.99" xlink:href="#_Безымянный_градиент_8"/>
    <linearGradient id="_Безымянный_градиент_8-32" data-name="Безымянный градиент 8" x1="538.7" y1="214.1" x2="544.8" y2="214.1" xlink:href="#_Безымянный_градиент_8"/>
    <linearGradient id="_Безымянный_градиент_8-33" data-name="Безымянный градиент 8" x1="440.41" y1="214.17" x2="446.32" y2="214.17" xlink:href="#_Безымянный_градиент_8"/>
    <linearGradient id="_Безымянный_градиент_8-34" data-name="Безымянный градиент 8" x1="430.47" y1="214.26" x2="436.08" y2="214.26" xlink:href="#_Безымянный_градиент_8"/>
    <linearGradient id="_Безымянный_градиент_8-35" data-name="Безымянный градиент 8" x1="491.44" y1="213.89" x2="497.48" y2="213.89" xlink:href="#_Безымянный_градиент_8"/>
    <linearGradient id="_Безымянный_градиент_8-36" data-name="Безымянный градиент 8" x1="546.3" y1="213.08" x2="551.99" y2="213.08" xlink:href="#_Безымянный_градиент_8"/>
    <linearGradient id="_Безымянный_градиент_8-37" data-name="Безымянный градиент 8" x1="291.56" y1="213.39" x2="297.07" y2="213.39" xlink:href="#_Безымянный_градиент_8"/>
    <linearGradient id="_Безымянный_градиент_8-38" data-name="Безымянный градиент 8" x1="465.53" y1="213.86" x2="471.38" y2="213.86" xlink:href="#_Безымянный_градиент_8"/>
    <linearGradient id="_Безымянный_градиент_8-39" data-name="Безымянный градиент 8" x1="456.39" y1="214.35" x2="462.06" y2="214.35" xlink:href="#_Безымянный_градиент_8"/>
    <linearGradient id="_Безымянный_градиент_8-40" data-name="Безымянный градиент 8" x1="515.94" y1="212.61" x2="521.05" y2="212.61" xlink:href="#_Безымянный_градиент_8"/>
    <linearGradient id="_Безымянный_градиент_8-41" data-name="Безымянный градиент 8" x1="508.61" y1="213.04" x2="513.9" y2="213.04" xlink:href="#_Безымянный_градиент_8"/>
    <linearGradient id="_Безымянный_градиент_8-42" data-name="Безымянный градиент 8" x1="382.87" y1="214.76" x2="388.21" y2="214.76" xlink:href="#_Безымянный_градиент_8"/>
    <linearGradient id="_Безымянный_градиент_8-43" data-name="Безымянный градиент 8" x1="524.72" y1="213.41" x2="529.65" y2="213.41" xlink:href="#_Безымянный_градиент_8"/>
    <linearGradient id="_Безымянный_градиент_8-44" data-name="Безымянный градиент 8" x1="500.9" y1="213.18" x2="506.32" y2="213.18" xlink:href="#_Безымянный_градиент_8"/>
    <linearGradient id="_Безымянный_градиент_8-45" data-name="Безымянный градиент 8" x1="391.47" y1="214.29" x2="397.12" y2="214.29" xlink:href="#_Безымянный_градиент_8"/>
    <linearGradient id="_Безымянный_градиент_8-46" data-name="Безымянный градиент 8" x1="309.93" y1="213.79" x2="314.39" y2="213.79" xlink:href="#_Безымянный_градиент_8"/>
    <linearGradient id="_Безымянный_градиент_8-47" data-name="Безымянный градиент 8" x1="364.65" y1="215.13" x2="369.02" y2="215.13" xlink:href="#_Безымянный_градиент_8"/>
    <linearGradient id="_Безымянный_градиент_8-48" data-name="Безымянный градиент 8" x1="421.5" y1="214.48" x2="425.78" y2="214.48" xlink:href="#_Безымянный_градиент_8"/>
    <linearGradient id="_Безымянный_градиент_8-49" data-name="Безымянный градиент 8" x1="483.84" y1="213.36" x2="488.31" y2="213.36" xlink:href="#_Безымянный_градиент_8"/>
    <linearGradient id="_Безымянный_градиент_8-50" data-name="Безымянный градиент 8" x1="232.95" y1="213.93" x2="237.31" y2="213.93" xlink:href="#_Безымянный_градиент_8"/>
    <linearGradient id="_Безымянный_градиент_8-51" data-name="Безымянный градиент 8" x1="449.7" y1="214.44" x2="453.86" y2="214.44" xlink:href="#_Безымянный_градиент_8"/>
    <linearGradient id="_Безымянный_градиент_8-52" data-name="Безымянный градиент 8" x1="644.09" y1="181.1" x2="649.82" y2="181.1" xlink:href="#_Безымянный_градиент_8"/>
    <linearGradient id="_Безымянный_градиент_8-53" data-name="Безымянный градиент 8" x1="660.02" y1="184.92" x2="664.49" y2="184.92" xlink:href="#_Безымянный_градиент_8"/>
    <linearGradient id="_Безымянный_градиент_8-54" data-name="Безымянный градиент 8" x1="651.68" y1="184.63" x2="655.45" y2="184.63" xlink:href="#_Безымянный_градиент_8"/>
    <linearGradient id="_Безымянный_градиент_8-55" data-name="Безымянный градиент 8" x1="667.78" y1="170" x2="672.24" y2="170" xlink:href="#_Безымянный_градиент_8"/>
    <linearGradient id="_Безымянный_градиент_8-56" data-name="Безымянный градиент 8" x1="667.9" y1="186.48" x2="672.34" y2="186.48" xlink:href="#_Безымянный_градиент_8"/>
    <linearGradient id="_Безымянный_градиент_8-57" data-name="Безымянный градиент 8" x1="571.82" y1="216.18" x2="576.12" y2="216.18" xlink:href="#_Безымянный_градиент_8"/>
    <linearGradient id="_Безымянный_градиент_8-58" data-name="Безымянный градиент 8" x1="67.68" y1="212.66" x2="86.51" y2="212.66" xlink:href="#_Безымянный_градиент_8"/>
    <linearGradient id="_Безымянный_градиент_8-59" data-name="Безымянный градиент 8" x1="69.45" y1="207.08" x2="87.81" y2="207.08" xlink:href="#_Безымянный_градиент_8"/>
    <linearGradient id="_Безымянный_градиент_8-60" data-name="Безымянный градиент 8" x1="627.03" y1="174.26" x2="630.57" y2="174.26" xlink:href="#_Безымянный_градиент_8"/>
    <linearGradient id="_Безымянный_градиент_8-61" data-name="Безымянный градиент 8" x1="685.55" y1="181.38" x2="689.61" y2="181.38" xlink:href="#_Безымянный_градиент_8"/>
    <linearGradient id="_Безымянный_градиент_8-62" data-name="Безымянный градиент 8" x1="684.78" y1="169.18" x2="689.38" y2="169.18" xlink:href="#_Безымянный_градиент_8"/>
    <linearGradient id="_Безымянный_градиент_8-63" data-name="Безымянный градиент 8" x1="577.64" y1="183.85" x2="585.96" y2="183.85" xlink:href="#_Безымянный_градиент_8"/>
    <linearGradient id="_Безымянный_градиент_8-64" data-name="Безымянный градиент 8" x1="676.03" y1="182.26" x2="680.4" y2="182.26" xlink:href="#_Безымянный_градиент_8"/>
  </defs>
  <g id="_Слой_1-2" data-name="Слой 1">
    <g>
      <path class="cls-18" d="M625.09,147.57c2.81-2.43,4.61-3.09,9.12-1.24,3.81,1.56,11.93,3.03,15.9-3.9,.74-1.29,2.64-2.48,4.44-1.25,1.97,1.36-1.24,2.32-.31,4.11,2.15-2.14,7.19,1.76,7.74-4.34,.07-.75,4.05-1.23,6.26-1.66,1.86-.36,4.41-2.92,5.09,1.43,.14,.87,1.24,.3,1.89,.17,7.73-1.6,15.71-1.88,23.6-4.22-2.23-1.87-4.64,.5-6.75-1.08,1.92-2.77,5.85-1.29,7.9-3.76,.68-.82,1.38,.33,1.58,.93,1.57,4.71,5.21,3.52,8.41,2.79,4.96-1.13,10.06-1.72,14.78-3.87,1.61-.73,3.69-.9,4.26,1.26,.49,1.86-1.5,2.22-2.83,2.92-2.69,1.41-5.47,2.52-8.47,3.01-10.32,1.7-18.92,8-29.2,10.3-33.67,7.51-67.52,13.77-101.97,15.77-28.17,1.64-56.43,1.78-84.62,3.17-54.5,2.7-109,5.24-163.58,5.62-11.35,.08-22.7,1.35-34.05,1.48-25.17,.3-50.36,.83-75.49-1.33-1.69-.14-4.1-1.01-4.21,2.12-.1,2.91,2.25,1.76,3.68,2.12,5.75,1.43,11.68,.78,17.49,1.67-5.77,.91-11.55,.51-17.29-.36-2.82-.43-4.22,0-4.02,3.31,.25,4.13,.06,8.28,.06,12.92,3.46-1.64,4.84-3.44,2.33-6.53-1.32-1.63-1.7-3.36-.78-5.27,.43-.89,1.1-1.59,2.18-1.5,1.08,.09,1.75,.84,1.78,1.86,.16,5.07,.28,10.13,.32,15.2,.01,1.19-.56,2.24-1.94,2.38-2.37,.24-1.87-2.54-3.47-3.35-1.44,4,.22,5.49,4.06,5.46,4.34-.04,8.68,0,13.08,0-.19-3.1-.61-5.95,.26-8.72,.31-.99,.38-2.51,1.96-2.32,1.38,.16,1.67,1.45,1.71,2.57,.09,2.64,.03,5.28,.03,8.18,2.23-.12,5.3,1.08,3.69-3.44-.35-.99-.16-2.29,.11-3.37,.3-1.19,.45-2.92,2.22-2.75,1.19,.11,1.64,1.4,1.93,2.5,.15,.55,.02,1.21,.29,1.67,.88,1.51-2.26,4.83,1.68,4.69,2.98-.11,1.29-2.97,1.49-4.59,.23-1.84,.59-3.7,2.67-3.69,1.87,.01,1.94,1.97,2.13,3.47,.07,.56,.1,1.13,.15,1.7,.13,1.46-.16,3.18,2.21,3.13,2.36-.05,1.96-1.63,2.04-3.18,.08-1.69-.99-4.37,1.92-4.42,2.23-.04,1.94,2.56,2.2,4.03,.37,2.09,.54,3.56,3.33,3.23,2.92-.35,1.88-2.21,1.82-3.74-.08-1.95,.25-3.7,2.14-5.48,1.32,2.08,2.26,3.98,1.75,6.22-.34,1.49-.65,2.72,1.45,2.54,1.31-.11,3.16,.84,3.57-1.58,.37-2.14,.34-4.52,2.7-6.02,2.1,1.37,.47,3.52,1.15,5.12,.37,.89-.49,2.34,1.39,2.4,1.74,.05,1.54-1.25,1.7-2.33,.06-.37,.07-.76,.16-1.13,.4-1.59,.25-4.09,2.37-3.93,2.27,.17,1.86,2.65,1.48,4.19-.91,3.64,1.29,3.7,3.76,3.63,1.44-.04,2.58-.23,2.39-2.23-.2-1.97,.7-3.63,2.49-5.19,1.89,1.5,1.76,3.52,1.64,5.51-.13,2.11,1.33,1.89,2.66,1.9,1.59,0,2.64-.35,1.88-2.32-.25-.66-.33-1.56-.08-2.2,.55-1.4-.56-4,2.04-3.97,2.54,.03,1.48,2.56,2.06,3.98,.58,1.42-1.7,4.14,1.86,4.2,3.71,.07,2.09-2.72,2.34-4.48,.22-1.59-.35-3.82,2.3-3.65,2.3,.15,2.31,2.1,2.33,3.85,0,.95-.03,1.9,0,2.84,.07,1.8,1.4,2.02,2.78,2.13,2.01,.15,1.77-1.11,1.89-2.56,.19-2.31-1.69-6.29,2.43-6.23,3.26,.05,2.5,3.76,2.27,6.01-.26,2.53,.85,2.88,2.86,2.88,2.04,0,3.85,.24,2.93-2.95-.38-1.3,.39-2.93,.61-4.41,.14-.97,.31-2.01,1.54-1.97,1.12,.04,1.49,1.05,1.59,2,.15,1.51,.16,3.03,.24,4.54,.07,1.26-.34,2.72,1.75,2.85,1.84,.12,2.29-.8,2.24-2.36-.01-.37,.06-.77,.2-1.11,.71-1.7-.52-5.03,2.66-4.63,2.52,.31,1.57,3.11,1.39,4.82-.28,2.69,.57,3.84,3.33,3.79,2.07-.03,4.17,.2,6.23,.48,3.64,.49,5.59-.2,4.8-4.65-.32-1.78-.76-5.33,2.68-5.12,2.83,.17,2.11,3.08,2.12,5.06,0,1.47-.25,2.94-.39,4.41,4.58,1.69,6.66,.39,6.06-4.75-.19-1.61-.91-4.55,1.92-4.32,2.44,.2,1.23,3.06,1.76,4.71,.53,1.62-2.93,4.91,1.86,4.9,1.89,0,3.35-.07,2.88-2.69-.22-1.26,.12-2.64,.31-3.95,.22-1.48,.31-3.42,2.26-3.38,2.04,.04,2.33,1.85,2.81,3.63,.54,2.04-3.49,5.39,.86,5.9,4.36,.51,1.77-3.99,2.89-6,.85-1.53,.46-4.12,3.2-3.91,2.79,.21,2.23,2.56,2.38,4.35,.08,.94-.07,1.89-.12,2.84-.08,1.42-.01,2.67,1.94,2.7,2.16,.03,2.47-1.21,2.29-2.96-.1-.94-.14-1.89-.07-2.83,.1-1.48,.03-3.45,2.06-3.41,2.23,.05,2.43,2.03,2.32,3.81-.06,.93-.36,1.85-.55,2.78-.53,2.65,1.38,2.12,2.8,2.08,1.25-.03,2.92,.09,1.7-2.06-.09-.16-.14-.36-.14-.54,0-2.43-.46-5.06,1.89-6.75,1.07-.77,2.33-.23,2.97,.78,1.54,2.45,.41,4.71-.81,6.91-.17,.31-.29,.65-.43,.98,6.75,2.72,9.32-1.08,9.84-7.36,3.21,2.22-.18,7.57,5.12,7.34,2.01-.09,4.06,.28,3.69-3.24-.24-2.27,.93-5.46,4.05-5.1,3.31,.38,2.02,3.39,1.87,5.53-.05,.75-1.32,1.78,.39,2.14,1.42,.29,2.08-.35,1.95-1.86-.08-.93,0-1.9,.16-2.83,.3-1.64,1.28-2.99,2.99-2.82,1.51,.15,2.17,1.76,1.88,3.07-1.33,6.18,3.15,4.15,6.08,4.5,3.95,.48,5.57-1.06,4.98-5.05-.22-1.48-.23-3.44,1.78-3.54,2.41-.12,2.41,2.52,3.48,3.95,.87,1.16-1.05,4.1,1.96,3.71,2.09-.27,.99-2.49,1.19-3.86,.22-1.54,.33-3.12,2.29-3.42,2.24-.34,2.73,1.42,3.57,2.92,.71,1.27-.47,3.12,1.33,4.02,1.43-.94,.4-2.46,.89-3.63,.45-1.07,.72-2.28,2.08-2.38,1.29-.1,1.96,.99,2.61,1.88,.93,1.26-.31,4.01,2.11,4.07,2.83,.07,1.14-3.11,2.44-4.34,.37-.35,.51-.94,.99-1.86,.84,1.35,1.26,1.93,1.58,2.55,.66,1.3-.72,3.75,2.18,3.78,3.32,.03,2.05-2.52,2.22-4.11,.22-2.03,.83-3.33,2.88-4.37,3.43-1.73,3.18-4.36,.19-6.37-3-2.01-2.78-3.83-.03-5.5,1.01-.61,2.99-.11,2.41-2.13-.5-1.77-2.26-.99-3.42-.92-23.94,1.36-47.92,1.4-71.86,2.36-20.65,.83-41.29,.75-61.94,.72-3.96,0-7.88-.02-11.84,.78-2.35,.47-4.48,.02-4.01,3.54,.19,1.42-.37,3.37-2.35,3.12-1.52-.2-1.32-2.02-1.59-3.29-.23-1.09,1.36-2.88-.94-3.19-2.26-.3-4.67-.64-3.14,3.23,.66,1.68,.52,4.04-1.92,4.64-2.26,.55-3.4-1.57-3.3-3.02,.41-6.45-3.92-5.44-7.75-5.26-23.27,1.08-46.54,.2-69.84-.88,7.9,0,15.8,.02,23.7,0,60.81-.2,121.59-1.24,182.36-3.84,21.18-.91,42.41-.67,63.62-1.52,29.3-1.16,58.5-3.5,87.64-6.71,29.15-3.21,58.26-6.72,87.04-12.44,5.02-1,7.58,.86,8.17,5.75,.17,1.43,.64,3.54-1.27,3.78-1.92,.24-1.89-1.85-2.09-3.32-.49-3.68-3.51-5-6.64-3.05-1.2,.74-.78,1.52-.48,2.34,.43,1.17,.96,.67,1.52,.03,1.11-1.26,2.66-2.29,3.62-.34,1.04,2.12,.24,4.8-1.17,6.32-2.09,2.25-2.45-1.51-4.3-2.54,.48,7.9,1.08,15.07,1.26,22.24,.09,3.34,1.38,3.89,4.44,3.93,2.82,.04,7.85-2.46,8.05,1.61,.16,3.17-5.06,1.38-7.84,1.63-24.94,2.21-49.9,4.21-74.84,6.42-1.69,.15-3.91-.52-5.14,1.52-.37,.61-.84,2.44-1.31,.59-.42-1.62-2.89-1.34-2.24-2.54,4.37-8.15-.57-16.32,.26-24.46,.13-1.28-.27-2.61-.51-4.65,1.87,1.25,4.56-.79,4.96,1.07,.51,2.33,.56,5.35-1.23,7.54-2.34,2.87-2.66,4.92,.78,7.49,2.21,1.65,2.19,4.82-.04,6.98-1.54,1.49-1.59,3.01-.67,4.49,.68,1.09,2.1,.21,3.18,.21,2.51,0,1.77-1.87,1.8-3.25,.15-7.77,.4-15.55-.71-23.26-.22-1.5,.76-4.9-2.32-3.8-2.79,1-8.11-2.05-8.19,4.12-.1,7.2-.02,14.4,.03,21.59,0,1.51,.42,3.08-1.37,3.91,.1-7.97,.12-15.92,.34-23.86,.1-3.58-.65-4.89-4.83-4.35-12.74,1.64-25.54,2.87-38.34,3.86-18.87,1.47-37.78,2.47-56.71,3.04-4.83,.14-11.45-1.69-14.03,1.6-2.47,3.15-1.1,9.42-1.17,14.32-.03,2.53-1.18,5.47,2.37,8.48v-22.15c4.49-.08,6.2,1.13,5.76,5.6-.48,4.86-1.07,9.94,.44,15.38,2.2-1.84,1.66-3.84,1.74-5.57,.16-3.59,.12-7.2,.17-10.8,.03-1.9-.2-3.85,2.71-3.9,3.41-.06,1.57,2.45,1.67,3.61,.29,3.38-.07,6.82,.17,10.22,.16,2.16-1.24,4.85,1.88,6.93,0-5.96,.03-11.37-.02-16.79-.02-2.11,.58-4.11,2.8-4.19,2.47-.09,2.72,2.12,2.71,4.12,0,5.43,0,10.87,0,16.3,.6,0,1.2,0,1.8,0,0-5.96-.06-11.91,.07-17.87,.02-.77-1.68-3.12,1.66-2.35,1.66,.39,4.48-.98,4.04,1.89-.95,6.2,3.16,13.54-4.78,18.47,4.76,1.27,7.08,.61,6.85-4.1-.18-3.59-.13-7.2,0-10.8,.1-2.72-1.24-7.05,3.28-6.69,3.74,.29,1.65,4.3,1.92,6.64,.57,4.85-1.27,9.92,1.65,14.62,.69-5.88,.75-11.76,.67-17.64-.04-2.64-.06-4.5,3.74-4.12,4.14,.41,2.09,2.88,1.8,4.38-1.05,5.5-.33,10.75,1.12,15.98,.59-5.33,.68-10.63,.55-15.92-.07-2.81,.89-4.26,3.83-4.25,3.13,.02,3.07,2.02,2.84,4.23-.27,2.64-.68,5.28-.66,7.92,.03,3.12-.45,6.48,2.37,9.84,1.35-3.89,.53-7.08,.66-10.18,.14-3.22,.28-6.47-.05-9.65-.31-2.95,1.75-2.86,3.38-3.07,2.4-.31,1.92,1.85,2.16,3.17,.6,3.25-3.72,3.45-3.83,4.37-.55,4.45-.62,9.15,.28,13.52,.56,2.7,4.06,.28,6.08,1.26,3.54,1.72,4.31-.15,4.76-3.39,.44-3.14,1.54-6.24,2.73-9.21,3.72-9.36,11.84-14.67,21.15-14.09,10.13,.64,17.36,6.41,20.21,16.27,.83,2.89,1.4,5.85,2.09,8.78,.24,6.05,.89,12.13,.59,18.15-.2,4,1.37,4.92,4.76,5.04,12.3,.43,24.61,.81,36.9,1.48,15.87,.86,31.96,.17,47.5,3.59,9.29,2.05,18.55,3.21,27.93,4.12,1.72,.17,3.85,.11,3.91,2.3,.07,2.67-2.28,2.67-4.16,2.47-8.47-.91-16.91-2.07-25.38-2.88-8.25-.79-16.53-1.25-24.85-1.11,6.66,.83,13.33,1.63,19.99,2.52,1.28,.17,2.59,.55,3.75,1.12,1.33,.66,1.9,1.93,1.12,3.34-.73,1.31-1.74,1.84-3.22,.75-3.21-2.35-6.52-2.2-10.01-.44-1.09,.55-2.6,.43-3.9,.35-41.98-2.38-84.03-2.65-126.04-3.97-48.12-1.51-96.18,1.54-144.28,1.48-.74,0-1.48,.14-2.23,.56,37.05,.84,74.11,1,111.09,3.94-19.99,1.36-39.97-.86-59.97,.6,6.06,.55,12.13,1.1,18.19,1.65,1.08,.1,2.56-.17,2.56,1.43,0,1.32-1.29,1.86-2.43,1.87-4.73,.05-9.47,.1-14.19-.06-44.29-1.51-88.6-3.02-132.84-5.32-30.13-1.57-59.8,2.37-89.69,3.26-3.53,.1-6.88-1.87-10.37-.43l.06,.08c.31-1.75,1.63-1.72,3-1.85,35.26-3.14,70.48-6.77,105.87-8.18,2.03-.08,4.17,.13,6.78-1.78-15.99-.4-31.22-1.61-46.32,.23-6.07,.74-11.34-1.65-17.17-1.54-17.44,.33-34.8,1.31-52.19,2.69-10.02,.79-20.09-1.54-30.28-1.42-24.25,.28-48.53,.33-72.75-.67-25.65-1.07-50.99,2.49-76.49,3.47-2.9,.11-5.27-.83-7.86-1.46-8.82-2.14-17.71-1.11-26.53-.23-7.12,.71-13.86-2.26-20.92-1.58-.89,.09-1.95-.59-1.94-1.63,.01-1.04,1.03-1.48,1.98-1.75,5.51-1.59,11.22-1.72,16.87-2.02,11.16-.61,22.35-.68,33.5-1.35,10.68-.64,11.3-1.4,11.71-11.87,.12-2.95,1.11-5.99-.44-8.92-.3-.57-.19-1.52,.04-2.18,.57-1.66,15.27-6.45,16.76-5.4,2.38,1.68-1.21,2.13-.82,3.53,1.83,0,3.69,.17,5.52-.04,3.63-.41,5.85-2.05,5.34-6.25-.29-2.42-.16-4.93,.11-7.37,.13-1.19,.84-2.92,2.54-2.19,1.31,.57,.65,2.03,.03,2.94-2.29,3.34-1.58,6.73-.17,10.25,.31-4.11,5.75-6.56,3.45-11.56-.24-.53,.73-1.77,1.9-1.6,1.29,.19,1.06,1.32,1.13,2.22,.01,.18,0,.39-.07,.56-.82,2-2.62,4.02-.09,5.99,.47,.36,1.75,.41,2.1,.06,1.85-1.89,.48-4.27,.73-6.43,.31-2.65-1.82-7.54,.88-7.49,3.97,.08,.05,4.57,1.19,6.93,.15,.31-.08,.79,.04,1.12,.72,1.86-1.21,5.78,1.9,5.37,3.48-.46-.3-3.18,.03-4.94,.23-1.21-.37-2.7,1.29-3.36,3.41,5.36,3.28,7.1-1.43,10.16-1.76,1.14-1.55,2.39-1.24,3.85,.15,.72,1.35,1.55,1.53,.95,.48-1.64,3.47-.61,2.89-2.96-.35-1.44,.84-1.61,1.58-1.61,7.2-.05,14.4-.02,21.59,.05,1.11,.01,2.37,.1,1.52,1.91-.85,1.81-.27,2.81,1.85,2.93,2.25,.12,3.15-1.1,3.19-3.05,.09-5.72,1.43-11.23,2.58-16.77,.19-.9,.15-2.49,.55-2.61,6.27-1.83,3.81-6.94,3.9-10.76,.81-34.85,1.43-69.7,2.12-104.55,.08-4.06,1.25-8.72-5.69-7.77-1.29,.18-3.1-.66-3.08-2.66,.02-1.86,1.41-2.92,2.95-2.85,7.98,.38,7.69-5.32,8.21-10.65,.3-3.03-.39-6.66,3.93-7.9,.47-.13,.64-2.05,.59-3.12-.29-5.29,2.75-11.01-2.04-15.78-.56-.56-.9-2.85,.88-2.15,3.37,1.32,2.38-1.1,2.48-2.43,.15-2.04,.04-4.09,.86-6.19V10.56c2.03,.17,4.82-2.67,4.75,1.36-.06,3.34,6.16,7.24-.25,9.84-2.87,1.17-1.36,2.25-1.27,3.7,.35,6.12,1.66,11.99,3.47,17.87,.76,2.46,1.15,3.53,3.76,3.48,1.83-.04,4.12-.01,4.53,2.44,.44,2.65-1.88,3.15-3.67,3.36-3.51,.42-2.8,3.1-2.91,5.13-1.01,18.56-.51,37.12,.2,55.68,.67,17.42,1.44,34.83,1.72,52.26,.1,6.58,1.19,12.75,3.85,18.68,1.14,2.53,1.54,5.26,.65,7.7-3.28,8.98-1.81,17.64,1.04,26.34,.92,2.8,3.01,4.1,5.53,3.88,3.2-.28,1.83-3.24,1.91-5.01,.22-4.72,.07-9.46,.07-14.47-2.05,.41-4.19,1.11-6.43,.54-1.26-.32-2.11-.83-2.01-2.23,.1-1.55,1.27-1.92,2.41-1.54,7.57,2.49,6.69-2.65,6.76-7.23,.15-10.24,.23-10.18,9.58-13.65,6.93-2.57,14.58-3.45,21.05-6.59,11.92-5.8,23.96-1.01,36.9-2.32-5.32-1.87-10.37,.36-15.61-3.28,17.25,0,33.32-.02,49.39,.03,1.41,0,3.53-.14,3.37,2-.16,2.2-2.28,1.45-3.65,1.46-6.41,.06-12.82,.03-19.23,.43,9.16,1.04,18.32,1.6,27.51,.72,1.26-.12,2.82,.2,3.21-1.59,.33-1.54,.28-2.96-1.35-3.95-1.15-.69-2.36-2.01-2.01-3.15,.53-1.74,2.51-1.27,3.98-1.34,7.96-.38,15.89-.11,23.81,.8,3.27,.38,3.65,1.16,1.2,3.6-1.88,1.87-2.04,3.78,1.61,3.7,23.65-.54,47.3-1.06,70.95-2.4-22.85-1.14-45.69,2.14-68.61-.2,5.24-.16,9.53-6.35,15.71-1.63,1.46,1.12,3.68,.11,5.56-.03,15.66-1.19,31.26-3.65,47.01-2.94,2.1,.1,7.9-3.09,6.16,4.13-.3,1.24,2.16,.67,3.29,.63,14.39-.5,28.79-.88,43.16-1.7,38.38-2.2,76.73-4.99,115.15-6.48,1.19-.05,2.64,.51,3.62-.83-5.56-3.02-5.33-2.72,0-6.75,3.81-2.88,6.47-6.83,6.61-12.12,.04-1.47-.24-4.67,2.49-4.13,2.66,.53,1.13,3,.79,4.74-.29,1.44-1.13,3.29,.32,4.18,1.36,.84,3.15-.4,4.02-1.39,1.6-1.83-.46-2.09-1.42-3.28-1.96-2.43,1.35-4.19,2.54-6.52,1.01,2.14,1.84,3.87,2.71,5.71,.92-1.07,.82-1.99,.56-2.93-.39-1.38-.51-2.89,1.21-3.2,1.36-.25,1.59,1.29,2.02,2.29,.44,1.03,.8,2.09,1.33,3.07,.95,1.78,2.57,1.62,4.33,1.68,2.15,.08,2.22-1.13,2.77-2.62,.99-2.67,.8-6.18,4.66-7.11,.97-.23,1.09-1.63,.62-2.45-.9-1.56-1.44,.09-2.01,.46-1.09,.7-2.19,.99-2.94-.2-.73-1.16,.25-2.18,.92-3.02,2.08-2.61,6.46-3.86,4.82-8.62-.3-.86,.72-1.36,1.46-1.28,1.25,.13,2.25,1.09,2.18,2.24-.2,3.44,.24,6.31,2.98,8.99,1.42,1.38,.27,3.39-2.23,2.51-1.15-.4-1.74-.59-1.77,.8-.02,.87-.49,2.11,.7,2.46,5.14,1.51,7.06,5.68,9.5,9.92,.96,1.66,4.29,4.12,7.79,2.9,3.13-1.1,4.95,.18,5.23,3.51-8.19,.42-16.36,.85-24.54,1.28,8.19,.2,16.51,2.51,24.43-1.33Zm-411.08,34.03c2-1.98,4.76-1.81,7.19-2.54,1.45-.44,2.2-1.32,2.08-2.88-.12-1.73-1.25-1.59-2.39-1.26-10.45,3.01-21.22,4.85-31.44,8.67-1.26,.47-2.8,.81-2.28,2.55,.53,1.78,2.28,.55,3.41,.95-3.16,2.15-5.53,11.99-4.55,17.25,.62,3.36,3.67,.97,5.16,2.89-3.51,0-5.84,.98-5.46,5.04,.3,3.15,0,6.35,.04,9.52,0,.17,.61,.47,.94,.47,2.44-.04,5.98,.82,7.09-.44,2.44-2.76,.99-6.84,1.04-10.37,.05-3.22-3.37-.64-4.49-2.19,1.24-1.25,4.21,.73,4-2.8-.12-1.94,1.32-3.76-1.82-4.82-2.15-.73-2.88-3.38-3.58-5.53-.42-1.29-.27-3.03,1.2-3.32,1.8-.35,2.1,1.69,1.89,2.73-.43,2.13,.01,3.5,2.15,4.77,1.81-3.74-.61-6.79-.63-9.97,7.75-.73-.31,5.79,3,6.92,1.89-.35,1.47-4.18,3.46-2.85,2.27,1.51-.53,3.2-1.31,4.69-.59,1.13-1.98,1.89-2.41,3.04-.51,1.35-.64,2.73,1.69,3.27,10.45,2.41,13.87-.06,13.9-10.42,0-1.7-.18-3.43,.02-5.11,.49-4.06-1.43-4.36-4.63-3.35-4.5,1.42-9.05,2.64-13.58,3.96-1.77-.4-3.67,1.02-5.6-.05,2.13-3.21,6.97-.17,8.21-4.34,1.98-.36,4.07-.45,5.93-1.15,3.9-1.46,7.52-3.81,11.94-3.49-.21,1.29,8.33,1.55,.45,3.81-.28,.08-.4,1.01-.43,1.56-.33,5.29-.6,10.58-.93,15.87-.12,2,.92,2.86,2.72,2.61,2.06-.28,5.1,1.37,5.94-1.4,.74-2.43,1.36-5.62-2.33-7.19-3.01-1.28-3.24-4.45-3.99-7.14-.36-1.3,.34-2.33,1.71-2.3,1.57,.04,1.8,1.32,1.25,2.44-1.43,2.95-.06,4.26,2.91,5.5-.08-1.67-.17-2.79-.18-3.9-.02-1.32-.22-2.71,.1-3.95,1.81-7.18,1.85-7.17-5.7-5.88-.56,.09-1.13,.09-1.69,.12Zm370.1-1.03l.18,.14c-1.81-1.84,1.03-3.06,.94-4.9-11.75,2.21-14.68,11.11-16.8,20.63-.3,1.34-1.4,3.32,.36,3.91,1.74,.58,3.2-.92,3.54-2.83,.37-2.05,.18-4.48,3.49-3.66,1.07,.87,2.18,.66,3.31,.16,5.27,4.89,5.21,4.87,7.8-2.62,1.09-3.17,2.5-6.23,3.76-9.35-3.07,3.17-4.33-1.35-6.57-1.47Zm90.45,4.66c.34,.66,.79,1.3,1.01,2,.71,2.26-1.25,6.13,3.89,5.53,5.2-.61,3.24-4.41,3.08-6.9-.42-6.36-1.29-12.7-2.24-19.01-.28-1.87,1.81-5.13-1.82-5.41-4.36-.33-3.59,3.26-3.63,6-.09,6.01-.18,12.02-.27,18.03-1.2-6.55-.71-13.18-.94-19.78-.05-1.55,.53-3.83-2.36-3.26-9.74,1.91-19.76,1.85-29.41,4.34-3.39-.84-6.74,.27-10.12,.2-4.93-.1-6.74,1.86-6.08,7.1,.7,5.59,.19,11.33,.26,17,.02,1.89,.14,3.78,.32,5.66,.2,2.04,1.71,1.8,2.94,1.3,1.18-.49,3.47,.38,3.24-2.08-.09-.95,.59-2.35-.92-2.87-4.04-1.4-5.87-5.28-2.99-6.78,4.93-2.57,2.67-6.29,3.02-9.57,.28-2.62-.38-5.35,.89-7.91,.56,9.51-.09,19.09,2.86,28.41,.85-7.61,.83-15.22,.86-22.82,.01-3.06-1.03-7.04,4.74-5.13,1.15,.38,.96-1.56,.86-2.6,1.57,1.01,1.23,2.57,1.22,4.08-.04,6.62,.16,13.25-.09,19.87-.18,4.84,1.62,6.17,6.37,5.48,8.66-1.25,8.68-1.02,8.23-9.63-.25-4.72-.63-9.45-.6-14.18,.01-1.99-.83-4.37,2.06-7.26,0,9.28-.09,17.34,.08,25.38,.03,1.61-1.29,4.6,2.61,4.23,2.98-.28,4.25-1.56,4.07-4.66-.23-3.96-.1-7.95-.11-11.92,0-4.1,0-8.2,0-12.3,1.21,8.11,1.42,16.18,1.13,24.24-.15,4.11,1.72,4.28,4.79,3.61,5.44-1.2,2.08-5.56,3.07-8.35Zm-110.11,17.6c-1.63,.48-2.97,1.38-4.02,1.11-8.95-2.3-17.96-.88-26.96-.9-31.25-.05-62.39,2.96-93.63,2.88-3.7,0-5.49,4.12-9.77,2.83-8.74-2.64-18.01-1.18-26.89-1.21-21.03-.07-42.01-.62-63.01-1.47-1.3-.05-3.06-.39-3.83,.29-3.84,3.35-8.26,2.16-12.49,1.87-7.54-.51-15.09-2.16-22.58-1.85-23.86,1-47.69,.98-71.53-.01-4.66-.19-5.78,1.73-4.61,5.63,.78,2.58-1.17,6.75,1.96,7.55,3.61,.92,8.38,1.83,11.46-.82,3.29-2.82,6.29-1.59,9.55-1.36,1.98,.14,2.87,2.37,5.03,2.28,13.01-.6,25.89,.62,38.75,2.57,3.41,.52,7.06-.89,10.6-.92,20.54-.18,41.04,2.3,61.65-.1,11.04-1.29,22.32-.46,33.49-.79,22.91-.68,45.8,2.26,68.7,.6,13.82-1,27.62-.69,41.43-.15,17.02,.66,34.02,2.1,51.08,1.52,1.67-.06,4.42,1.44,4.58-2.29,.23-5.64,.67-11.27,1.04-17.26ZM154.01,61.16c0,1.86,.08,3.72-.01,5.57-1.62,34.56-1.77,69.15-2.31,103.74-.05,3.45,.13,5.4,4.61,5.52,4.78,.12,5.5-1.63,5.58-5.83,.75-36.89-2.54-73.77-.28-110.66,.4-6.61-.18-6.99-6.73-6.36-5.08,.48-3.86,4.73-3.95,7.36-.36,10.61-.15,21.23-.15,31.85,.86-10.37,.91-20.75,3.24-31.19Zm444.38,158.84q10.46,.22,10.19-10.13c0-.38,.01-.76-.03-1.13-1.09-8.72-.37-17.84-5.39-25.71-3.63-5.7-5.72-5.64-9.19,0-5.1,8.26-6.23,17.38-5.75,26.8,.51,9.99,.59,9.99,10.18,10.19Zm-467.29-8.88c-2.43,1.7-6.77-.31-5.83,5.03,.18,1.03-1.18,2.63-2.66,2.36-1.55-.28-1.94-1.87-1.47-3.21,1.05-3-.87-2.52-2.6-2.45-1.84,.07-3,.26-1.49,2.52,1.07,1.6,.07,3.17-1.6,3.41-1.98,.28-2.31-1.39-2.38-3.05-.03-.9,1.61-2.33-.41-2.64-2.21-.34-4.73-.86-6.64,.4-1.58,1.04-1.2,3.83-.22,4.58,1.93,1.48,.53,5.65,4.77,5.18,6.01-.67,12.09-.76,18.14-1.14,1.49-.09,3.41,.06,4.08-1.48,2.31-5.34,5.92-10.2,5.32-16.61-.25-2.7-1.19-3.04-3.42-3.04-8.72,0-17.43-.14-26.15-.18-1.22,0-2.96-.56-3.41,1.04-.43,1.49-.93,3.33,1.1,4.47,.75,.42,1.82,1.35,1.76,1.95-.17,1.78-.81,3.23,2.06,3.23,2.63,0,3.07-1.06,2.81-3.35-.14-1.23,.81-2.08,2.23-1.85,1.21,.2,1.19,1.16,1.36,2.12,.17,.96-2.14,2.53,.62,2.88,2.36,.3,2.08-1.07,1.96-2.75-.09-1.32,.8-2.84,2.25-2.83,2.09,.02,2.31,1.89,1.78,3.32-.81,2.19,.37,2.12,1.82,2.1,2.07-.03,4.13,0,6.2,0Zm16.01-18.26c2.39,1.39,2.06,3.19,2.08,4.86,.05,4.17,.28,8.34,.08,12.49-.18,3.53,1.2,4.39,4.6,4.45,13.79,.24,13.78,.36,13.73-13.7,0-1.7-.05-3.41,.05-5.11,.11-2.11-.71-3.08-2.91-3.16-5.86-.21-11.72-.59-17.58-.85-1.52-.07-3.05-.09-3.4,2.04-.99,5.98-1.67,11.99-1.72,18.06-.02,1.96,.85,2.69,2.76,2.59,1.79-.1,2.23-1.08,2.11-2.62-.12-1.51-.34-3.02-.32-4.53,.07-4.75-1.25-9.62,.54-14.52Zm437.52,18.98c0-1.13,.01-2.27,0-3.4q-.1-8.16-8.12-6.19c-.18,.04-.36,.13-.54,.18q-8.99,2.22-9.73,11.33-.71,8.64,8.05,8.63,10.75,0,10.34-10.55Zm-502.77,10.59c.36-1.8-1.44-4.9,1.13-5.06,2.05-.13,1.39,2.39,1.26,4.1-.11,1.43,1.4,.93,2.06,.68,2.45-.95,4.09-2.57,4.06-5.48-.05-4.16-.14-8.32,.11-12.47,.18-2.92-1.08-3.67-3.64-3.34-5.79,.74-11.58,1.49-17.37,2.18-1.26,.15-2.15,.55-2.38,1.9-.97,5.69-.32,11.32-.55,17.35,3.01-1.03,1.09-3.88,3.56-4.29,1.87,.58,.22,3.29,2.22,4.04,1.47-1.38-.38-4.14,1.8-5.1,2.71,.83,.48,3.91,2.55,5.12,.83-1.81-.56-4.83,1.88-4.9,3-.08,.09,4.29,3.3,5.27Zm129.87-5.5c-.94-3.51,.4-7.8-5.94-7.97-11.99-.31-9.73-.92-9.42,9.64,.04,1.34-.44,3.32,1.75,3.62,1.79,.24,4.15-.55,4.46-1.83,1.58-6.53,3.17-7,5.62-.45,.11,.3,1.03,.41,1.57,.4,3.41-.06,6.82-.16,10.22-.27,.96-.03,2.17-.15,2.2-1.26,.1-3.77,.9-7.91-.36-11.21-1.01-2.63-4.92-.52-7.85-1.07,1.47,2.01,3.73-.16,4.8,1.7q-5.14,3.11-7.06,8.69Zm481.36-34.29c-.41-6.58-.75-12.62-1.2-18.64-.15-1.96,.97-4.83-3.13-4.28-3.57,.48-6.66,2.86-6.26,5.57,1.13,7.69,.93,15.43,1.84,23.1,.31,2.58,1.26,3.7,3.96,3.31,2.47-.36,5.12-.16,4.82-3.92-.15-1.88-.03-3.78-.03-5.13ZM91.94,210.81c.07,0,.15,0,.22,0,0,2.08,0,4.16,0,6.24-.01,4.05,2.08,6.66,6.02,6.53,4.05-.13,4.57-3.53,4.49-6.86-.04-1.77,.66-4.01-2.55-3.76-3.83,.3-1.01,2.18-.82,3.35,.27,1.73-.07,3.28-1.91,3.45-2,.19-2.76-1.81-2.24-3.11,.99-2.48,.18-4.6-.29-6.89-.27-1.31,.02-2.87,1.64-3.16,1.56-.28,1.76,1.13,1.78,2.25,.05,2.62,1.96,2.92,3.46,2.1,2.24-1.23,.86-3.74,.93-5.65,.06-1.48,.92-3.44-1.34-4.4-4.6-1.97-8.71,.44-9.06,5.4-.11,1.51-.23,3.02-.34,4.52Zm229.54,26.4c26.92-1.08,53.85-2.17,80.77-3.25-.02-.47-.04-.94-.06-1.41-26.94,1.13-53.91,1.39-80.71,4.66Zm340.03-89.49c-5.22,.49-10.44,1.03-15.67,1.44-6.19,.49-12.39,.85-18.58,1.32-1.28,.1-2.93,.12-2.51,2.11,.37,1.72,1.83,.83,2.79,.76,11.44-.87,22.82-2.08,33.96-5.63ZM10.5,229.58h31.63c-.02-.56-.03-1.12-.05-1.68-10.55-.03-21.1-.3-31.59,1.68Zm145.99-42.09c0,.25,0,.5,0,.75,3.01,0,6.03,.03,9.04-.02,1.01-.02,2.5,.42,2.38-1.42-.09-1.38-.51-2.77-2.38-2.3-5.18,1.32-10.25,1.27-15.3-.66-.98-.37-2.24,0-3.38,.03-1.36,.04-2.08,.72-1.98,2.12,.09,1.23,1.03,1.47,1.99,1.48,3.21,.04,6.42,.01,9.62,.01Zm485.32-14.68c-3.35,7.45-.31,14.65-3.38,21.01-.43,.89-.48,2.86,1.52,2.96,1.95,.1,1.86-1.39,1.86-2.74,0-6.71,0-13.41,0-21.23Zm-65.88-24.1c.03,.28,.06,.56,.1,.84,5.22,0,10.45-.06,15.67,.04,1.7,.03,2.48-.67,2.45-2.21-.04-1.9-1.6-1.14-2.43-1.03-5.27,.71-10.53,1.56-15.79,2.36Zm60.68,78.89c9.17,.59,17.52,1.12,25.86,1.65-8.31-1.1-16.58-3.25-25.86-1.65Zm-41.32-71.62c-7.98-1.09-15.87-.66-23.63,1.71,7.88-.57,15.75-1.14,23.63-1.71ZM96.68,199.37c1.86-1.17,4.9,1.86,5.87-1.9,.27-1.06,.1-2.16-1.38-2.54-3.8-.98-2.91,2.92-4.5,4.43Zm429.04-10.52c.21-2.28,.43-4.28-2.1-4.07-1.84,.16-1.21,1.95-1.03,2.98,.24,1.39-1.14,3.84,1.62,3.92,2.41,.07,1.33-2.14,1.5-2.83Z"/>
      <path class="cls-50" d="M488.86,191.7h-34.31c.28,2.94,2.14,5.88-.63,8.28-1.02,.89-2.08,.7-3.04-.16-2.78-2.47-.92-5.15-.15-7.95-67.51-.67-134.84-.05-202.16,.93,80.25-2.8,160.52-2.43,240.3-1.09Z"/>
      <path class="cls-60" d="M700.71,207.58c0,.26-.07-.31,.01-.86,.35-2.24-.72-5.82,2.71-5.76,2.78,.05,3.22,3.56,4.11,5.92,.18,.48,.13,1.17-.06,1.66-1.13,2.8-.36,6.79-4.2,7.92-1.98,.59-2.81-2.02-2.57-8.88Z"/>
      <path class="cls-32" d="M236.71,243.59c-15.29,.85-30.47,3.25-45.86,2.81-5.84-.17-11.54-1.07-17.28-1.91,4.57-1.23,8.96,.5,13.46,.59,13.45,.28,26.83-.24,40.18-1.98,3.11-.4,6.41-.87,9.53,.54,.03,.02-.03-.05-.03-.05Z"/>
      <path class="cls-5" d="M697.3,206.99c-.89,2.03,.14,6.32-3.71,7.26-2.72,.66-3.07-2.33-2.89-4.4,.27-3.12,.12-7,4.07-7.79,1.98-.39,3.01,1.91,2.53,4.93Z"/>
      <path class="cls-55" d="M634.88,210.37c.64-2.17-1.03-5.91,2.79-6.16,2.98-.19,3.76,2.85,3.53,5.35-.25,2.68-.21,6.57-3.64,6.71-3.32,.13-2.22-3.57-2.67-5.9Z"/>
      <path class="cls-53" d="M687.75,208.22c-.67,2.66,.68,6.57-2.98,7.15-3.01,.48-3.09-2.99-2.84-5,.33-2.73-.45-6.95,3.52-7.28,3.43-.28,1.46,3.4,2.3,5.13Z"/>
      <path class="cls-19" d="M702.2,181.55c-.42,2.79,.75,7.17-2.86,7.03-3.76-.14-2.08-4.43-1.98-6.95,.09-2.42-.7-6.53,2.67-6.42,3.69,.13,1.23,4.28,2.17,6.33Z"/>
      <path class="cls-6" d="M643.24,209.45c.09-2.38,.37-4.74,2.9-5.02,2.33-.26,2.62,1.94,2.27,3.62-.54,2.55,.68,6.81-2.74,7.08-3.47,.27-1.19-3.99-2.43-5.68Z"/>
      <path class="cls-33" d="M664.05,209.16c-.8,2.65,.02,6.51-3.13,6.73-3,.21-2.29-3.28-2.09-5.29,.22-2.18-1.1-5.69,2.12-6.12,2.95-.39,2.62,2.87,3.1,4.68Z"/>
      <path class="cls-16" d="M703.22,181.78c.66-2.1-.07-4.85,2.15-6.49,.39-.29,1.88,.32,2.4,.91,1.99,2.26,.24,4.65-.11,6.95-.22,1.44-.79,3.27-2.73,2.92-2.35-.42-1.65-2.52-1.71-4.3Z"/>
      <path class="cls-61" d="M680.57,209.92c-.8,1.49,1.14,4.9-2.08,4.61-2.36-.22-2.5-3.38-2.54-5.67-.04-1.96,.22-4.47,2.56-4.21,2.81,.3,1.7,3.22,2.06,5.27Z"/>
      <path class="cls-15" d="M356.92,198.47c.57-1.72-.35-4.82,2.73-5.08,2.06-.17,2.56,2.03,2.17,3.77-.46,2.03,.05,5.12-2.78,5.42-1.92,.21-2.31-2.03-2.12-4.12Z"/>
      <path class="cls-14" d="M621.08,211.39c-.65,1.46,0,5.14-2.59,4.95-2.66-.19-1.75-3.57-1.59-5.65,.11-1.47-.63-3.98,1.82-3.97,2.28,.02,2.9,2.02,2.36,4.67Z"/>
      <path class="cls-41" d="M671.75,211.55c-.53,1.85,.51,4.98-2.46,4.83-2.58-.13-2.16-3.12-2.27-5.07-.11-1.89,.15-4.43,2.36-4.49,3.25-.09,1.59,3.09,2.36,4.73Z"/>
      <path class="cls-37" d="M232.93,199.05c.69-1.77-.31-4.8,2.75-4.75,2.07,.04,2.4,2.2,2.01,3.95-.41,1.83,.28,4.78-2.67,4.78-2.19,0-1.9-2.35-2.09-3.98Z"/>
      <path class="cls-46" d="M396.12,181.7c2.04,.44,2.28,2.05,2.34,3.77,.05,1.6-.28,3.14-2.17,3.21-1.89,.07-2.35-1.42-2.37-3.05-.02-1.7,0-3.38,2.21-3.93Z"/>
      <path class="cls-21" d="M468.85,189.29c-2.02-.61-2.17-2.28-2.14-4,.03-1.51,.06-3.32,2.16-3.16,1.88,.15,3.08,1.57,2.83,3.5-.21,1.6-.59,3.41-2.85,3.66Z"/>
      <path class="cls-40" d="M628.23,210.89c.44-1.6,.07-4.18,2.4-4.28,1.64-.07,2.01,2.1,1.51,3.56-.57,1.65,.38,4.51-1.95,4.73-2.12,.2-1.79-2.29-1.95-4Z"/>
      <path class="cls-2" d="M435.71,181.6c1.59,.49,2.42,1.68,2.28,3.32-.14,1.65-1.25,2.92-2.89,2.85-1.77-.08-2.54-1.6-2.26-3.24,.25-1.45,.83-2.94,2.87-2.93Z"/>
      <path class="cls-28" d="M444.95,184.26c-.36,1.6-.88,3.53-2.8,3.59-1.72,.05-2.39-1.75-2.28-3.3,.12-1.67,.65-3.63,2.71-3.63,1.72,0,2.33,1.61,2.37,3.34Z"/>
      <path class="cls-22" d="M485.32,187.82c-2.03-.53-2.62-2.01-2.72-3.79-.09-1.56,.17-3.35,2.02-3.3,1.92,.05,2.62,1.8,2.71,3.61,.08,1.59-.4,2.89-2.02,3.47Z"/>
      <path class="cls-62" d="M651.95,209.54c.18-1.51-.31-3.78,1.92-3.9,2.44-.13,1.99,2.41,1.96,3.78-.03,1.37,.37,3.86-2.13,3.71-1.96-.12-1.62-2.1-1.75-3.59Z"/>
      <path class="cls-7" d="M463.08,184.23c-.4,1.42,.03,3.68-2.14,3.89-1.96,.19-2.37-1.77-2.08-3.19,.35-1.68,.5-4.22,2.64-4.33,1.95-.1,1.56,2.07,1.59,3.62Z"/>
      <path class="cls-52" d="M423.62,181.52c1.54,.55,2.38,1.71,2.25,3.38-.13,1.66-1.01,3.12-2.81,2.73-1.67-.37-1.98-2.04-1.89-3.67,.09-1.53,.68-2.51,2.45-2.44Z"/>
      <path class="cls-58" d="M375.73,188.35c-1.63-.09-2.23-1.13-2.32-2.59-.1-1.61,.22-3.17,2.08-3.42,1.92-.25,2.64,1.18,2.73,2.82,.09,1.67-.67,2.87-2.49,3.19Z"/>
      <path class="cls-3" d="M369.98,184.73c-.12,1.43-.58,3.04-2.31,3.2-2.04,.18-2.23-1.56-2.18-3.11,.04-1.59,.5-3.17,2.4-3.08,1.47,.07,2.07,1.39,2.09,3Z"/>
      <path class="cls-24" d="M575.81,193.86c1.1-2.08-4.02-2.5-1.4-4.78,1.85-1.61,3.94-1.2,6.14,.02,2.97,1.64,3.08,1.45-1.43,4.92-1.13,.51-2.25,.71-3.31-.16Z"/>
      <path class="cls-4" d="M537.21,211.87c-.35,2.54,.17,5.38-2.21,7.26-.87,.69-1.87,.29-2.5-.46-1.96-2.38-.94-5.01-.32-7.5,.46-1.84,.4-4.73,3.43-4.07,2.52,.55,1.58,2.98,1.59,4.77Z"/>
      <path class="cls-1" d="M553.77,212.69c.27-1.91-.27-4.51,2.51-4.86,2.7-.34,2.39,2.24,2.92,3.91,.89,2.8,1.05,5.52-1.01,7.88-.33,.38-1.53,.49-1.98,.19-2.6-1.7-1.93-4.61-2.44-7.13Z"/>
      <path class="cls-25" d="M480.41,214.04c-.22,2.08,.38,5.08-3,4.9-2.78-.15-2.5-2.88-2.55-4.89-.05-2.02-.35-4.81,2.34-5.01,3.09-.23,3.1,2.61,3.21,5Z"/>
      <path class="cls-27" d="M538.7,213.93c.61-1.83,.18-4.65,3.18-4.43,2.63,.2,3.02,2.57,2.89,4.7-.13,2.07-.56,4.6-3.2,4.49-2.66-.11-2.63-2.69-2.87-4.77Z"/>
      <path class="cls-42" d="M440.41,215.11c.28-2.5,.15-5.27,3.06-5.51,2.27-.18,2.97,1.88,2.82,3.99-.19,2.59-.92,5.13-3.95,5.16-2.38,.02-1.71-2.36-1.94-3.63Z"/>
      <path class="cls-59" d="M436.08,214c-.31,1.92,.01,4.74-3.07,4.81-2.47,.06-2.64-2.26-2.51-4.13,.15-2.14,0-4.89,3.06-4.98,2.56-.07,2.55,2.17,2.52,4.3Z"/>
      <path class="cls-31" d="M491.44,213.56c.11-1.93,.11-4.12,2.84-3.94,2.21,.15,3.27,1.69,3.21,3.91-.06,2.22-.61,4.54-3.14,4.63-2.91,.1-2.69-2.57-2.91-4.6Z"/>
      <path class="cls-51" d="M551.84,212.34c-1.62,1.36,.6,5.58-3.38,5.64-2.18,.03-2.51-2.3-1.85-3.91,.9-2.2,.29-5.89,3.91-5.87,1.75,0,1.56,2.22,1.32,4.14Z"/>
      <path class="cls-8" d="M291.56,213.49c.25-1.84-.01-4.33,2.3-4.48,2.57-.17,3.13,2.42,3.2,4.37,.07,1.96-.38,4.55-3.04,4.4-2.3-.13-2.23-2.53-2.45-4.29Z"/>
      <path class="cls-12" d="M468.48,209.83c2.5,.16,3.04,1.82,2.86,3.9-.18,2.08-.45,4.58-3.28,4.12-2.5-.41-2.42-2.95-2.53-4.97-.1-1.99,.72-3.24,2.95-3.05Z"/>
      <path class="cls-26" d="M458.34,210.01c2,.72,3.41,2.12,3.65,4.31,.2,1.85,.08,4.27-2.25,4.36-2.54,.1-2.87-2.49-3.2-4.46-.27-1.63-.41-3.4,1.81-4.21Z"/>
      <path class="cls-35" d="M515.94,213.24c.63-2.11-.12-5.02,2.62-5.19,2.36-.15,2.62,2.22,2.46,4.17-.16,2.02-.06,4.73-2.57,4.94-2.51,.21-2.26-2.37-2.51-3.93Z"/>
      <path class="cls-10" d="M513.88,213.38c-.39,1.81-.47,4.27-3.05,3.69-2.47-.56-2.19-3.13-2.22-5.12-.03-1.96,.96-3.34,3.05-2.96,2.44,.45,2.25,2.54,2.22,4.39Z"/>
      <path class="cls-63" d="M386.05,210.83c1.95,.27,2.35,1.65,2.08,3.28-.33,1.98-.4,4.62-3.09,4.57-2.08-.04-2.18-2.36-2.17-4,.02-1.96,.61-3.78,3.18-3.86Z"/>
      <path class="cls-47" d="M527.14,209.57c2.4,.19,2.51,1.95,2.51,3.36,0,1.86-.28,4.14-2.67,4.31-1.87,.13-2.21-1.69-2.26-3.28-.06-2.04,.54-3.69,2.42-4.38Z"/>
      <path class="cls-57" d="M503.08,216.89c-2.12-.67-2.35-2.33-2.09-4.09,.26-1.76,.98-3.46,3.11-3.31,1.9,.13,2.5,1.73,2.11,3.34-.42,1.71-.56,3.9-3.12,4.06Z"/>
      <path class="cls-9" d="M397.12,213.77c-.52,1.66-.83,3.87-3.1,4-2.79,.17-2.45-2.28-2.54-4.03-.08-1.51,.09-3.14,2.32-2.92,1.74,.17,3.41,.49,3.32,2.94Z"/>
      <path class="cls-39" d="M314.39,213.75c-.15,1.81-.13,3.86-2.01,3.8-2.51-.08-2.46-2.45-2.44-4.32,.01-1.51,.2-3.4,2.26-3.18,2.25,.24,1.94,2.39,2.2,3.7Z"/>
      <path class="cls-54" d="M369.02,214.66c-.01,1.95-.05,3.94-2.26,4.08-2.08,.13-2.07-1.82-2.11-3.29-.04-1.72,.13-3.79,2.25-3.92,1.91-.11,1.96,1.85,2.11,3.13Z"/>
      <path class="cls-34" d="M425.76,214.32c.03,1.5,.19,3.21-1.78,3.5-2.09,.31-2.34-1.48-2.46-2.93-.14-1.73,.28-3.61,2.32-3.79,2.25-.2,1.74,1.84,1.92,3.21Z"/>
      <path class="cls-44" d="M486.67,209.97c1.83,.43,1.74,1.86,1.55,3.11-.25,1.66-.7,3.52-2.77,3.65-1.37,.09-1.72-1.21-1.59-2.43,.2-1.92,.74-3.65,2.81-4.34Z"/>
      <path class="cls-49" d="M237.31,213.57c-.18,1.63-.13,3.63-2.3,3.85-1.65,.17-2.16-1.49-2.04-2.75,.14-1.57,.02-3.78,2.03-4.18,2.17-.43,1.96,1.68,2.31,3.08Z"/>
      <path class="cls-38" d="M453.86,213.75c-.56,1.4-.14,3.53-2.33,3.93-1.53,.27-1.85-.99-1.82-2.16,.05-1.84-.04-4.06,2.41-4.34,1.2-.14,1.56,1.35,1.74,2.58Z"/>
      <path class="cls-13" d="M649.82,195.07c-2.3-1.98,.69-7.03-4.82-5.59-.98,.26-.97-2.15-.87-3.44,.09-1.22,.78-2.65,1.94-2.25,3.67,1.27,2.28-1.49,2.4-2.84,.39-4.59-.71-9.25,1.36-13.82v27.94Z"/>
      <path class="cls-17" d="M664.49,185.83c-.73,1.77-.14,4.43-2.15,4.41-2.28-.01-2.49-2.37-2.23-4.37,.05-.37,.05-.93,.28-1.07,2.33-1.44-2.6-5.26,1.14-5.21,3.15,.04,1.58,4.37,2.96,6.23Z"/>
      <path class="cls-64" d="M655.45,181.53c-1.63,2.61,1.28,5.62-1.01,8.01-.47,.49-.98,1.34-1.49,1.35-1.25,.03-1.35-1.18-1.24-2.04,.37-2.89,1.59-5.68,.62-8.72-.23-.71,.65-1.97,1.7-1.72,1.69,.4,1.23,2.01,1.41,3.12Z"/>
      <path class="cls-20" d="M670.89,165.64c2.07,3.23,1.6,5.91-.33,8.29-.88,1.1-1.85-.07-2.18-.8-1.37-3.05-.38-5.47,2.5-7.49Z"/>
      <path class="cls-11" d="M669.65,190.13c-1.76-.71-1.84-2.19-1.71-3.7,.15-1.7,.57-3.7,2.58-3.6,1.75,.08,2.02,1.99,1.69,3.48-.34,1.56-.55,3.36-2.57,3.82Z"/>
      <path class="cls-56" d="M574.29,221.17c-1.77-.86-1.8-2.32-2.18-3.48-.76-2.29,.09-4.36,1.48-6.17,.23-.3,1.2-.45,1.45-.23,1.85,1.65,.81,3.78,.74,5.71-.05,1.43,.14,3.04-1.48,4.17Z"/>
      <path class="cls-30" d="M69.74,209.75c.61,1.46,1.21,2.91,1.85,4.43,2.07-3.25,5.09-2.39,7.69-1.64,1.82,.53,3.6-2.73,5.15,.17,.44-1.04,.95-2.48,1.93-.49,.57,1.17-.57,2.61-1.51,2.47-4.96-.75-9.83,1.45-14.55,.72-4.72-.73-1.93-3.49-.36-5.48l-.2-.19Z"/>
      <path class="cls-29" d="M69.94,209.94c-.81-2.89-.79-3,1.34-2.46,1.47,.38,.98-.7,1.01-1.2,.08-1.31,1.4-2.68,1.83-1.81,2.93,5.96,8.32,1.92,12.27,3.37,.17,.06,.3,.22,1.42,1.1-6.72-.75-12.36,.4-18.07,.81,0,0,.2,.19,.2,.19Z"/>
      <path class="cls-23" d="M627.03,174.88c.07-1.86-.07-4.37,1.98-4.7,2.06-.33,1.46,2.12,1.52,3.42,.09,1.82,.25,4.39-1.87,4.73-1.92,.31-1.49-2.05-1.63-3.45Z"/>
      <path class="cls-45" d="M689.39,178.78c-1.94,2.1,.98,4.19,.02,6.33-.46,1.03-.79,2.27-2.18,2.16-1.25-.1-1.14-1.29-1.22-2.19-.2-2.23-.5-4.47-.46-6.69,.02-1.5,.5-3.25,2.58-2.85,1.76,.33,1.47,1.89,1.26,3.24Z"/>
      <path class="cls-48" d="M687.02,165.95c1.51,.35,2.59,1.23,2.33,2.71-.28,1.57-.59,3.64-2.69,3.75-2.3,.13-1.82-1.95-1.86-3.29-.05-1.5,.18-3.07,2.22-3.16Z"/>
      <path class="cls-36" d="M584.11,180.58c-.02,.53-.11,1.08-.05,1.6,.19,1.56,3.92,3.02,.37,4.62-2.49,1.12-5.78,.9-6.65-1.79-.78-2.42,1.67-4.26,4.32-4.72,.68-.12,1.44,.26,2.17,.43,.01,0-.16-.13-.16-.13Z"/>
      <path class="cls-43" d="M680.38,182.92c.09,2.46-.34,4.72-2.07,4.7-2.36-.02-1.29-2.45-1.42-3.94-.02-.18,0-.38,.07-.55,.85-2.1-3.23-5.96,1.08-6.21,2.89-.17,.23,4.8,2.34,6Z"/>
    </g>
  </g>
</svg>