<?xml version="1.0" encoding="UTF-8"?>
<svg id="_Слой_2" data-name="Слой 2" xmlns="http://www.w3.org/2000/svg" viewBox="0 0 240.09 80.71">
  <defs>
    <style>
      .cls-1 {
        fill: #59715f;
      }
    </style>
  </defs>
  <g id="_Слой_1-2" data-name="Слой 1">
    <g>
      <path class="cls-1" d="M87.65,76.22c.33,.13,.71,.1,1.01,.33-2.17,.38-4.34,.54-6.52,.06-2.69-.6-5.41-.69-8.14-.36-2.65,.32-5.3,.12-7.94-.1-2.49-.2-4.97,.01-7.46,.15-2.76,.16-5.52,.18-8.28,.3-2.11,.09-4.22,.21-6.32,.39-2.43,.2-4.8-.2-7.16-.66-.49-.1-.97-.14-1.45-.12-3.17,.12-6.33-.12-9.48-.44-2.29-.23-4.6-.08-6.9,.06-1.69,.1-3.35,.03-4.97-.52-1.21-.41-2.47-.26-3.7-.18-3.18,.21-6.37,.33-9.49,1.08-.05,.01-.11,.03-.16,.02-.24-.02-.61,.2-.67-.2-.04-.3,.31-.34,.54-.38,.95-.18,1.9-.39,2.87-.51,2.66-.36,5.33-.44,8-.63,1.12-.08,2.2,.07,3.27,.41,1.6,.52,3.27,.44,4.91,.32,3.23-.23,6.43-.14,9.64,.27,1.21,.15,2.43,.19,3.65,.14,1.87-.08,3.73-.05,5.56,.41,2.12,.54,4.3,.46,6.46,.32,3.46-.24,6.92-.36,10.38-.48,2.22-.07,4.43-.24,6.64-.38,1.66-.11,3.31-.02,4.95,.14,2.76,.26,5.52,.27,8.27-.04,2.37-.26,4.7-.07,7.01,.48,1.82,.43,3.66,.19,5.49,.15"/>
      <path class="cls-1" d="M64.71,78.42c3.7,.31,7.34-.26,11-.65,1.09-.12,2.16,0,3.21,.25,2.2,.51,4.41,.42,6.62,.17,3.12-.35,6.22-.14,9.32,.11,4.26,.35,8.49,.18,12.72-.36,.96-.12,1.91-.06,2.82,.15,3.08,.7,6.14,.32,9.2-.11,2.94-.41,5.88-.32,8.82-.04,1.59,.15,3.18,.29,4.77,.44,.38,.03,.75,.08,1.13,.12,.15,.02,.27,.11,.27,.26,0,.18-.15,.27-.33,.26-.51-.02-1.03-.05-1.54-.09-3.1-.22-6.18-.71-9.31-.69-2.14,.02-4.25,.39-6.37,.61-2.22,.24-4.43,.27-6.62-.19-1.59-.33-3.18-.15-4.77,.04-3.45,.41-6.91,.4-10.38,.16-3.86-.26-7.72-.49-11.58,.07-1.23,.18-2.51,.17-3.71-.15-2.42-.65-4.83-.45-7.25-.11-2.74,.38-5.49,.46-8.25,.35-2.55-.11-5.09-.08-7.5,.92-.19,.08-.45,.19-.57-.09-.14-.34,.19-.4,.39-.48,1.99-.78,4.08-.98,6.19-.96,.57,0,1.14,0,1.71,0"/>
      <path class="cls-1" d="M208.09,80.63c-2.54-.11-5.05-.42-7.54-1.02-1.48-.36-3.02-.14-4.53-.11-2.6,.05-5.19,.07-7.79-.12-2.31-.17-4.57,.4-6.85,.67-3.52,.4-7.06,.79-10.59,.37-1.95-.23-3.85-.82-5.79-1.17-3.05-.55-6.12-.52-9.21-.18-3.57,.4-7.09,1.23-10.7,1.21-.95,0-1.87-.23-2.78-.49-.18-.05-.38-.15-.29-.4,.08-.2,.23-.25,.46-.17,2.59,.87,5.18,.35,7.78,0,2.81-.38,5.62-.84,8.45-1,3.32-.19,6.58,.35,9.78,1.16,2.53,.65,5.09,.66,7.66,.54,3.19-.15,6.34-.65,9.5-1.04,1.12-.14,2.28-.13,3.4-.02,3.11,.29,6.22,.08,9.33-.01,1.24-.04,2.41,.21,3.59,.48,2.33,.53,4.71,.67,7.09,.81,.25,.01,.63-.1,.58,.33-.03,.32-.36,.24-.6,.23-.33-.02-.65-.04-.97-.07"/>
      <path class="cls-1" d="M105.74,22.63c.94-.62,1.92-1.2,2.82-1.89,1.71-1.3,2.11-2.75,1.42-4.8-.37-1.11-.92-2.13-1.55-3.1-.76-1.18-1.93-1.71-3.28-1.79-.92-.05-1.84-.07-2.75,.09-1.07,.18-1.53-.12-1.91-1.12-.65-1.74-2.04-2.54-3.74-2.83-2.34-.39-4.66-.37-6.9,.57-.58,.25-1.1,.51-1.4,1.14-.15,.32-.49,.74-.88,.43-.38-.3-.08-.69,.19-.97,.86-.88,1-2.02,.38-3.14-.69-1.25-1.76-2.12-2.96-2.82-3.46-2.02-7.15-2.28-10.94-1.2-1.32,.38-2.59,.92-3.88,1.38-.26,.09-.58,.42-.75,0-.14-.33,.26-.4,.5-.5,3.3-1.43,6.67-2.49,10.35-1.94,2.8,.42,5.28,1.48,7.28,3.53,.98,1.01,1.54,2.21,1.35,3.74,2.25-.95,4.53-1.22,6.86-.94,1.9,.23,3.66,.75,4.72,2.56,.03,.05,.06,.09,.07,.14,.28,1.57,1.4,1.48,2.57,1.31,.81-.12,1.62-.07,2.43,.06,1.34,.21,2.45,.82,3.19,2,.8,1.28,1.53,2.6,1.86,4.1,.39,1.79-.28,3.16-1.57,4.32-.98,.89-2.17,1.44-3.27,2.12-.28-.03-.3-.07-.2-.47"/>
      <path class="cls-1" d="M72.45,73.26c2.9,.25,5.78,.86,8.71,.64,2.21-.16,4.42-.35,6.63-.44,2.35-.1,4.7-.06,7.03,.34,.38,.07,.69,.23,.68,.65-.01,.46-.3,.67-.76,.64-1.35-.11-2.69-.26-4.04-.32-2.54-.11-5.08,.05-7.61,.27-3.22,.28-6.35-.28-9.47-.96-.68-.15-1.39-.18-2.09-.25-.24-.02-.55,0-.53-.33,.01-.32,.31-.33,.56-.31,.3,.02,.59,.05,.89,.08"/>
      <path class="cls-1" d="M201.62,26.64c-.21,.4-.42,.8-.63,1.2-1.29,2.52-.29,4.65,2.46,5.25,1.53,.34,3.07,.2,4.6-.02,1.1-.16,1.34-.05,1.24,1.07-.25,2.73,1.8,3.58,3.78,3.9,1.82,.3,3.61-.09,5.42-.17,.45-.02,.85,.05,1.24,.28,2.57,1.53,5.37,1.62,8.24,1.3,.25-.03,.59-.23,.68,.16,.1,.42-.32,.38-.55,.4-2.95,.25-5.89,.4-8.52-1.38-.4-.27-.88-.19-1.33-.16-1.59,.1-3.17,.36-4.78,.21-.95-.09-1.86-.33-2.72-.75-1.45-.71-2.18-1.93-1.97-3.55,.1-.8-.19-.82-.8-.74-1.56,.21-3.12,.31-4.67,0-.53-.11-1.03-.3-1.51-.56-1.53-.84-2.24-2.34-1.87-4.01,.21-.95,.59-1.84,1.25-2.58,.2-.1,.34,0,.45,.16"/>
      <path class="cls-1" d="M48.65,48.1c-1.79-.12-3.47-.17-5.13-.45-.24-.04-.64,.05-.56-.38,.06-.34,.37-.19,.61-.17,2.69,.29,5.39,.54,8.1,.2,.7-.09,1.41-.12,2.09-.28,1.06-.25,2.07-.1,3.11,.1,1.58,.31,3.19,.21,4.78,.16,2.52-.08,4.94,.51,7.4,.86,.22,.03,.57,.08,.55,.37-.02,.31-.34,.29-.58,.23-3.82-.92-7.74-.68-11.6-1.05-2.37-.23-4.62,.23-6.92,.29-.65,.02-1.3,.08-1.83,.11"/>
      <path class="cls-1" d="M31.49,36.87c-2.23-.16-4.18-.16-6.08-.63-.11-.03-.24,0-.32-.06-1.09-.72-2.11-.33-3.22,.05-2.86,.98-5.79,.78-8.72,.27-.82-.15-1.64-.32-2.44-.52-.22-.05-.65,0-.56-.42,.09-.41,.41-.2,.66-.14,1.92,.44,3.86,.85,5.84,.89,2.36,.05,4.69-.1,6.77-1.41,.16-.1,.28-.16,.43-.03,1.14,1.02,2.6,1,3.97,1.15,1.99,.22,3.99,.26,5.99,.38,.27,.02,.71-.12,.67,.33-.03,.32-.41,.25-.68,.24-.87-.04-1.73-.08-2.3-.11"/>
      <path class="cls-1" d="M94.4,34.1h.28c-.04,.5-.49,.26-.72,.42-.63,.04-1.26-.06-1.89,.06-3.83,.95-7.69,1.22-11.55,.27-1.82-.45-3.53,.01-5.3,.14-1.92,.14-3.73-.1-4.93-1.88-.16-.33-.03-.46,.3-.46,.93,1.31,2.24,1.8,3.78,1.78,.59,0,1.21,0,1.78-.15,2.13-.57,4.18-.05,6.25,.31,2.62,.46,5.23,.26,7.83-.23,.55-.1,1.1-.18,1.65-.27,.84-.12,1.68,.03,2.52,0"/>
      <path class="cls-1" d="M216.79,53.94c-.12,1.66,.26,3.18,.16,4.72-.02,.32,.13,.8-.39,.83-.57,.03-.5-.5-.49-.84,.05-1.16,.04-2.32-.28-3.45-.09-.31,0-.78-.68-.68-.45,.07-1.04-1.95-.73-2.36,.17-.22,.39-.22,.56-.04,.8,.84,1.61,.61,2.44,.05,.02-.01,.05-.02,.07-.03,.42-.17,.85-.73,1.3-.26,.47,.49-.09,.87-.39,1.21-.24,.27-.17,.33,.15,.36,.26,.02,.27,.25,.26,.43-.01,.21-.19,.34-.38,.36-.53,.07-1.07,.14-1.59-.31"/>
      <path class="cls-1" d="M147.79,72.86c-1.17,.1-2.25-.11-3.23,.42-.16,.08-.34,.12-.43-.05-.11-.19-.03-.37,.17-.47,.56-.31,1.17-.39,1.79-.42,2.39-.11,4.75,.26,7.12,.42,2.24,.14,4.45,.59,6.71,.57,.98-.01,1.94-.17,2.9-.28,.26-.03,.73-.33,.78,.2,.04,.38-.41,.33-.69,.38-2.39,.45-4.78,.25-7.18,0-2.69-.29-5.38-.51-7.95-.75"/>
      <path class="cls-1" d="M98.95,46.82c-.81-.03-1.61-.02-2.42-.17-2.58-.49-5.11,.05-7.64,.4-1.23,.17-2.45,.38-3.67,.56-.22,.03-.54,.17-.6-.18-.06-.37,.29-.32,.51-.36,2.42-.44,4.84-.79,7.28-1.09,1.6-.2,3.17-.09,4.75,.16,2.03,.33,4.04,.02,6.03-.39,.24-.05,.53-.19,.62,.12,.12,.39-.26,.4-.51,.45-1.43,.32-2.87,.53-4.34,.49"/>
      <path class="cls-1" d="M46.39,73.66c2.95-.23,5.89,.27,8.83,.16,.25,0,.55,0,.55,.32,0,.33-.32,.29-.56,.29-1.76-.06-3.51-.18-5.27-.18-4.18,0-8.37-.39-12.55-.15-.27,.02-.7,.16-.7-.27,0-.39,.42-.33,.7-.34,2.79-.08,5.57-.03,8.35,.18,.22,.2,.44,.11,.65,0"/>
      <path class="cls-1" d="M222.35,73.4c2.78,0,5.55,0,8.31,.51,1.18,.22,2.43,.04,3.64,.05,.23,0,.56-.1,.57,.25,.02,.33-.31,.33-.54,.34-1.43,.06-2.88,.16-4.29-.13-2.84-.59-5.71-.4-8.57-.41-1.51,0-3.02-.04-4.53-.06-.24,0-.57,.06-.56-.28,0-.41,.36-.28,.62-.28,1.78,0,3.57,0,5.35,0"/>
      <path class="cls-1" d="M201.62,26.64c-.15-.05-.3-.1-.45-.16,1.04-1.64,2.59-2.66,4.34-3.37,2.87-1.16,5.91-1.62,8.92-2.24,.25-.05,.48-.02,.53,.22,.06,.28-.2,.31-.42,.35-1.74,.36-3.48,.72-5.22,1.1-2.94,.65-5.69,1.67-7.69,4.09"/>
      <path class="cls-1" d="M148.85,65.99c-.01,.27-.18,.45-.35,.34-.5-.32-.93,.02-1.39,.06-.77,.07-1.57,.45-2.1-.62-.13-.27-1-.37-1.46-.02-.97,.75-2.17,.68-3.27,.96-.42,.11-1.66-1.24-1.55-1.65,.1-.34,.34-.32,.55-.1,.18,.19,.32,.43,.49,.64,.26,.33,.53,.69,.87,.06,.07-.13,.26-.24,.43-.15,.95,.47,1.62-.16,2.3-.62,.32-.22,.51-.45,.88-.13,.22,.18,.52,.09,.78,.09,.4,0,.73,.1,.76,.54,.04,.49,.36,.47,.68,.42,.5-.08,1-.22,1.5-.3,.41-.07,.75,.05,.87,.47"/>
      <path class="cls-1" d="M169.18,72.74c.81-.07,1.59-.07,2.37-.18,.88-.13,1.76-.16,2.65,.08,1.36,.37,2.74,.02,4.11,0,.23,0,.57-.13,.6,.21,.05,.41-.33,.31-.58,.34-1.64,.18-3.28,.35-4.91-.11-.42-.12-.86-.06-1.29,0-1.18,.19-2.36,.3-3.55,.23-1.1-.07-2.14,.17-3.15,.59-.2,.08-.47,.3-.63,0-.17-.33,.2-.4,.39-.49,1.26-.65,2.62-.8,3.99-.65"/>
      <path class="cls-1" d="M141.6,71.21c-1.16,0-2.32,0-3.49,0-.2,0-.44-.02-.46-.23-.03-.29,.24-.32,.45-.32,3.7-.02,7.4-.54,11.11-.28,.35,.02,.69,.09,1.04,.14,.21,.03,.38,.12,.32,.37-.05,.21-.24,.19-.39,.17-.67-.06-1.34-.19-2.01-.19-2.19-.02-4.38,0-6.57,0,0,.11,0,.23,0,.34"/>
      <path class="cls-1" d="M103.64,31.84c2.98,.71,5.42-.39,7.6-2.31,.38-.33,.41-.74,.05-1.14-.14-.16-.37-.32-.15-.54,.26-.25,.43,.03,.6,.19,.43,.41,.46,.91,.23,1.41-.13,.29-.34,.57-.58,.77-1.83,1.54-3.93,2.39-6.34,2.44-.69,.01-1.33-.15-1.92-.51,.01-.35,.25-.36,.5-.32"/>
      <path class="cls-1" d="M41.23,59.72c.32,.04,.45,.06,.58,.08,.22,.03,.46,.08,.38,.38-.06,.23-.24,.25-.45,.2-.21-.05-.44-.04-.63-.11-.29-.1-.67-.12-.75-.51-.08-.42,.23-.58,.55-.67,.46-.12,.23-.35,.14-.6-.09-.25-.38-.53-.06-.79,.25-.2,.53-.07,.75,.08,.54,.39,.87,.16,1.17-.32,.15-.25,.33-.56,.67-.51,.36,.06,.4,.39,.39,.71-.02,.46,.31,.35,.56,.34,.31-.02,.68-.19,.87,.19,.19,.37-.16,.58-.36,.83-.05,.06-.1,.13-.16,.18-.18,.17-.31,.54-.64,.27-.27-.23,.02-.42,.14-.61,.04-.06,.07-.13,.15-.27-.5-.03-1.04,.04-1.16-.67-.45,.42-.83,1-1.65,.46,.22,.62,.28,1.09-.48,1.34"/>
      <path class="cls-1" d="M151.18,75.44c-.7,0-1.4,0-2.1,0-.19,0-.41,.03-.43-.24-.02-.26,.18-.27,.38-.31,.88-.18,1.78-.14,2.67-.09,1.99,.1,3.98,.29,5.97,.45,.22,.02,.58-.07,.56,.29-.03,.39-.4,.27-.65,.25-2.13-.11-4.25-.38-6.39-.35"/>
      <path class="cls-1" d="M158.12,71.33c-1.38,.05-2.75,.15-4.13,.02-.27-.02-.63,0-.62-.35,0-.42,.37-.28,.62-.25,2.91,.28,5.81,.04,8.72-.08,.21,0,.4,0,.44,.13,.07,.23-.08,.39-.34,.42-.27,.03-.53,.11-.8,.11-1.29,.01-2.59,0-3.88,0"/>
      <path class="cls-1" d="M14.24,59.96c.16-.24-.02-.37,0-.53,.03-.28-.3-.6,0-.83,.37-.28,.47,.19,.7,.33,.24,.15,.46,.06,.66-.11,.16-.14,.33-.28,.49-.42,.17-.15,.34-.3,.57-.12,.31,.25,0,.43-.12,.6-.05,.08-.2,.09-.41,.17,.27,.09,.33,.1,.37,.12,.3,.14,.83-.5,.91,.15,.06,.46-.56,.4-.89,.48-.49,.11-1.02,.63-1.48-.11,.05,1.1-.06,1.18-1.16,.8-.28-.1-.57-.17-.84-.28-.14-.06-.3-.17-.21-.37,.07-.17,.23-.25,.4-.21,.33,.09,.66,.21,1.01,.33"/>
      <path class="cls-1" d="M36.01,47.61c-.38,0-.76,.04-1.13-.01-.22-.03-.54-.29-.19-.47,.82-.41,.64-1.19,.79-1.83,.1-.43,.28-.62,.67-.66,.53-.06,.83,.32,.62,.81-.1,.24-.25,.46-.32,.73-.11,.37-.05,.55,.35,.6,.21,.03,.41,.12,.6,.2,.17,.07,.24,.22,.2,.4-.05,.18-.19,.25-.37,.25-.4,0-.81,0-1.21,0v-.02"/>
      <path class="cls-1" d="M70.6,32.66c-.2,.09-.3,.24-.3,.46-.23-.38-.48-.23-.78-.07-1.28,.67-2.57,1.31-4.05,1.41-.39,.15-.8-.03-1.19,.12h-.49c-.5-.15-1.02,.04-1.52-.12-.14-.01-.28-.03-.42-.04,.13-.49,.57-.28,.86-.34,.43-.09,.89-.09,1.33,.02,2.01-.13,3.87-.74,5.59-1.77,.44-.26,.75-.1,.97,.33"/>
      <path class="cls-1" d="M167.51,63.85c-.5-.06-.77,.43-1.22,.52-.19-.31-.08-.52,.16-.71,1.01-.82,2.44-.37,2.72,.9,.12,.54,.22,.79,.82,.5,.34-.17,.69,0,.9,.34,.24,.37,.34,.79,.3,1.22-.01,.15-.17,.2-.31,.18-.15-.02-.25-.12-.25-.27-.04-1.08-.54-1.03-1.29-.58-.51,.31-.73,.08-.68-.5,.05-.63,.02-1.26-.65-1.61-.17-.14-.33-.18-.49,0"/>
      <path class="cls-1" d="M121.47,25c-.67,.06-1.05,.33-1.47,.47-.15,.05-.34,.09-.43-.09-.11-.21,0-.38,.19-.45,.65-.25,1.3-.49,1.97-.7,.16-.05,.41-.09,.45,.19,.04,.26,.34,.49,.02,.8-.48,.47-1.03,.88-1.36,1.49-.09,.16-.28,.18-.41,.06-.17-.16-.11-.39,0-.52,.28-.38,.62-.73,1.05-1.24"/>
      <path class="cls-1" d="M4.97,71.26c-.14,.42,.29,1.1-.29,1.14-.51,.04-.36-.67-.42-1.07-.12-.86-.2-1.72-.3-2.58-.03-.28-.06-.6,.31-.62,.32-.02,.34,.28,.37,.52,.11,.88,.22,1.77,.33,2.61"/>
      <path class="cls-1" d="M95.44,34.1c1.18-.2,2.38-.24,3.54-.6,.59-.18,1.13-.48,1.7-.68,.23-.05,.43-.01,.57,.2-1.16,.92-2.56,1.21-3.97,1.41-.61-.14-1.29,.16-1.83-.32"/>
      <path class="cls-1" d="M56.3,32.03c1.5,.67,3.03,1.29,4.62,1.74-.14,.32-.47,.21-.71,.33-1.45-.32-2.79-.89-4.09-1.59-.04-.2-.06-.38,.18-.47"/>
      <path class="cls-1" d="M163.44,60.96c-.74-.55-.1-1,.16-1.4,.2-.33,.55-.79,1.03-.42,.52,.39,.65,.94,.29,1.54-.38,.18-.49-.17-.69-.36-.25,.23-.29,.73-.79,.65"/>
      <path class="cls-1" d="M33.05,70.86c.07,.38,.06,.35-.31,.47-.16,.05-.37,.21-.16,.41,.15,.14,.36,.2,.55,.3-.47,.17-.96,.32-1.42,.52-.3,.13-.47,0-.6-.22-.12-.21-.03-.39,.1-.59,.44-.68,1.09-.87,1.84-.89"/>
      <path class="cls-1" d="M184.74,23.95c0,.23-.04,.35-.19,.4-.15,.05-.26-.03-.34-.14-.6-.8-1.2-1.6-1.81-2.39-.1-.13-.11-.24,0-.36,.1-.1,.23-.18,.35-.06,.78,.79,1.38,1.71,1.99,2.55"/>
      <path class="cls-1" d="M48.73,60.61c-.22,.03-.33-.03-.39-.17-.06-.14-.04-.29,.08-.36,.65-.42,1.25-.91,2-1.16,.2-.07,.3,.04,.41,.15,.1,.11,.13,.28,0,.35-.71,.42-1.43,.81-2.09,1.18"/>
      <path class="cls-1" d="M56.3,32.03c-.06,.16-.12,.32-.18,.47-.9-.29-1.68-.81-2.49-1.28-.2-.12-.4-.23-.26-.5,.16-.32,.38-.09,.54,0,.8,.43,1.59,.87,2.38,1.31"/>
      <path class="cls-1" d="M123.33,26.61c-.1,.18-.19,.34-.29,.5-.34,.58-.68,1.16-1.01,1.74-.11,.2-.24,.39-.5,.23-.22-.14-.11-.34-.02-.5,.4-.7,.82-1.39,1.22-2.08,.09-.16,.22-.25,.4-.15,.08,.04,.12,.15,.2,.25"/>
      <path class="cls-1" d="M22.96,60.18c.27,.05,.63-.33,.71,.01,.07,.28,.15,.63,.09,.93-.05,.29-.33,.22-.53,.11-.51-.27-.89-.66-.9-1.28,0-.27,.17-.53,.42-.51,.47,.06,.14,.48,.21,.73"/>
      <path class="cls-1" d="M52.08,58.17c-.34,.14-.55-.04-.62-.33-.18-.69,0-1.34,.34-1.94,.07-.13,.21-.18,.35-.15,.14,.03,.29,.17,.23,.28-.37,.68-.22,1.44-.33,2.15"/>
      <path class="cls-1" d="M52.58,69.27c-.12-.18-.49,0-.49-.35,1.25-.81,1.73-.78,2.61,.15-.18,.16-.35,.32-.53,.48-.46-.5-1.04-.28-1.58-.29"/>
      <path class="cls-1" d="M104.43,54.81c-.39,.35-.8,.22-1.22,.07h.02c-.05-.2-.44-.26-.26-.56,.18-.3,.41-.12,.63-.05,.07,.02,.17,.06,.23,.03,.6-.31,.6-.31,.96,.15,.1,.33-.04,.44-.36,.37"/>
      <path class="cls-1" d="M61.7,60.3l-.05-.41c-.12-.35-.04-.7,.02-1.04,.14-.04,.29-.1,.34,.11,.15,.21-.05,.48,.12,.69,.02,.15,.03,.3,.05,.45,.15,.33-.02,.69,.12,1.02,.01,.2,.03,.41,.04,.61,.02,.45,.3,.98-.37,1.21h0c-.13-.32,.04-.68-.11-1-.01-.2-.03-.39-.04-.59-.14-.33,.02-.7-.12-1.03"/>
      <path class="cls-1" d="M82.81,58.82c.61,0,1.13-.35,1.71-.44,.19-.03,.45-.18,.54,.13,.09,.29-.15,.37-.35,.44-.51,.17-1.03,.31-1.54,.48-.42,.14-.55-.05-.54-.43,.02-.1,.08-.15,.17-.18"/>
      <path class="cls-1" d="M48.79,57.35c.58,.21,1.15,.42,1.72,.64,.13,.05,.23,.17,.19,.31-.04,.17-.2,.28-.37,.22-.58-.2-1.14-.43-1.71-.65-.14-.06-.18-.2-.14-.33,.04-.15,.17-.19,.3-.18"/>
      <path class="cls-1" d="M103.64,31.84c-.17,.11-.34,.21-.5,.32-.51-.32-.78,.2-1.15,.34-.23,.03-.52,.31-.64-.15,.18-.15,.38-.28,.55-.45,.57-.55,1.14-.6,1.74-.06"/>
      <path class="cls-1" d="M60.21,34.1c.19-.2,.44-.28,.71-.33,.7,.29,1.45,.12,2.17,.22,.31,.05,.63,.08,.95,.12-.74,.04-1.5-.02-2.19,.32-.56-.04-1.11-.11-1.63-.33"/>
      <path class="cls-1" d="M59.88,57.9c.03,.36-.08,.51-.26,.46-.51-.13-1.02-.29-1.52-.46-.07-.02-.16-.21-.13-.26,.06-.1,.21-.24,.29-.23,.49,.11,.97,.26,1.45,.41,.1,.03,.19,.08,.17,.07"/>
      <path class="cls-1" d="M95.44,34.1c.62,.04,1.25,.07,1.83,.32-.14,.02-.29,.03-.43,.05-.44,.16-.91-.04-1.35,.12-.43,0-.87,0-1.3,0-.08-.02-.13-.07-.17-.14,.15-.25,.53-.05,.66-.33,.25,0,.5,0,.76-.01"/>
      <path class="cls-1" d="M62.46,55.49c-.42,.24-.42,.89-.94,1.06-.18,.06-.31-.16-.31-.37,0-.36,.68-1.12,.95-1.07,.17,.03,.25,.17,.29,.38"/>
      <path class="cls-1" d="M81.36,58.88c-.28,.67-.66,.09-.97,.05-.25-.03-.64-.08-.67-.46-.03-.33,.24-.31,.45-.25,.33,.1,.62,.33,.99,.28,.3,0,.29,.17,.2,.38"/>
      <path class="cls-1" d="M82.81,58.82c-.06,.06-.12,.12-.17,.18-.43-.02-.47-.28-.35-.61,.14-.37,.46-.59,.75-.82,.14-.11,.3-.13,.43,.01,.14,.16,.03,.3-.08,.42-.23,.25-.58,.41-.59,.82"/>
      <path class="cls-1" d="M63.69,56.13c-.16,.46-.7,.47-.94,.83-.09,.14-.27,.18-.43,.07-.06-.04-.14-.14-.13-.19,.08-.38,.4-.56,.69-.74,.2-.13,.41-.29,.67-.17,.06,.03,.09,.12,.14,.2"/>
      <path class="cls-1" d="M138.52,26.79c.17,.06,.3,.17,.37,.35-.44,.24-.89,.47-1.32,.71-.17,.1-.31,.1-.42-.05-.15-.2-.04-.37,.14-.46,.41-.19,.75-.52,1.23-.55"/>
      <path class="cls-1" d="M136.11,26.17c-.16-.02-.37-.03-.57-.09-.06-.02-.13-.22-.1-.26,.34-.42,.83-.25,1.26-.3,.21-.03,.37,.07,.4,.3,.02,.16-.09,.27-.22,.29-.24,.04-.48,.04-.77,.07"/>
      <path class="cls-1" d="M21.74,61.56c-.36-.2-.74-.4-1.1-.62-.06-.04-.09-.19-.08-.28,.02-.15,.17-.24,.3-.19,.42,.15,.84,.33,1.19,.64,.08,.07,.13,.17,.04,.28-.09,.11-.17,.21-.35,.17"/>
      <path class="cls-1" d="M103.21,54.88c.4,.34,.31,.62-.17,.69-.37,.05-.93,.58-1.1,.03-.18-.54,.59-.41,.9-.63,.1-.07,.26-.05,.38-.08,0,0-.02-.02-.02-.02"/>
      <path class="cls-1" d="M64.1,58.5c-.31-.11-.81,.02-.92-.49-.03-.15,.22-.38,.4-.24,.36,.29,1.02-.23,1.16,.4,.08,.37-.35,.29-.63,.33"/>
      <path class="cls-1" d="M104.88,54.44c.19-.39,.08-1.22,.63-1.06,.57,.17-.09,.78-.05,1.22,0,.07-.13,.15-.2,.23-.34,.08-.45-.06-.38-.38"/>
      <path class="cls-1" d="M25.53,60.46c-.3,0-.98-.87-.92-1.13,.03-.14,.12-.23,.26-.24,.19-.01,.94,.96,.9,1.16-.03,.14-.11,.25-.24,.22"/>
      <path class="cls-1" d="M60.87,56.87c-.06,.28-.18,.43-.35,.35-.45-.19-.68-.58-.77-1.04-.03-.17,.15-.34,.31-.26,.44,.2,.45,.75,.8,.95"/>
      <path class="cls-1" d="M105.74,22.63c.16,.12-.04,.38,.2,.47-.41,.17-.83,.95-1.19,.39-.27-.41,.59-.54,.92-.83,.02-.02,.05-.02,.08-.02"/>
      <path class="cls-1" d="M81.36,58.88c-.02-.15-.04-.3-.2-.38,.12-.26-.23-.74,.26-.78,.41-.03,.48,.48,.55,.76,.11,.47-.38,.29-.6,.39"/>
      <path class="cls-1" d="M63.01,57.77c-.07,.33-.25,.53-.54,.53-.26,0-.45-.19-.45-.46,0-.32,.25-.45,.53-.47,.29-.02,.42,.16,.46,.4"/>
      <path class="cls-1" d="M60.95,58.59c-.25-.08-.39-.25-.38-.53,.02-.34,.28-.48,.54-.47,.19,0,.4,.2,.35,.46-.05,.28-.16,.52-.51,.54"/>
      <path class="cls-1" d="M32.73,67.75c.17-.15,.42-.19,.44,.05,.07,.92,.09,1.84,.1,2.76,0,.1-.15,.2-.23,.3,0-.88,.01-1.76,.03-2.64,0-.25,.03-.49-.33-.47"/>
      <path class="cls-1" d="M61.97,62.93c.42-.31,.33-.78,.37-1.21,.17,1.04,.27,2.09-.02,3.13,0-.45,0-.9,0-1.35,0-.25-.07-.42-.35-.44-.04-.04-.04-.08,0-.12"/>
      <path class="cls-1" d="M176.44,70.4h1.8c-.57,.46-1.2,.28-1.82,.28,0-.09,0-.18,.01-.28"/>
      <path class="cls-1" d="M94.4,34.1c-.84,.28-1.68,.05-2.52,0,.84-.26,1.68-.18,2.52,0"/>
      <path class="cls-1" d="M101.34,32.34c.16,.27,.46-.05,.64,.15-.19,.25-.4,.47-.74,.52-.19-.07-.38-.13-.57-.2,.22-.16,.44-.31,.67-.47"/>
      <path class="cls-1" d="M94.02,34.44c.06,.05,.11,.1,.17,.14h-2.11c.63-.32,1.3-.09,1.94-.14"/>
      <path class="cls-1" d="M104.88,54.44c.02,.23,.13,.38,.38,.38,.06,.04,.12,.09,.18,.13-.23,.42-.57,.08-.85,.13-.05-.09-.11-.18-.16-.27,.21-.03,.34-.15,.36-.37,.03-.01,.06-.01,.09,0"/>
      <path class="cls-1" d="M179.23,69.75c.49,0,.99-.08,1.46,.12-.04,.05-.09,.1-.13,.15-.42-.21-.89-.07-1.33-.15-.06-.03-.08-.05-.06-.08,.02-.03,.04-.04,.06-.04"/>
      <path class="cls-1" d="M62.26,34.47c.51,.01,1.03-.14,1.52,.12-.51,.04-1.02,.07-1.52-.12"/>
      <path class="cls-1" d="M95.49,34.59c.43-.27,.89-.1,1.35-.12-.44,.18-.89,.15-1.35,.12"/>
      <path class="cls-1" d="M64.27,34.58c.38-.26,.79-.1,1.19-.12-.38,.18-.79,.14-1.19,.12"/>
      <path class="cls-1" d="M61.67,58.85c.15,.35-.06,.69-.02,1.04-.1-.35-.3-.7,.02-1.04"/>
      <path class="cls-1" d="M167.51,63.85c-.04-.12-.13-.27,.1-.29,.22-.03,.37,.05,.4,.29h-.49"/>
      <path class="cls-1" d="M46.39,73.66c-.22,.25-.44,.56-.65,0,.22,0,.44,0,.65,0"/>
      <path class="cls-1" d="M62.29,61.11c-.25-.31-.11-.67-.12-1.02,.17,.32,.15,.67,.12,1.02"/>
      <path class="cls-1" d="M61.7,60.3c.24,.32,.11,.68,.12,1.03-.13-.33-.15-.68-.12-1.03"/>
      <path class="cls-1" d="M61.85,61.93c.26,.31,.12,.67,.11,1.01-.21-.31-.1-.67-.11-1.01"/>
      <path class="cls-1" d="M206.67,63.1c.18-.06,.35-.11,.53-.17,.05,.05,.11,.11,.16,.16-.21,.17-.45,.16-.69,.11,0-.03,0-.06,0-.1"/>
      <path class="cls-1" d="M74.87,49.89c.47,.17,.22,.33,0,.49,0-.16,0-.32,0-.49"/>
      <path class="cls-1" d="M62.13,59.65c-.44-.16-.02-.47-.12-.69,.18,.21,.13,.45,.12,.69"/>
      <path class="cls-1" d="M126.56,67.92c.1,.06,.2,.12,.31,.17,0,.18-.11,.28-.26,.36-.02-.18-.03-.35-.05-.53"/>
      <path class="cls-1" d="M122.02,45.03l.59,.14c-.04,.06-.08,.12-.12,.18-.21-.02-.4-.08-.46-.32"/>
      <path class="cls-1" d="M99.21,71.37c.24-.11,.11-.35,.19-.52,.13,.2,.22,.43,.1,.64-.07,.12-.21-.02-.29-.12"/>
      <path class="cls-1" d="M141.99,43.07c.05,0,.11,0,.16,0,0,.21-.06,.4-.25,.52-.15-.22,.04-.36,.09-.52"/>
      <path class="cls-1" d="M52.06,58.19s0,0,.01,0c0,0,0,0,0,0"/>
      <path class="cls-1" d="M148.85,35.3c-.14-.17-.27-.34-.4-.51-.32-.43-.7-.77-.63-1.47,.04-.38,.12-1.2-.57-1.35-1.11-.25-1.76-1.12-2.58-1.75-1.69-1.3-3.36-2.63-5.04-3.95-.29-.23-.61-.41-.96-.21-.27,.15-.29,.44-.14,.71,.03,.21,.26,.23,.37,.35,.07,.26,.5,.26,.45,.64-.18,.02-.37,.03-.55,.05-.27,.02-.5,.15-.5,.43,0,.27,.25,.4,.48,.48,.12,.04,.27,.01,.4,.03,.62,.06,1.35-.04,1.85,.24,.8,.45,1.46,1.16,2.28,1.84-.24,.02-.34,.04-.44,.03-3.12-.61-6.26-1.18-9.37-1.85-1.43-.31-2.91-.47-4.21-1.32-2.28-1.49-4.65-2.84-6.57-4.84-.24-.25-.61-.47-.92-.12-.31,.34-.16,.67,.17,.97,.41,.37,.88,.68,.9,1.35,0,.28,.4,.4,.71,.44,.18,.02,.37-.04,.54,.1,1.12,.95,2.23,1.91,3.55,2.81-.6,.2-.67,.61-.83,1.03-.17,.43,.13,.91-.18,1.26-1.35,1.51-2.58,3.13-3.76,4.78-.31,.43-1.05,.8-.31,1.48,.04,.04-.08,.29-.15,.42-1.55,2.6-2.91,5.29-4.19,8.02-2.29,4.89-4.97,9.62-6.41,14.87-.07,.26-.17,.38-.48,.4-2.02,.14-4.03,.47-6.1,.77-.03-1.72,.16-3.43-.16-5.11-.02-.1,0-.25,.13-.24,.89,.05,.85-1.1,1.62-1.24,.18-.03,.31-.27,.19-.46-.16-.25-.36-.07-.56,0-.36,.15-.53,.65-1.02,.56-.27,.13-.6-.14-.85,.13-.82,.41-.86,.52-.23,1.15,.2,.2,.21,.43,.23,.66,.11,1.35,.15,2.7,.07,4.06-.03,.49-.2,.62-.67,.67-1.13,.1-2.26,.19-3.36,.48-.64,.16-1.3,.39-1.58,1.02-.22,.5-.58,.58-1.01,.59-.84,.03-1.68,.05-2.52,.06-.14,0-.34,.11-.36-.16-.11-1.53-.82-2.88-1.3-4.3-.57-1.68-1.14-3.37-2.21-4.83-.57-.77-1.33-1.06-2.24-1.06-.51,0-.83,.27-.88,.77-.05,.5,.22,.87,.72,.9,.73,.04,1.09,.48,1.4,1.06,1.28,2.38,1.99,4.98,2.89,7.51-.09,.04-.14,.08-.18,.08-3.39,0-6.77-.06-10.16,.09-.48,.02-.51-.22-.53-.59-.05-1,.03-2-.17-3-.07-.32,0-.72-.48-.66-.41,.05-.35,.42-.33,.72,.07,.97,.12,1.95,.23,2.91,.06,.48-.02,.68-.56,.68-.95,0-1.89,.07-2.84,.13-1.14,.07-2.29,.15-3.43,.23-.1-.08-.2-.17-.3-.25,1.37,.2,1.07-.52,1.03-1.12-.02-.28-.18-.71,.43-.56,.25,.06,.5-.06,.53-.37,.04-.32-.13-.47-.45-.54-.27-.06-.76,.05-.67-.47,.1-.6-.54-1.36,.35-1.81,.28-.14,.52-.33,.45-.69-.07-.36-.31-.58-.68-.56-.38,.02-.38-.19-.45-.49-.18-.8,.32-.88,.88-.94,.27-.03,.6-.02,.56-.41-.03-.33-.33-.44-.6-.41-.81,.11-.71-.33-.61-.86,.07-.38,.47-.82,.13-1.15-.52-.5-.39-1.08-.36-1.64,.1-2.11,.22-4.21,.33-6.32,.01-.24,.1-.56-.23-.59-.33-.03-.34,.31-.35,.54-.08,1.43-.3,2.86-.2,4.3,.15,.16,.09,.33,0,.49-.33,1.25,.13,2.59-.44,3.81-.03,.07,.05,.21,.1,.3q.5,.94-.49,1.15c-.26,.06-.47,.18-.47,.47,0,.25,.18,.44,.4,.42,.9-.07,.6,.65,.67,1.06,.12,.63-.43,.38-.72,.44-.36,.07-.6,.28-.65,.62-.04,.3,.17,.6,.43,.6,1.16,0,.78,.81,.8,1.42,0,.31-.04,.55-.45,.41-.3-.1-.56,0-.64,.3-.09,.32,.13,.55,.42,.58,.62,.08,.68,.46,.64,.96-.02,.3-.02,.6,.03,.89,.07,.41-.02,.54-.47,.58-1.31,.12-2.63,.26-3.93,.48-2.42,.4-4.9,.48-7.33,1.29,.18-.59-.14-.95-.45-1.32,.17-.51,.03-1.04,.07-1.55,.02-.27-.15-.38-.41-.24-.25,.51,.03,1.07-.2,1.63-.4-.19-.95-.47-1.21,0-.7,1.25-1.71,1.35-2.92,1.01-.2-.06-.43-.01-.65-.03-1.54-.09-3.08-.21-4.62-.16-.26,0-.44,.03-.47-.35-.13-1.7-.2-3.4-.17-5.11,0-.22,.11-.38,.2-.58,.39-.81,1.14-1.1,1.85-1.47,.19-.1,.4-.26,.22-.51-.14-.2-.32-.1-.5,0-.47,.24-.94,.47-1.42,.7-.14,.2-.24,.48-.43,.55-.4,.15-.44,.37-.46,.78-.1,1.78-.16,3.56,.11,5.33,.08,.56-.05,.75-.62,.76-2.22,.05-4.44,.12-6.66,.21-.34,.01-.38-.11-.43-.39-.23-1.29-.17-2.58-.08-3.88,.02-.28,.28-.65-.15-.74-.51-.11-.45,.4-.47,.67-.1,1.24-.16,2.49,.05,3.73,.08,.46,0,.63-.5,.59-.84-.06-1.68-.07-2.52-.08-.6-.01-1.2,0-1.8,0,.56-.24,.84-.93,1.53-.86,.3,.03,.46-.17,.47-.44,0-.27-.17-.46-.45-.48-.32-.02-.65-.05-.97-.01-.56,.06-.58-.13-.57-.66,.01-.86,.64-1.91-.53-2.54-.07-.04-.07-.24-.07-.38-.02-.97-.03-1.95-.06-2.92,0-.24,.01-.4,.29-.48,.76-.21,1.08-.84,1.32-1.52,.15-.42,.17-.86-.39-.95-.5-.08-.74,.27-.75,.74,0,.31-.01,.59-.56,.69,.34-1.24-.61-2.66,.88-3.59,.1-.06,.15-.22,.2-.35,.14-.37,.41-.81-.06-1.07-.49-.27-.61,.24-.8,.55-.01,.02-.09,0-.11,0v-2.48c.35,0,.64,.01,.94,0,.25-.01,.62,.11,.64-.29,.02-.42-.34-.4-.65-.41-1.29-.03-2.59,0-3.88-.23-.46-.08-1.12-.18-1.14,.52-.02,.74,.64,.29,.99,.39,.25,.07,.65-.19,.69,.31,.06,.82,.15,1.63-.03,2.52-.23-.2-.39-.34-.54-.49-.16-.15-.31-.33-.54-.1-.19,.19-.15,.39-.03,.58,.09,.14,.18,.3,.31,.37,.89,.41,.91,1.15,.8,1.97-.06,.48-.04,.97-.07,1.46-.01,.2,.1,.51-.15,.57-.3,.08-.5-.18-.6-.44-.15-.37-.26-.76-.38-1.15-.06-.18-.17-.3-.35-.24-.11,.03-.23,.16-.26,.27-.14,.54,.64,2.19,1.2,2.44,.28,.12,.46,.2,.44,.55-.05,.84-.05,1.68-.1,2.52-.02,.35-.04,.73-.57,.68-.17-.02-.32,.09-.34,.28-.02,.19,.11,.34,.27,.35,.47,.04,.4,.26,.29,.59-.1,.3-.11,.64-.11,.96,0,.64-.13,1.12-.95,.96-.27-.05-.59,0-.66,.33-.08,.34-.09,.83,.24,.94,.57,.19,.52,.73,.79,.97-2.36,1.21-4.85,.24-7.28,.5-.34,.04-.4-.1-.37-.43,.12-1.54,.23-3.08,.32-4.62,.02-.37,.06-.58,.51-.36,.2,.1,.48,.19,.68-.05,.23-.28-.01-.51-.14-.73-.26-.42-.29-.96-.71-1.3-.02-.02,.15-.39-.15-.47-.27-.07-.38,.17-.49,.34-.25,.39-.33,.78,.24,.94,.28,.08,.34,.28,.33,.46-.01,.19-.21,.16-.38,.13-.41-.06-.37,.26-.39,.52-.08,1.24-.14,2.49-.25,3.73-.19,1.93-.2,1.91-2.2,1.85-.37-.01-.48-.04-.44-.47,.13-1.35,.14-2.71,.03-4.06-.02-.23,.05-.57-.31-.54-.37,.03-.22,.37-.23,.59,0,1.27-.04,2.55,.01,3.82,.03,.61-.19,.75-.72,.66-.67-.11-1.33-.13-2.03-.05-1.15,.12-2.33,.02-3.49,.07-.58,.03-.76-.14-.74-.71,.07-1.43,.1-2.87,.12-4.3,0-.28,.23-.78-.25-.79-.44,0-.25,.52-.28,.8-.16,1.43-.14,2.87-.11,4.3,.01,.56-.09,.72-.69,.73-2.95,0-5.9,.07-8.86,.11-.33,0-.68-.02-.7,.45-.02,.39,.23,.49,.56,.54,.21,.03,.4,.13,.62,.12,4.06-.15,8.12-.25,12.19-.25,.14,0,.37-.16,.47,.15-.63,.32-1.16,.65-1.99,.36-.63-.22-1.61-.42-2.09,.33-.3,.47-.66,.68-1.1,.84-1.3,.47-2.34,1.33-3.37,2.19-.22,.18-.41,.29-.7,.32-.89,.08-1.77,.19-2.66,.33-.46,.07-.85,.31-.76,.86,.07,.42,.44,.56,.79,.51,3.11-.51,6.24-.66,9.38-.8,2.41-.11,4.81-.3,7.22-.15,1.79,.1,3.57,.18,5.34,.46,.31,.05,.47-.08,.56-.33,.09-.27-.13-.38-.3-.5-.15-.11-.46,.04-.49-.19-.13-.91-.87-.78-1.44-.82-1.46-.1-2.92-.15-4.38-.18-.43,0-.65-.07-.62-.57,.04-.76,.03-1.52,0-2.27-.01-.37,.12-.46,.46-.45,.92,.03,1.84,.02,2.76,.13,.46,.05,.79,.2,1.1,.54,.7,.75,1.45,1.46,2.18,2.19,.14,.14,.27,.39,.52,.13,.25-.26,0-.4-.13-.53-.69-.65-1.39-1.28-2.24-2.06,.8-.06,1.39,.23,1.7-.47,.02-.05,.83-.34,1.02,.38,.08,.29,.17,.57,.17,.86,0,1.08-.02,2.17-.05,3.25-.01,.41,.11,.74,.53,.76,.4,.01,.49-.29,.5-.67,.02-.73,.09-1.46,.15-2.19,.05-.59-.07-1.29,.21-1.75,.29-.49,1.08-.29,1.63-.47,.08-.02,.15-.05,.23-.08,.17-.08,.38-.06,.38,.12-.05,.99,.26,2-.07,2.99h0c-.09,.09-.04,.35-.13,.33-.35-.05-.55,.13-.52,.42,.05,.39,.39,.44,.73,.42,.46-.12,.92-.25,1.39-.38,.15-.52-.06-.85-.56-1.01-.41-.65-.21-1.3-.02-2.03,.23,.25,.37,.45,.52,.64,.83,1.06,1.78,1.07,2.6,.03q.89-1.14,2.01-.18s.08,.07,.12,.11c.72,.6,1.06,.6,1.75-.02q.99-.89,2.1-.19c.33-.04,.71,.35,.98-.12-.19-.2-.44-.29-.63-.53-.97-1.29-1.57-1.28-2.63-.07-.09,.1-.19,.19-.27,.3-.28,.34-.53,.35-.86,.02-.46-.45-.9-.94-1.51-1.19-.67-.15-.96,.3-1.26,.77-.98,1.51-1.13,1.51-2.19,.08-.16-.21-.3-.43-.51-.72,1.8-.29,3.53-.32,5.25-.36,2.16-.14,4.33-.04,6.49-.15,4.22-.23,8.44-.14,12.66,.13,.45,.03,.64,.15,.58,.68-.18,1.61,.08,3.24-.25,4.86-.1,.46,.15,.86,.68,.95,.49,.08,.84-.13,.99-.62,.08-.28,.17-.55,.25-.84,.7,.43,1.59,.22,2.21,.79,.08,.07,.36-.04,.53-.11,1.13-.42,2.32-.57,3.49-.81,1.67-.35,3.38-.41,5.08-.54,3.6-.26,7.2-.12,10.8-.22,3.22-.09,6.44,.02,9.63,.52,.85,.13,1.71,.51,2.56,.33,.7-.15,1.25,.18,1.88,.21,.51,.03,1.13-.83,1.55,.17,.04,.08,.34-.04,.52-.12,.21-.09,.31-.39,.6-.34,.19,.51,.09,1.21,.59,1.47,.54,.27,.46,.65,.47,1.06,0,.24,0,.49,0,.73,.01,.28,.07,.57,.42,.58,.4,.02,.49-.29,.5-.6,.02-.6,.02-1.19,.02-1.79,0-2.54,0-5.07,0-7.71,.47,.24,.87,.37,1.35,.18-.04,.3-.03,.52-.11,.72-.11,.28-.08,.52,.22,.56,.28,.04,.27-.25,.35-.45,.14-.38,.04-.85,.46-1.26,.13,.39,.24,.68,.34,.98,.07,.21,.22,.31,.44,.26,.24-.05,.27-.24,.23-.44-.05-.26-.12-.51-.19-.81,.59-.06,1.14-.11,1.72-.17-.09,.42-.19,.76-.23,1.11-.03,.24-.24,.61,.14,.69,.44,.09,.38-.38,.44-.62,.11-.42,.09-.88,.49-1.3,.08,.37,.13,.66,.21,.94,.1,.32,0,.94,.47,.83,.41-.1,.13-.65,.09-1-.02-.16-.07-.31-.08-.48-.01-.12-.04-.34,.12-.33,.83,.05,1.22-.81,2-.94-.13,.73-.26,1.44-.4,2.15-.05,.25-.25,.6,.13,.69,.47,.11,.35-.35,.44-.6,.16-.42,.07-.9,.38-1.41,.17,.57,.12,1.05,.22,1.51,.16,.77,.29,1.62,.12,2.37-.15,.64-.24,1.25-.24,1.89,0,.9-.06,1.79-.21,2.67-.11,.68-.18,1.34,.14,2.04-1.08,.06-2.1,.18-3.12,.17-2.01-.02-4,.19-5.99,.43-2.2,.26-4.45,.55-6.6-.14-2.51-.81-4.92-.19-7.36,.2,.22,.45,.68,.18,1.01,.33,1.43,.06,2.86-.06,4.3,.12,2.23,.27,4.46,.55,6.71,.38,3.21-.24,6.42-.46,9.64-.64,3.21-.18,6.43-.31,9.65-.42,3.17-.11,6.34-.05,9.49,.3,3.73,.42,7.46,.2,11.19,.27,.4,0,.73-.24,.66-.54-.13-.58,.19-.46,.5-.45,1.73,.06,3.45,.23,5.17,.48,.22,.03,.55,.14,.59-.22,.03-.32-.27-.35-.51-.39-1.9-.27-3.82-.4-5.74-.51-3.92-.2-7.83,.3-11.76,.06-5-.31-10.01,.1-15.01,.35-.2,0-.5,.17-.58-.07-.07-.2-.02-.54,.12-.68,.27-.29,.38-.6,.35-.95-.23-3.68-.16-7.35,.26-11.02,.06-.49,.02-.92-.44-1.19-.33-.19-.14-.41-.04-.62,.45-.98,.58-2.07,1.34-2.94,.5-.58,.72-1.42,1.06-2.14,.59-1.56,1.43-3.01,2.13-4.52,.16-.34,.32-.39,.66-.2,1.65,.92,1.7,1.45,.22,2.66-.94,.77-2.05,1.3-2.95,2.12-.1,.66,.43,.76,.84,1.01,.44,.27,1.3,.07,1.33,.63,.02,.48-.65,.87-1.07,1.26-.24,.22-.48,.44-.71,.67-.3,.31-.58,.64-.75,1.05-.07,.19-.27,.4,.03,.56,.26,.14,.36-.04,.47-.26,.32-.64,.85-1.1,1.36-1.59,.41-.39,.82-.79,1.15-1.25,.42-.6,.25-1.01-.44-1.24-.53-.18-1.1-.23-1.61-.62,.7-.48,1.38-.91,2.03-1.39,.74-.54,1.52-1.05,1.92-1.93,.26-.67,0-1.14-.55-1.52-.18-.12-.38-.2-.54-.34-.27-.24-.89-.35-.79-.68,.16-.52,.33-1.14,.97-1.4,.79-.32,1.55-.7,2.47-1.13-.47,1.76-.92,3.42-1.36,5.08-.06,.26-.11,.53-.17,.79-.67,2.83-1.35,5.66-1.99,8.5-.14,.63-.11,1.31-1.03,1.32-.13,0-.33,.16-.37,.29-.21,.74-.79,.64-1.33,.65-.32,0-.65,0-.97,.05-.41,.08-.63,.27-.38,.74,.11,.2,.38,.38,.2,.69-.47,.83-.47,1.77-.51,2.68-.08,1.71,.81,3.36,.37,5.11-.05,.2,.14,.41,.38,.45,.21,.04,.44-.07,.45-.25,.04-.49,.39-.41,.7-.44,3.75-.45,7.51-.39,11.27-.25,2.76,.1,5.51,.38,8.28,.19,.51-.03,.85-.14,1.17-.65,.35-.56-.06-1.04,.05-1.42,.29-1.06,.25-2.14,.49-3.19,.75-3.2,1.48-6.4,2.27-9.59,1.13-4.57,2.24-9.13,3.85-13.58,1.23-3.39,2.45-6.75,4.13-10,.33,.37,.62,.73,.93,1.06,.15,.16,.32,.31,.56,.12,.24-.19,.24-.4,.06-.63M20.85,71.01c-.62-.01-1.24,.01-1.86,0-2.3-.03-4.57,.3-7,.51,.64-.68,1.33-.98,1.99-1.33,.46-.24,.95-.42,1.27-.94,.27-.44,.92-.42,1.33-.19,.67,.36,1.2,.13,1.74-.19,.51-.3,1.03-.6,1.49-.97,.43-.35,.87-.18,1.32-.17,.29,.01,.23,.25,.23,.43,0,.81-.01,1.62,0,2.43,.01,.4-.19,.42-.51,.42m15.64-7.1c-.16-.02-.23-.1-.21-.26,.08-.7,.15-1.41,.22-2.11,.06,0,.13,0,.19,0,.04,.74,.09,1.49,.11,2.23,0,.17-.17,.16-.31,.14m.37-8.27c.06,1.23,.2,2.46-.05,3.69,.13,.48,.2,.97-.11,1.56-.24-.61-.1-1.09-.04-1.57-.17-2.64-.35-5.28-.52-7.92-.03-.49-.09-.97-.13-1.45-.08-1.05-.07-1.05,1.01-.97-.19,2.22-.27,4.44-.16,6.66m25.51,15.8c.19-.99-.02-1.93,.31-2.95,.62,.8,1.19,1.54,1.78,2.31-.71,.22-1.36,.41-2.1,.63m3.98-3.19c-.06,.48-.11,.96-.16,1.45-.03,.33,.05,.7-.46,.8-.41,.08-.72,.14-1.01-.31-.54-.81-1.17-1.55-1.77-2.32-.16-.21-.38-.4-.24-.83,.8,.66,1.58,.11,2.34,.02,1.5-.19,1.49-.25,1.3,1.19m.37,1.97c.05-1.09,.18-2.15,.48-3.18,.16-.54,.44-.33,.66,0,.59,.83,1.18,1.66,1.83,2.57-1.06,.22-1.98,.41-2.97,.61m3.96-.78c-.33,.07-.44-.13-.58-.32-.56-.79-1.1-1.59-1.74-2.52,1.17-.12,2.23-.23,3.41-.35-.34,.96-.59,1.82-.78,2.7-.04,.18,0,.41-.31,.48m1.59-.25c-.45,.1-.67,0-.53-.5,.15-.51,.31-1.02,.46-1.53,.21-.69,.55-.54,.88-.12,.43,.53,.61,1.19,.95,1.83-.66,.12-1.22,.2-1.77,.32m3.8-.57c-1.33,.15-1.33,.17-1.91-1.07-.21-.46-.5-.89-.91-1.38,1.48-.07,2.84-.21,4.25-.16-.27,.72-.54,1.39-.76,2.08-.12,.35-.29,.49-.67,.53m1.27-.19c.19-.7,.41-1.37,.75-1.98,.37-.66,.57-.65,1.02-.01,.38,.53,.63,1.12,.79,1.76-.85,.19-1.68,.25-2.56,.22m4.75-.25c-1.45,.02-1.44,.06-2.05-1.28-.13-.29-.29-.57-.51-1h4.23c-.25,.57-.48,1.05-.68,1.55-.18,.46-.4,.72-.99,.73m1.3,.01c.35-.74,.62-1.36,.92-1.96,.26-.51,.59-.55,.87-.02,.32,.62,.59,1.26,.92,1.97h-2.7Zm6.74,.41c.38-.68,.68-1.24,1.03-1.86,.51,.65,.6,1.4,.89,2.13-.65,.02-1.23-.17-1.92-.27m4.51,.31c-.15,.24-.28,.61-.66,.45-.45-.2-1.13,.06-1.34-.68-.2-.7-.47-1.37-.74-2.05-.13-.33-.31-.64-.74-.65-.42-.01-.52,.34-.7,.6-.16,.22-.3,.46-.37,.71-.3,1.02-.95,1.28-1.99,1.16-.9-.11-1.6-.24-1.81-1.28-.09-.43-.36-.83-.6-1.33,3.41-.1,6.72-.39,10.04-.66,.83-.07,1.68,.03,2.52,.05,.32,0,.47,.09,.49,.46,.07,.89,.2,1.77,.3,2.65,.04,.35,.08,.67-.44,.79-.45,.1-.78,.14-.98-.36-.21-.52-.46-1.03-.68-1.55-.13-.31-.28-.61-.67-.61-.36,0-.47,.32-.62,.57-.35,.57-.67,1.16-1.02,1.74m4.56,2.45c-.59-.05-1.05-.23-1.48-.74-.52-.62-1.44-.66-2.21-.86-.48-.13-.51-.22-.23-.61,.36-.49,.64-1.04,1-1.64,.28,.61,.53,1.12,.75,1.66,.25,.63,.72,.93,1.34,.74,.97-.31,1.01,.27,1.03,.94,.03,.21,.22,.48-.19,.52m3.83-7.41c-.19,.11-.41,.3-.66,.12-.33-.24-.73-.33-1.16-.43,.43-.25,.87-.23,1.28-.32,.25-.06,.4-.03,.52,.22,.07,.15,.2,.31,.01,.42m.78-.35c-.08-.01-.21-.19-.19-.22,.15-.3,.44-.28,.78-.31-.12,.37-.25,.6-.59,.54m3.3-.76c.04-.49,.38-.12,.54-.24-.14,.18-.32,.25-.54,.24m3.96,.07c-.06,.2-.28,.47-.46,.32-.38-.29-.74-.52-1.23-.48-.06,0-.13-.14-.26-.3,.65,0,1.16,0,1.68,0,.31,0,.35,.24,.28,.46m12.02-21.81c.66-1.08,1.32-2.16,1.98-3.23,.14-.03,.23,0,.16,.17-.43,1.15-.9,2.3-1.29,3.47-.18,.52-.46,.29-.74,.21-.41-.12-.27-.36-.12-.61m-.85,1.47c.13-.21,.17-.65,.62-.4,.22,.13,.63,.07,.64,.37,0,.33-.17,.65-.6,.75-.38,.09-.74,.27-1.31,.49,.27-.52,.43-.88,.65-1.21m-.98,2.09c.47-.43,1.09-.49,1.75-.81-.17,.52-.29,.92-.42,1.31-.08,.07-.15,.08-.22,.07,.03,.04,.07,.06,.09,.11-.08,.29-.06,.8-.38,.77-.48-.05-.97-.3-1.35-.59-.09-.07,.16-.67,.53-.86m-1.9,3.34c.14-.28,.23-.45,.32-.62q.68-1.3,2.17-.66c-.75,.6-1.53,.97-2.49,1.28m3.58,2.02c.28-1.2,.48-2.41,.98-3.55,.22-1.23,.42-2.47,1.26-3.48,.31-.37-.03-.76,.12-1.19,1.12-3.23,2.39-6.4,3.77-9.52,.78-1.78,.8-1.77,2.75-1.48,.29,.04,.59,.06,.95,.09-.24,.65-.73,1.11-1.11,1.64-3.13,4.34-5.57,9.03-7.31,14.08-.03,.07-.07,.14-.11,.2-.35,1.48-.7,2.97-1.06,4.45-.12,.47-.15,.9,.4,1.03,.55,.13,.67-.35,.76-.74,.32-1.39,.54-2.79,1.08-4.11,.44-2.12,1.36-4.08,2.27-6.02,1.56-3.33,3.44-6.47,5.69-9.39,.05-.06,.14-.12,.15-.19,.16-1.04,.8-.84,1.51-.56-1.64,2.48-3.17,5.01-4.6,7.6-1.61,2.92-3.11,5.9-4.57,8.89-.3,.8-.59,1.61-.89,2.41-.1,.28-.25,.62,.12,.78,.42,.17,.48-.25,.58-.5,2.63-6.31,5.89-12.29,9.49-18.09,.72-1.16,.77-1.19,1.9-.87-.7,1.5-1.73,2.78-2.7,4.1-1.97,2.7-3.31,5.73-4.8,8.7-1.63,3.25-3.46,6.4-4.79,9.79-.9,2.29-1.55,4.65-1.55,7.15,0,.82,.33,1.25,1,1.31,.68,.05,1.21-.38,1.26-1.18,.28-4.79,2.1-9.1,4.06-13.38,1.75-3.82,3.27-7.74,5.42-11.36,.76-1.28,1.58-2.51,2.53-3.66,.14-.17,.39-.38,.36-.51-.37-1.67,.77-.41,1.1-.71,.04,.05,.08,.1,.13,.15-.77,1.22-1.57,2.43-2.32,3.66-2.83,4.64-5.26,9.47-7.01,14.62-.1,.28-.38,.68,.01,.83,.45,.17,.54-.34,.66-.65,1.71-4.64,3.84-9.07,6.37-13.32,.9-1.51,1.89-2.96,2.79-4.46,.33-.55,.68-.69,1.28-.35-1.32,1.74-2.61,3.51-3.71,5.4-2.61,4.45-4.68,9.14-6.42,14-1.04,2.92-2.04,5.84-2.82,8.84-.15,.57-.22,1.17-.29,1.76-.04,.31,.02,.61,.42,.66,.42,.05,.55-.19,.63-.56,2.09-9.47,5.49-18.41,10.73-26.6,.67-1.04,1.46-2.01,2.2-3.01,.16-.22,.27-.4,.64-.33,1.15,.22,1.16,.2,.51,1.19-3.77,5.74-6.81,11.85-9.3,18.25-.44,1.12-.84,2.26-1.24,3.4-.12,.34-.23,.72,.21,.9,.49,.21,.59-.21,.74-.52,.45-.96,.62-2.05,1.2-2.95,.17-.88,.6-1.66,.93-2.48,2.31-5.71,5.11-11.16,8.48-16.31,.18-.27,.39-.52,.57-.79,.12-.19,.25-.25,.46-.13,.31,.17,.06,.29-.02,.43-3.36,6.17-6.74,12.33-9.46,18.82-.08,.19-.21,.37-.32,.55-.79,1.68-1.61,3.34-2.37,5.03-.8,1.76-1.52,3.56-2.07,5.41-.13,.44-.31,.57-.77,.55-2.65-.14-5.29-.23-7.94-.35-.33-.01-.68,.07-.64-.54,.32-4.31,.76-8.6,1.74-12.81m17.5-5.87c.34-.64,.58-1.1,.82-1.56,.19,.7-.06,1.15-.82,1.56m-20.43,22.71c-.19,1.28-.71,2.42-1.43,3.49-.2,.3-.49,.15-.74,.17-.3,.02-.6-.02-.89-.03-.2,0-.39,.06-.47,.25-.07,.17,.05,.29,.17,.42,.17,.19,.31,.41,.46,.62-.44,.26-.93,.15-1.37,.28-.13,.04-.3,.1-.38-.02-.08-.14-.07-.36,.07-.45,.99-.65,.8-1.6,.65-2.53-.09-.57-.15-1.11,.36-1.57,.26-.24,.29-.63,.03-.88-.32-.31-.35-.77-.67-1.08,.58-.18,1.11-.11,1.63,.03,.55,.15,1.1,.32,1.67,.28,.79-.06,1.02,.36,.92,1.04m.44,3.84c-.09-.05-.17-.11-.26-.17,.96-1.54,1.91-3.08,2.86-4.63l.24,.15c-.86,1.61-1.76,3.18-2.84,4.64m2.38,0c-.4-.01-.8,0-1.31,0,.72-1.24,1.37-2.37,2.03-3.51,.09-.16,.24-.32,.26-.5,.1-.81,.62-.8,1.27-.65-.47,1.49-1.05,2.93-1.66,4.36-.12,.29-.33,.31-.59,.3m2.14-.02c.44-.6,.81-1.11,1.24-1.7-.1,1.11-.49,1.69-1.24,1.7m7.23-.13c-.15,.42-.5,.35-.73,.27-.25-.08-.06-.34,.03-.51,.22-.46,.47-.91,.67-1.38,.1-.22,.13-.5-.15-.63-.29-.13-.46,.08-.57,.31-.29,.61-.58,1.21-.84,1.83-.12,.29-.28,.39-.6,.38-1.05-.03-2.1,0-3.31,0,.53-1.17,.99-2.19,1.46-3.2,.16-.35,.38-.73-.09-.98-.49-.25-.65,.16-.81,.51-.14,.31-.28,.63-.41,.95-.19,.1-.24-.06-.31-.17-.73-.45-.23-.98-.12-1.5,.12-.58,.55-.39,.89-.4,.78-.01,1.56,0,2.49,0-.33,.8-.62,1.48-.89,2.15-.18,.45-.34,.9-.51,1.35-.14,.38,.05,.62,.31,.84,.3,.25,.62,.22,.88-.03,.4-.38,.71-.75,.83-1.39,.16-.9,.66-1.75,1.02-2.61,.09-.21,.29-.21,.49-.21h1.95c-.58,1.53-1.14,2.97-1.67,4.43m1.98,.8c-.46-.02-.71-.45-.63-.73,.29-.96,.7-1.88,1.15-3.04,.2,1.4-.43,2.62,.31,3.77-.3,0-.57,.01-.83,0m.97-7.51c-.13,.4-.46,.07-.62,.13-.77-.04-1.46-.08-2.16-.12-.12,0-.29,.07-.31-.13-.02-.15,.09-.26,.21-.31,.91-.38,1.84-.72,2.83-.81,.1,0,.28,.06,.28,.07-.06,.39-.11,.8-.23,1.17m.06-1.86c-.89,.14-1.79,.26-2.77,.78,.35-.9,.64-1.64,.93-2.38,.07-.18,.16-.21,.36-.1,.51,.28,1.05,.53,1.59,.77,.22,.1,.36,.18,.33,.46-.03,.3-.15,.41-.44,.46m-.77-2.09c.22-.19,.5-.12,.74-.17,.26-.05,.53-.05,.87-.08-.22,1.17-.38,1.19-1.61,.25m2.03-1.64c-.21,.51-.33,.81-.96,.79-.52-.02-1.05,.12-1.7,.21,.42-.92,.82-1.74,1.18-2.57,.16-.37,.31-.39,.6-.12,.5,.46,1.29,.7,.88,1.7m.4-1.53c-.48-.18-.82-.52-1.17-.83-.31-.27,.12-1.26,.65-1.47,.37-.15,.76-.23,1.32-.39-.29,.99-.54,1.82-.79,2.69m.99-3.53c-.25,.49-.88,.33-1.37,.41,.34-.26,.06-1.02,.71-.94,.25,.03,.8,.27,.66,.53m.47-1.28c-.09,.22-.05,.7-.54,.4-.31-.19-.63-.29-.4-.83,.29-.67,.9-.8,1.57-1.3-.27,.74-.43,1.24-.63,1.73m1.42-3.49c-.27,.82-.83,1.24-1.72,1.52,.3-.73,.56-1.35,.82-1.96,.09-.22,.12-.65,.45-.47,.25,.15,.62,.39,.46,.9m.4-1.03c-.24,.12-.31-.27-.46-.42-.62-.43-.1-.85,.1-1.14,.44-.65,1.01-1.21,1.66-1.7-.23,.92-.43,1.79-1.01,2.5,.07,.32-.07,.64-.29,.75m6.17-13.1c-.83,1.29-1.61,2.6-2.41,3.9,.01,.26-.09,.48-.25,.67l-.26,.63c-.42,1.19-.84,2.38-1.27,3.57-.05,.08-.1,.08-.16,0-.23-1.48,.39-2.67,1.3-3.75,.07-.16,.14-.31,.21-.47,.11-.22,.22-.44,.33-.66-.08-1.73,.98-3.02,1.74-4.42,.08-.14,.1-.67,.53-.34,.28,.21,.53,.42,.25,.86"/>
      <path class="cls-1" d="M125.25,38.04c-.05-.05-.1-.11-.16-.17,.05-.16,.12-.45,.27-.35,.2,.13,.04,.36-.11,.52"/>
      <path class="cls-1" d="M195.03,58.02c-.19-.26-.41-.5-.56-.78-.23-.43-.42-.62-.94-.3-.51,.31-.87-.1-1.09-.52-1.44-2.75-2.85-5.52-4.3-8.27-2.59-4.9-5.21-9.8-7.82-14.69-.05-.09-.1-.19-.16-.28-.3-.52-.29-1,.26-1.32,.6-.36,1.03-.05,1.32,.49,.69,1.25,1.38,2.5,2.05,3.76,3.57,6.7,7.14,13.4,10.71,20.1,.42,.78,.86,1.55,1.29,2.32-.12,.11-.24,.23-.36,.34-.04-.06-.07-.12-.11-.19-.06-.23-.14-.46-.29-.65"/>
      <path class="cls-1" d="M209.56,59.77c.93-.95,1.29-.95,2.19,0"/>
      <path class="cls-1" d="M206.8,62.14c.17-.42-.24-.81,.27-1,.16-.06,.46-.07,.49,.14,.06,.39-.25,.59-.76,.85"/>
      <path class="cls-1" d="M239.86,67.98c-1.25-.69-2.39-1.73-4.02-.94-.66,.32-1.3,.31-1.74-.56-.46-.91-1.28-.99-2.09-.32-.48,.39-.95,.81-1.39,1.25-.45,.44-.83,.41-1.22-.07-.54-.67-1.06-1.37-1.66-1.98-.79-.82-1.81-.84-2.7-.14-.48,.37-.81,.87-1.09,1.4q-.87,1.67-2.12,.2c-.54-.64-1.05-1.32-1.66-1.88-.89-.83-1.56-.76-2.33,.17-.5,.6-.95,1.25-1.39,1.89-.23,.34-.41,.33-.68,.05-.6-.63-1.2-1.25-1.84-1.84-.44-.4-.9-.98-1.59-.72-.74,.27-.62,1.06-.75,1.67-.03,.13,0,.27-.01,.41-.06,.6-.13,1.19-.22,1.93-1.35-1.03-2.51-2.03-3.6-3.12-.22-.22-.4-.61-.78-.47-.44,.16-.26,.6-.27,.93-.01,1.44-.01,2.87,.02,4.31,0,.4-.12,.6-.48,.7-.8,.23-1.6,.46-2.39,.7-.57,.18-1.25,.15-1.5,.91-.04,.12-.32,.31-.56,.22-.17-.06-.1-.24-.1-.36,.06-2.44,.12-4.87,.19-7.31,0-.18-.02-.43,.22-.47,.83-.15,1.64-.49,2.51-.24,.36,.11,.7,.24,1.09,.22,6.79-.41,13.59-.57,20.39-.13,1.78,.12,3.56,.3,5.34,.4,2.16,.12,4.33,.2,6.49,.3,.34,.02,.6-.1,.64-.46,.04-.38-.21-.52-.54-.58-.21-.04-.43-.07-.64-.08-1.92-.08-3.85-.11-5.76-.26-4.94-.37-9.88-.56-14.83-.8-3.14-.15-6.28,.04-9.42,.18-.16,.03-.32,.03-.48,.04,.12-.02,.24-.08,.32-.2,.09-.05,.18-.13,.28-.16,.62-.21,1.19-.45,.89-1.29-.07-.21,.08-.19,.21-.21,1.49-.21,2.99-.11,4.49-.1,.15,0,.45-.03,.41,.13-.27,1.05,.56,.9,1.11,1.09,.23,.08,.41,.12,.59-.06,.16-.17,.1-.33,0-.51-.28-.48-.03-.56,.4-.51,2.07,.21,4.14,.41,6.21,.62,.18,.02,.37-.02,.51,.16,.83,1.09,1.88,.9,2.89,.37,.56-.29,1.11-.34,1.71-.3,2.43,.15,4.86,.29,7.3,.42,.28,.02,.5,.07,.75,.23,.66,.41,1.52,.4,2.09,.12,.48-.24,.92-.56,1.47-.66,.39-.07,.69-.24,.59-.7-.1-.46-.45-.44-.84-.37-.62,.1-1.23,.25-1.88-.04-.46-.2-1.08,.05-1.49-.44-.08-.1-.28-.06-.37,.04-.43,.51-.99,.32-1.51,.29-2.11-.11-4.22-.25-6.33-.34-1.65-.07-3.31-.09-4.96-.34,1-.01,1.99-.12,2.99-.21,.28-.03,.68,.08,.67-.36-.01-.51-.44-.36-.74-.35-3.33,.16-6.65,.35-9.98,.47-.54,.02-1.31,.41-1.58-.53-.01-.05-.2-.08-.3-.06-.5,.13-.81-.18-1.15-.46-.59-.48-1.3-.52-1.87-.11-.42,.3-.55,.24-.8-.11-.17-.24-.39-.54-.72-.4-.33,.14-.32,.52-.22,.79,.33,.82-.17,.83-.73,.81-.18,0-.36-.02-.56-.04,.41-.63,.44-.82,.11-1.43-.44-.8-.87-1.61-1.29-2.42-1.93-3.7-3.87-7.4-5.94-11.02-2.45-4.29-5.45-8.24-7.83-12.57-.61-1.11-1.55-2.08-1.56-3.48,0-.36-.39-.56-.75-.65-.32-.08-.64-.14-1.11-.24,2.5-1.64,4.76-3.38,7.14-5.15-.06,.52-.07,.89,.28,1.17,.18,.14,.18,.37,.15,.6-.13,.91-.24,1.82-.38,2.73-.04,.25-.13,.53,.19,.6,.34,.06,.35-.24,.38-.49,.1-.81,.22-1.62,.34-2.53,.55,.7,.98,1.32,1.47,1.88,.26,.29,.49,1.02,.87,.72,.52-.4-.21-.77-.44-1.08-.54-.74-1.37-1.34-.75-2.43,.02-.04,.06-.07,.11-.12,.92,.47,1.82,.94,2.74,1.38,.2,.1,.49,.41,.68,0,.17-.39-.24-.43-.45-.54-.83-.45-1.68-.85-2.52-1.29-.18-.1-.5-.11-.33-.5,.13-.3,.15-.63-.05-.93-.22-.34-.59-.26-.97-.28,.54-.8,1.34-1.1,2.02-1.57,.29-.2,.4-.44,.21-.75-.16-.25-.36-.55-.71-.38-.46,.23-1.03,.43-1.28,.82-.67,1.03-1.77,1.45-2.71,2.08-2.57,1.73-5.31,3.23-7.51,5.47-.23,.24-.45,.3-.79,.26-2.14-.27-4.28-.55-6.39-.99-2.22-.47-4.45-.94-6.71-1.22,1.82-2.34,4.05-4.1,6.43-5.72,.48-.33,.58-.25,.68,.3,.21,1.17,.5,2.32,.75,3.48,.05,.21,.07,.47,.39,.37,.24-.07,.21-.27,.17-.47-.04-.19-.04-.38-.1-.56-.24-.78-.51-1.57,.61-1.92,.07-.02,.13-.11,.16-.18,.17-.48,.47-.37,.83-.23,1.02,.42,2.04,.83,3.07,1.23,.22,.08,.55,.33,.69-.06,.14-.38-.26-.38-.48-.47-1.02-.42-2.04-.84-3.06-1.26-.15-.06-.32-.12-.27-.33,.04-.17,.21-.13,.34-.14,.46-.06,.92-.09,1.36-.18,.42-.09,.69-.12,.57,.46-.08,.38,.14,.7,.5,.83,.34,.12,.7,.1,.97-.2,.26-.29,.31-.62,.14-.98-.06-.12-.3-.25-.09-.38,.17-.11,.49-.08,.37-.38-.11-.27-.41-.18-.64-.16-1.61,.12-3.2,.49-4.83,.52-.16,0-.36-.01-.43,.15-.12,.26-.24,.44-.5,.17-.29-.3-.03-.47,.21-.62,.65-.43,1.31-.86,1.95-1.3,.28-.19,.57-.46,.37-.82-.21-.38-.56-.22-.85-.04-1,.63-2.04,1.23-3,1.92-3.04,2.2-5.92,4.62-9.17,6.53-.19,.11-.37,.46-.61,.03-.12-.21-.32-.32-.53-.11-.22,.23,.01,.41,.13,.55,.92,1.08,1.51,2.33,2.02,3.64,1.19,3.04,2.83,5.88,4.01,8.91,2.52,6.45,4.7,13.02,6.56,19.7,.28,1.01,.57,2.02,.99,2.98,.44,1.01-.39,1.98-.1,2.99,.02,.08,0,.16,0,.24v1.03c-.86-.05-1.77-.18-2.29-.56-.6-.43-.17-1.51-.34-2.29,0-.02,0-.06,0-.08-.04-.25,.07-.61-.34-.6-.36,0-.26,.34-.29,.56-.13,.76,0,1.51,.05,2.27,.05,.64-.27,.73-.72,.46-.48-.29-.98-.42-1.53-.43-.23,0-.48-.05-.64-.29-.39-.59-.83-.47-1.29-.07-.18,.16-.32,.42-.64,.1-.54-.53-1.17-.53-1.76-.07-.58,.46-.77,1.49-.41,2.15,.12,.22,.26,.58,.58,.39,.28-.16,.05-.41-.05-.63-.17-.35-.18-.73-.01-1.1,.14-.32,.39-.55,.74-.56,.31-.01,.61,.19,.68,.49,.22,.96,.49,.66,.89,.1,.15-.21,.39-.78,.77-.33,.33,.39,.73,.51,1.14,.47,.85-.07,1.35,.97,2.25,.68,.02,0,.12,.17,.15,.27,.09,.31,.3,.47,.6,.37,.28-.09,.29-.34,.28-.61,0-.18-.17-.44,.18-.51,.96-.2,1.93,.78,1.68,1.72-.06,.24-.22,.57-.04,.69,.83,.51,.27,1.33,.49,1.96,.09,.26-.16,.29-.34,.34-.22-.08-.42-.09-.52,.18-.05,.21,.06,.33,.24,.31,.64-.06,.74,.28,.76,.83,.03,.83,.14,1.67,.26,2.5,.07,.48,.01,.73-.56,.78-.89,.08-1.76,.3-2.64,.4-1.74,.2-3.46,.43-5.24,.31-2.88-.21-5.72-1.16-8.66-.43-1.39,.35-2.73,.81-4.06,1.33-.17,.07-.34,.22-.25,.44,.09,.24,.29,.31,.53,.23,.15-.05,.3-.11,.45-.18,3.13-1.33,6.33-1.61,9.64-.75,1.75,.45,3.55,.77,5.37,.53,1.66-.22,3.31-.51,4.96-.78,.32-.05,.55-.14,.73,.32,.19,.51,.64,.59,1.1,.18,.23-.2,.45-.49,.82-.45,1.99,.23,4-.25,5.98,.26,2,.52,4.07,.43,6.11,.69,2.02,.26,4.04,.32,6.06-.03,1.27-.22,2.52-.56,3.83-.58,1.32-.02,2.67-.25,3.95,.06,1.25,.3,2.49,.47,3.75,.51,2.65,.08,5.3,.31,7.94,.51,1.78,.13,3.56,.16,5.35,0,.23-.02,.57,.03,.54-.32-.03-.39-.38-.32-.64-.27-.7,.14-1.4,.1-2.11,.1-2.33,.02-4.64-.24-6.97-.36-1.84-.09-3.68-.2-5.51-.32-.21-.01-.66,.11-.59-.26,.18-.99-.44-.99-1.1-1.02-3.16-.12-6.3,.1-9.42,.62-.26,.04-.69,.22-.79-.12-.1-.38-.12-.85,.38-1.12,1.9-1.03,3.86-1.91,5.94-2.47,2.82-.76,5.76-.82,8.64-1.11,3.31-.34,6.64-.52,9.96-.64,2.81-.1,5.62-.31,8.44-.2,.45,.02,.78-.16,.8-.6,.03-.43-.27-.68-.72-.7-.11,0-.21-.02-.32-.04-1.18-.36-2.38-.09-3.54-.17,.34-.22,.6-.56,.93-.84,.63-.53,.81-.52,1.27,.14,.42,.59,.93,.88,1.66,.62,1.5-.7,2.85-.44,4.08,.62,.06,.05,.13,.1,.21,.12,.21,.08,.44,.12,.58-.11,.13-.23,.11-.5-.14-.64m-33.21-4.84s.03,0,.05,0c-.02,0-.04,0-.06,0-.45-.1-.9-.06-1.36-.03-.84,.05-1.63,.4-2.48,.39-.29,0-.63-.01-.52-.4,.09-.33-.21-.89,.46-.94,.76-.06,1.5-.24,2.22-.44,.56-.16,.88-.11,.89,.58,0,.48,.25,.83,.79,.84m-16.37-30.66c.23,.23,.37,.51,.49,.81,.26,.3,.47,.63,.62,1,.59,.91,1.16,1.82,1.54,2.85-.67-.82-1.25-1.69-1.7-2.65-.28-.3-.46-.65-.61-1.02-.16-.27-.32-.54-.49-.81-.48-.67-.96-1.34-1.43-2.01,1.05,.16,1.12,1.16,1.58,1.83m-10.31,15.11c-.49-1.27-.92-2.41-1.36-3.55-1.7-4.01-3.4-8.01-5.1-12.02-.08-.17,.01-.19,.15-.17,1.4,2.27,2.72,4.59,3.83,7,.49,1.05,1.16,2.12,.96,3.43-.09,.57,.12,1.17,.32,1.73,.25,.22,.51,.35,.87,.35,.67,0,.99,.43,.85,1.1-.14,.66-.32,1.3-.53,2.11m-.87-5.55c.26,.55,.46,.92,.62,1.31,.06,.14,.31,.35,.03,.47-.21,.09-.44-.05-.51-.27-.14-.43-.26-.87-.14-1.51m1.61,4.92c.06-.26,.14-.51,.27-.95,.49,.95,.91,1.74,1.31,2.52-.06,.17-.17,.14-.28,.14-1.68,0-1.71-.04-1.3-1.71m.69,4.82c-.25-.76-.41-1.38-.65-1.97-.15-.37-.05-.49,.31-.5,.11,0,.21-.03,.32-.04,.43-.04,.97-.16,1.2,.22,.18,.3-.21,.68-.38,1.01-.2,.4-.47,.76-.8,1.28m.44,.42c.39-.69,.81-1.37,1.27-2.13,.46,.78,.88,1.48,1.31,2.22-.8,.09-1.54,.17-2.27,.27-.34,.05-.51-.01-.31-.36m1.22,4.56c-.38-1.12-.73-2.12-1.07-3.13-.08-.24-.06-.42,.25-.46,.7-.09,1.38-.27,2.09-.19,.45,.05,.6,.21,.43,.69-.39,1.1-1.04,2.04-1.71,3.1m2.24-2.86c.51,.85,.98,1.61,1.48,2.45-1.08,.05-1.99,.47-3.13,.63,.62-1.08,1.27-1.94,1.64-3.08m-1.04,6.08c-.33,.07-.19-.25-.31-.37-.18-.67-.37-1.33-.56-2.02,1.04-.03,1.95-.48,3.02-.6-.66,1.11-1.4,2.05-2.15,2.99m2.87-3.01c.73,1,1.17,2.14,2.04,3.07-1.59,.23-3.03,.58-4.59,.47,.92-1.12,1.76-2.26,2.55-3.54m1.2-3.5c.05-.07,.11-.06,.16,0,1.2,2.12,2.39,4.25,3.99,6.17-.68,.14-1.32,.23-2.04,.17,.53-.62,.29-1.17-.08-1.71-.66-.95-1.3-1.91-1.95-2.87-.26-.38-.65-.74-.1-1.21,.14-.12,.05-.36,.02-.54m11.95,8.76c-.25,2.2-.34,4.42-.42,6.64-.05,1.43-.16,2.86-.38,4.28-.08,.54,.29,.88,.27,1.38-.02,.6-.12,.79-.78,.78-3.53,0-7.01-.4-10.47-1.09-.69-.14-1.4-.25-2.09-.2-.65,.05-.9-.18-1.02-.76-.11-.51-.18-1.01-.18-1.53,0-2.09,.04-4.17,.02-6.26,0-.54,.2-.61,.66-.62,1.41-.03,2.82-.1,4.22-.15-.3,1.41-.74,2.8-.97,4.23-.04,.26-.14,.52-.07,.91,.36-.35,.38-.75,.51-1.1,.12-.35,.07-.76,.43-1.01,.2,.05,.25,.21,.3,.37,.09,.95,0,1.89,.04,2.71,.32-1.4,.05-2.99,.32-4.53,.1-.56-.41-1.02-.21-1.58,2.3,0,4.6-.17,6.9-.06,1.43,.07,1.91-.38,2.02-1.78,.06-.7-.52-1.2-1.21-.94-.76,.29-1.43,.23-2.21,.01-1.52-.41-3.12-.23-4.68-.1-1.16,.1-2.4,0-3.4,.85-.08,.07-.27,.07-.39,.04-.83-.2-1.57-.09-2.08,.66-.1-.09-.14-.11-.14-.12-.08-1.73-.08-1.77,1.67-1.81,4.14-.09,8.29-.13,12.43-.22,.77-.02,.99,.17,.9,1m.27-2.17c-.38,.29-1.12,.16-1.65-.14-.39-.21-.79-.4-1.22-.38-.86,.05-1.5-.24-1.87-1.04-.19-.07-.3-.22-.4-.39-.95-1.64-1.93-3.26-2.8-4.95-3.22-6.23-6.5-12.42-9.85-18.58-.38-.69-.74-1.38-1.13-2.06-.25-.43-.58-.78-1.11-.46-.5,.3-.3,.74-.08,1.14,3.41,6.25,6.72,12.55,9.98,18.88,.68,1.32,1.31,2.67,2.07,3.96,.31,.52,.61,.89,1.27,.61,.33-.13,.58,.03,.76,.31,.19,.3,.4,.58,.58,.88,.1,.23,.17,.48,.3,.7,.05,.1,.07,.2,.05,.31,.3,.48,.21,.72-.4,.64-.05,0-.11-.02-.16,0-1.52,.56-2.22-.5-2.93-1.5-1.1-1.56-2.07-3.2-2.97-4.89-.2-.38-.45-.73-.68-1.1-.55-.47-.76-1.13-.92-1.8-1.13-2.3-2.26-4.59-3.38-6.89-2.14-4.4-4.28-8.81-6.42-13.21-.16-.33-.31-.71-.76-.49-.52,.26-.13,.61,0,.88,3.03,5.84,5.61,11.87,7.9,18.03,.11,.3,.32,.62,.11,1-2.69-4.38-4.71-9.09-7.25-13.53-1.33-2.32-2.68-4.62-4.02-6.93-.57-.98-.46-1.21,.68-1.25,1.34-.04,2.61,.4,3.91,.61,1.9,.31,3.83,.53,5.8,1.05-.54,.45-1.09,.73-.17,1.4,.4,.29,.58,1.21,.91,1.82,3.01,5.7,6.4,11.19,9.32,16.93,1.13,2.23,2.14,4.53,3.26,6.76,.28,.55,.43,1.59,1.53,.91,.15-.09,.26,.15,.35,.27,.3,.38,.58,.78,.89,1.16,.14,.17,.29,.47,.58,.23,.24-.2,.04-.38-.11-.54-.02-.02-.02-.05-.04-.07-1.67-1.89-2.67-4.16-3.7-6.42-2.13-4.66-4.88-8.99-7.36-13.47-1.31-2.36-2.61-4.72-3.91-7.08-.22-.4-.37-.84-.84-1.07,1.03-.67,1.89-.52,2.7,.28,.25,.25,.8,.12,1,.59,.08,.2,.31,.32-.12,.4-.84,.15-.93,.49-.45,1.3,1.7,2.88,3.42,5.75,5.08,8.66,2.75,4.82,5.45,9.66,8.47,14.31,.21,.33,.4,.7,.84,.64,.43-.06,.64-.41,.65-.93,1.12,1.49,1.84,3.16,3.19,4.39-1.11,.43-2.3,.34-3.48,.33-.1,0-.23-.04-.28-.11-.53-.65-1-.68-1.71-.12m7.31,10.19c-.48,.16-.42-.22-.42-.45-.02-1.21,0-2.41,0-3.73,1.21,1.07,2.35,2.08,3.52,3.13-1.07,.36-2.09,.7-3.09,1.05m4.27-1.38c.13-.99,.27-1.94,.38-2.9,.07-.57,.3-.57,.65-.23,.58,.57,1.13,1.16,1.71,1.72,.32,.31,.69,.58,1.14,.96-1.39,0-2.62,.3-3.89,.45m6.18,.23c-.24,.02-.54,.15-.45-.36,.05-.27-.23-.46-.55-.46-.27,0-.53,0-.92,0,.81-.5,1.16-1.23,1.62-1.87,.89-1.24,1.29-1.26,2.26-.06,.66,.82,1.32,1.63,2.32,2.37-1.54,.14-2.91,.26-4.27,.38m5.5-.45c.43-.77,.77-1.44,1.17-2.07,.81-1.29,1.72-1.35,2.68-.19,.53,.64,1,1.33,1.75,1.99-1.94,.09-3.73,.18-5.59,.27"/>
      <path class="cls-1" d="M179.24,47.3c-.3,0-.51-.11-.64-.43,.36,0,.5,.22,.64,.43"/>
      <path class="cls-1" d="M190.9,35.2c-.3-.1-.31-.3-.4-.59,.33,.15,.35,.35,.4,.59"/>
      <path class="cls-1" d="M188.9,26.61c-.12-.01-.19-.04-.12-.13,.06-.08,.14-.16,.23-.19,.1-.04,.13,.07,.1,.13-.05,.08-.14,.14-.2,.19"/>
      <path class="cls-1" d="M173.67,31.86c-.05,.06-.1,.11-.15,.16-.16-.15-.25-.32-.18-.55,.29-.02,.28,.21,.33,.38"/>
      <path class="cls-1" d="M183.95,59.61c.16,.07,.07,.36,.31,.37-.07,.07-.18,.21-.2,.19-.22-.14-.1-.36-.11-.56"/>
      <path class="cls-1" d="M191.14,24.92c0,.19-.12,.26-.27,.31-.02,0-.09-.07-.08-.09,.05-.16,.15-.26,.34-.22"/>
      <path class="cls-1" d="M177.56,68.29h1.57v.09h-1.63s.04-.06,.07-.09"/>
      <path class="cls-1" d="M182.11,69.62c.27-.9-.31-1-.96-1.05-.38-.03-.76-.1-1.19-.16,.13-.14,.2-.22,.26-.31,.17-.2,.68-.11,.51-.57-.14-.39-.51-.23-.78-.23-1.33,0-2.65,0-3.98,.02-.37,0-.91-.21-1.06,.32-.16,.54,.57,.32,.76,.66-.2,.16-.37,.09-.54,.05-2.46-.56-4.95-.86-7.47-.87-.6,0-1.05-.14-1.49-.59-.62-.63-1.35-1.15-2.03-1.72-.19-.16-.41-.35-.62-.07-.18,.24,.09,.38,.24,.52,.62,.54,1.32,.99,1.88,1.64-.84,.11-1.61,.2-2.38,.33-.2,.03-.3-.02-.43-.12-.43-.38-.85-.75-1.28-1.13-.29-.25-.31-.54-.15-.87,.4-.82,.41-1.61,0-2.45-.2-.4-.19-.89-.65-1.14,.25-.41,.5-.82,.76-1.23,.02-.04,.07-.06,.11-.1,.22,.18,.33,.43,.37,.7,.12,.88,.22,1.77,.35,2.65,.12,.81,.01,1.62-.03,2.43,0,.19-.06,.42,.19,.46,.31,.05,.33-.2,.36-.42,.04-.32,.08-.64,.11-.97,.1-1.19-.18-2.36-.27-3.65,.44,.32,.82,.16,1.21,.06,.53-.14,.81,.05,.86,.61,.06,.62,.2,1.22,.19,1.85,0,.28-.05,.68,.4,.63,.42-.04,.3-.41,.32-.7,.05-1.04-.51-2.03-.21-3.08,.04-.16-.2-.23-.35-.29-.58-.07-1.16-.14-1.66,.28-.31,0-.75,.27-.89-.07-.17-.45-.56-.81-.57-1.32,0-.23-.02-.47-.29-.51-.28-.04-.32,.23-.42,.41-.38,.63-.29,1.64-1.37,1.72-.03,0-.06,.09-.07,.14-.02,.59-.38,1.12-.24,1.74,.12,.53,.12,1.09,.2,1.83-.86-.75-2.18-.34-2.51-1.79-.1-.44-.49-.92-.49-1.49,0-.73,0-1.45,0-2.18,0-.28,.05-.58-.35-.6-.34-.02-.49,.2-.48,.51,.03,.63-.32,.63-.82,.61-.55-.02-.85-.16-.88-.76,0-.18-.04-.44-.27-.56-.15-.08-.41-.1-.29-.38,.09-.21,.25-.35,.5-.35,.6,0,1.19-.02,1.79-.03,.5,0,.81-.36,.55-.7-.3-.4-.5-1.06-1.08-1.09-1.11-.07-.75-.79-.77-1.36,.16,.18,.25,.4,.36,.6,.09,.17,.11,.49,.42,.35,.25-.11,.17-.36,.13-.57-.04-.19-.4-.4-.15-.55,.57-.35,.26-.85,.13-1.13-.38-.82-.44-1.67-.45-2.52-.02-2.66,0-5.31,0-7.96,0-.84-.14-1.67-.24-2.5-.02-.18-.07-.4-.31-.41-.08,0-.24,.12-.24,.16,.12,.51-.33,.88-.32,1.38,.02,3.12-.03,6.23-.36,9.33-.21,1.94-.11,3.95-.98,5.78-.26,.56-.62,1.06-.17,1.67,.04,.06,0,.22-.04,.31-.22,.5,.17,1.2-.51,1.57-.08,.04-.01,.21,.09,.27,.35,.18,.22,.49,.23,.78,.04,1.08-.35,2.14-.17,3.24,.06,.38,.1,.89-.34,1.25-.69,.57-1.32,1.2-1.99,1.8-.09,.08-.17,.35-.35,.11-.34-.45-.83-.32-1.27-.33-3.11-.06-6.22,0-9.33,.24-.69,.05-.69,.02-.52,.66,.02,.06-.06,.15-.07,.23-.12,.94,.14,1.29,1.09,1.39,.35,.04,.7,.02,1.06,0,2.76-.08,5.51-.15,8.25-.57,1.04-.16,2.07-.38,2.73-1.22,.52-.65,1.14-1.15,1.78-1.63,2.1-1.57,4.83-1.35,6.69,.52,.48,.48,.91,1,1.4,1.47,.67,.64,1.36,1.37,2.33,1.34,1.58-.04,3.17,.21,4.75-.04,1-.16,2-.12,3-.04,.35,.03,.74,.14,1.05,.04,1.21-.41,2.38,.24,3.57,.08,.37-.05,.25,.37,.47,.45,.18,.12,.37,.15,.56,.15-.19,0-.39,.02-.57,.13-2.51,.07-5.02,.15-7.54,.2-.69,.02-1.41,.15-2.05-.27-.15-.1-.34-.09-.43,.07-.12,.2,0,.36,.19,.46,.51,.28,1.06,.39,1.63,.38,1.05-.03,2.1-.1,3.16-.11,2.92-.04,5.84,.05,8.75-.17,.33-.02,.75,.14,.96-.25,.22-.42-.4-.43-.44-.76,0-.07-.07-.13-.11-.2-.17-.16-.36-.2-.55-.21,.23,0,.46,.02,.68,.06,.38,.08,.81-.14,1.15,.18,.17-.06,.35-.12,.52-.18-.07-.1-.31-.07-.25-.25m-28.54-4.98s-.05-.11-.04-.15c.11-.35,.37-.17,.63-.18-.14,.28-.41,.24-.59,.33m2.23-2.64c-.15,.02-.32,.18-.29,.35,.19,1.28-.67,.92-1.4,.86,.07-.55,.29-1.07-.43-1.39-.4-.18-.16-.64-.15-.96,0-.39,.37-.22,.57-.22,.48,0,.97,.04,1.45,.1,.24,.03,.63-.03,.59,.37-.03,.3,.32,.78-.32,.89m21.38,8.55c.18,0,.35-.03,.51,0-.16,.02-.33,0-.51,0m2.07-.73c-.28,.03-.58-.07-.86,.06,.27-.14,.56-.03,.84-.06,.19,0,.38,0,.57,0-.19,.01-.37,.03-.56,0"/>
      <path class="cls-1" d="M179.23,69.75s0,.08,0,.12c-.28,.02-.56,.06-.86-.06,.29-.14,.58-.07,.86-.06"/>
      <path class="cls-1" d="M57.9,69.89c.25-.11-.07-.39-.32-.46-.31-.09-.6,.06-.86,.16-.82,.31-1.46,.08-2.03-.52-.29-.12-.42,.19-.64,.25,.04,.07,.08,.14,.11,.23-.54-.05-1.09,0-1.58-.29,.09-.04,.18-.08,.27-.12-.04-.01-.08-.02-.12-.03-.22-.06-.41-.19-.65-.2-.97,.38-1.88,.57-2.76-.3-1.1-1.09-1.37-1.07-2.61-.13-.13,.1-.26,.19-.39,.28-.74,.57-1.51,.67-2.31,.11-.28,.28-.59-.19-.87,.03,.14,.15,.28,.3,.51,.55-3.37,.23-6.64,.53-9.83,1.38,.65-.09,.4,.59,.69,.81,1.82-.38,3.66-.68,5.52-.78,3-.17,6-.32,9-.06,2.62,.23,5.3,.05,7.82,1.04,.33,.13,.64,.04,.88-.24,.22-.27,.3-.61,.1-.9-.21-.31-.59-.51,.06-.81m-11.01-.57q1.05-1.14,2.2,0h-2.2Z"/>
      <path class="cls-1" d="M128.08,52.59c.24-.12,.41-.11,.59-.04-.15,.21-.33,.11-.59,.04"/>
      <path class="cls-1" d="M195.03,58.02c.36,.1,.38,.35,.29,.65-.18-.18-.35-.36-.29-.65"/>
      <path class="cls-1" d="M187.25,66.88c-.26,1.34-.5,2.47-.71,3.61-.04,.22-.03,.47-.34,.42-.3-.05-.23-.29-.21-.51,.18-1.5,.55-2.96,.9-4.42,.05-.2,.1-.51,.37-.43,.24,.07,.63,.04,.65,.47,.08,1.46,.16,2.91,.24,4.36,0,.17-.03,.34-.25,.34-.2,0-.27-.15-.28-.32-.04-.51-.09-1.02-.12-1.53-.03-.59,0-1.19-.26-1.98"/>
      <path class="cls-1" d="M192.67,67.2c-.18,.75-.35,1.49-.53,2.24-.05,.22-.04,.55-.41,.45-.29-.08-.19-.36-.14-.55,.24-1.1,.49-2.21,.74-3.31,.04-.16,.06-.33,.27-.35,.21-.02,.22,.22,.31,.27,.7,.45,.57,1.16,.64,1.81,.08,.83,.2,1.67,.28,2.5,.02,.24,.17,.6-.26,.63-.34,.02-.32-.28-.36-.52-.18-1.04-.31-2.08-.53-3.16"/>
      <path class="cls-1" d="M197.27,65.89c-.2,1.6-.46,3.16-.82,4.7-.05,.22-.09,.47-.38,.42-.32-.06-.28-.34-.25-.59,.24-1.51,.49-3.02,.73-4.53,.04-.26,0-.6,.4-.58,.42,.02,.29,.36,.31,.58"/>
      <path class="cls-1" d="M198.4,66.5c0,.83,0,1.66,0,2.49,0,.33-.08,.67-.41,.68-.36,0-.41-.33-.4-.66,.05-.86,.08-1.72,.11-2.58,.01-.31,.03-.67,.41-.66,.4,.02,.48,.37,.28,.73"/>
      <path class="cls-1" d="M190.45,64.71c-.12-.18-.23-.19-.35,0-.77,1.56-.94,3.27-1.32,4.93-.06,.25-.11,.5,.21,.59,.37,.09,.44-.18,.51-.46,.15-.65,.33-1.3,.49-1.95,.05,.1,.11,.2,.16,.31-.03,1.05-.07,2.11-.09,3.16,0,.22-.01,.48,.3,.46,.23-.01,.25-.22,.26-.43,.04-.89,.16-1.78,.15-2.67-.02-1.31,.45-2.67-.3-3.93"/>
    </g>
  </g>
</svg>